SplineFontDB: 3.0
FontName: Boon-400
FullName: Boon 400
FamilyName: Boon
Weight: 400
Copyright: Copyright 2013-2015, Sungsit Sawaiwan (https://fontuni.com | uni@fontuni.com). This Font Software is licensed under the SIL Open Font License, Version 1.1 (http://scripts.sil.org/OFL).
Version: 1.0
ItalicAngle: 0
UnderlinePosition: -120
UnderlineWidth: 60
Ascent: 960
Descent: 240
InvalidEm: 0
sfntRevision: 0x00010000
LayerCount: 2
Layer: 0 0 "Back" 1
Layer: 1 0 "Fore" 0
XUID: [1021 556 -266790205 5168035]
StyleMap: 0x0000
FSType: 0
OS2Version: 3
OS2_WeightWidthSlopeOnly: 0
OS2_UseTypoMetrics: 0
CreationTime: 1369324892
ModificationTime: 1445629899
PfmFamily: 17
TTFWeight: 400
TTFWidth: 5
LineGap: 90
VLineGap: 0
Panose: 2 0 5 3 0 0 0 0 0 0
OS2TypoAscent: 960
OS2TypoAOffset: 0
OS2TypoDescent: -240
OS2TypoDOffset: 0
OS2TypoLinegap: 90
OS2WinAscent: 1320
OS2WinAOffset: 0
OS2WinDescent: 480
OS2WinDOffset: 0
HheadAscent: 1320
HheadAOffset: 0
HheadDescent: -480
HheadDOffset: 0
OS2SubXSize: 780
OS2SubYSize: 840
OS2SubXOff: 0
OS2SubYOff: 168
OS2SupXSize: 780
OS2SupYSize: 840
OS2SupXOff: 0
OS2SupYOff: 576
OS2StrikeYSize: 59
OS2StrikeYPos: 310
OS2CapHeight: 780
OS2XHeight: 600
OS2Vendor: 'FUni'
OS2CodePages: 20010193.00000000
OS2UnicodeRanges: a30000ff.5000207b.00000000.00000000
Lookup: 1 0 0 "ThaiRC.rd" { "ThaiRC.rd subtable"  } ['ccmp' ('thai' <'PAL ' 'SAN ' > ) 'locl' ('thai' <'PAL ' 'SAN ' > ) 'ss01' ('thai' <'dflt' > ) ]
Lookup: 6 0 0 "ThaiContextRC.rd" { "ThaiContextRC.rd subtable"  } ['ccmp' ('thai' <'dflt' > ) ]
Lookup: 2 0 0 "ThaiDecomp" { "ThaiDecomp subtable"  } ['ccmp' ('thai' <'dflt' > ) ]
Lookup: 1 0 0 "ThaiT.0E4D" { "ThaiT.0E4D subtable"  } []
Lookup: 1 0 0 "Thai0E4D.0E48" { "Thai0E4D.0E48 subtable"  } []
Lookup: 1 0 0 "Thai0E4D.0E49" { "Thai0E4D.0E49 subtable"  } []
Lookup: 1 0 0 "Thai0E4D.0E4A" { "Thai0E4D.0E4A subtable"  } []
Lookup: 1 0 0 "Thai0E4D.0E4B" { "Thai0E4D.0E4B subtable"  } []

StartChar: .notdef
Encoding: 65536 -1 0
Width: 660
Flags: W
LayerCount: 2
Fore
SplineSet
102 0 m 1
 102 600 l 1
 330 600 l 1
 558 600 l 1
 558 0 l 1
 330 0 l 1
 102 0 l 1
330 69 m 1
 473 69 l 1
 473 531 l 1
 330 531 l 1
 187 531 l 1
 187 69 l 1
 330 69 l 1
EndSplineSet
EndChar

StartChar: exclam
Encoding: 33 33 5
Width: 330
GlyphClass: 2
Flags: W
LayerCount: 2
Fore
SplineSet
110 810 m 1
 220 810 l 1
 196 270 l 1
 134 270 l 1
 110 810 l 1
165 133 m 0
 206 133 237 107 237 65 c 0
 237 23 206 -3 165 -3 c 0
 124 -3 93 23 93 65 c 0
 93 107 124 133 165 133 c 0
EndSplineSet
EndChar

StartChar: quotedbl
Encoding: 34 34 6
Width: 540
GlyphClass: 2
Flags: W
LayerCount: 2
Fore
SplineSet
336 900 m 1
 424 900 l 1
 409 540 l 1
 351 540 l 1
 336 900 l 1
116 900 m 1
 204 900 l 1
 189 540 l 1
 131 540 l 1
 116 900 l 1
EndSplineSet
EndChar

StartChar: numbersign
Encoding: 35 35 7
Width: 810
GlyphClass: 2
Flags: W
LayerCount: 2
Fore
SplineSet
60 214 m 1
 60 276 l 1
 192 276 l 1
 254 504 l 1
 120 504 l 1
 120 566 l 1
 270 566 l 1
 328 780 l 1
 402 780 l 1
 344 566 l 1
 560 566 l 1
 618 780 l 1
 692 780 l 1
 634 566 l 1
 750 566 l 1
 750 504 l 1
 618 504 l 1
 556 276 l 1
 690 276 l 1
 690 214 l 1
 540 214 l 1
 482 0 l 1
 408 0 l 1
 466 214 l 1
 250 214 l 1
 192 0 l 1
 118 0 l 1
 176 214 l 1
 60 214 l 1
328 504 m 1
 266 276 l 1
 482 276 l 1
 544 504 l 1
 328 504 l 1
EndSplineSet
EndChar

StartChar: dollar
Encoding: 36 36 8
Width: 660
GlyphClass: 2
Flags: W
LayerCount: 2
Fore
SplineSet
67 182 m 1
 160 188 l 1
 169 129 218 70 300 58 c 1
 300 368 l 1
 273 379 246 389 224 398 c 0
 159 425 85 481 85 585 c 0
 85 691 162 780 300 792 c 1
 300 900 l 1
 369 900 l 1
 369 791 l 1
 507 775 565 671 575 603 c 1
 482 596 l 1
 474 652 434 705 369 720 c 1
 369 428 l 1
 397 417 425 407 447 400 c 0
 519 376 592 317 592 200 c 0
 592 93 518 2 369 -11 c 1
 369 -120 l 1
 300 -120 l 1
 300 -12 l 1
 144 1 77 111 67 182 c 1
300 455 m 1
 300 722 l 1
 229 712 178 666 178 585 c 0
 178 513 236 481 279 463 c 0
 286 460 293 458 300 455 c 1
369 342 m 1
 369 58 l 1
 452 69 499 118 499 200 c 0
 499 285 438 319 401 331 c 0
 391 334 380 338 369 342 c 1
EndSplineSet
EndChar

StartChar: percent
Encoding: 37 37 9
Width: 780
GlyphClass: 2
Flags: W
LayerCount: 2
Fore
SplineSet
480 186 m 2
 480 204 l 2
 480 291 504 400 615 400 c 0
 726 400 750 291 750 204 c 2
 750 186 l 2
 750 99 726 -10 615 -10 c 0
 504 -10 480 99 480 186 c 2
615 34 m 0
 661 34 691 90 691 186 c 2
 691 204 l 2
 691 300 661 356 615 356 c 0
 569 356 539 300 539 204 c 2
 539 186 l 2
 539 90 569 34 615 34 c 0
30 576 m 2
 30 594 l 2
 30 681 54 790 165 790 c 0
 276 790 300 681 300 594 c 2
 300 576 l 2
 300 489 276 380 165 380 c 0
 54 380 30 489 30 576 c 2
165 424 m 0
 211 424 241 480 241 576 c 2
 241 594 l 2
 241 690 211 746 165 746 c 0
 119 746 89 690 89 594 c 2
 89 576 l 2
 89 480 119 424 165 424 c 0
82 0 m 1
 82 5 l 1
 636 780 l 1
 697 780 l 1
 697 775 l 1
 143 0 l 1
 82 0 l 1
EndSplineSet
EndChar

StartChar: ampersand
Encoding: 38 38 10
Width: 810
GlyphClass: 2
Flags: W
LayerCount: 2
Fore
SplineSet
642 149 m 1
 720 68 782 5 782 5 c 1
 782 0 l 1
 676 0 l 1
 676 0 641 37 590 90 c 1
 520 25 427 -18 314 -18 c 0
 152 -18 72 66 72 166 c 0
 72 282 181 362 278 425 c 1
 232 484 192 558 192 625 c 0
 192 733 262 798 364 798 c 0
 478 798 530 723 530 651 c 0
 530 552 472 479 384 418 c 1
 436 363 516 279 591 202 c 1
 628 261 649 333 657 405 c 1
 737 393 l 1
 728 308 696 221 642 149 c 1
542 140 m 1
 468 218 379 312 321 376 c 1
 229 312 164 243 164 166 c 0
 164 94 218 52 314 52 c 0
 413 52 488 86 542 140 c 1
364 736 m 0
 300 736 274 683 274 623 c 0
 274 575 303 517 341 467 c 1
 410 519 450 582 450 651 c 0
 450 703 418 736 364 736 c 0
EndSplineSet
EndChar

StartChar: quotesingle
Encoding: 39 39 11
Width: 330
GlyphClass: 2
Flags: W
LayerCount: 2
Fore
SplineSet
121 900 m 1
 209 900 l 1
 194 540 l 1
 136 540 l 1
 121 900 l 1
EndSplineSet
EndChar

StartChar: parenleft
Encoding: 40 40 12
Width: 390
GlyphClass: 2
Flags: W
LayerCount: 2
Fore
SplineSet
72 390 m 0
 72 611 144 784 254 909 c 1
 312 886 l 1
 211 768 156 600 156 390 c 0
 156 180 211 12 312 -106 c 1
 254 -129 l 1
 144 -4 72 169 72 390 c 0
EndSplineSet
Substitution2: "Latin.subs subtable" parenleft.subs
Substitution2: "Latin.sups subtable" parenleft.sups
EndChar

StartChar: parenright
Encoding: 41 41 13
Width: 390
GlyphClass: 2
Flags: W
LayerCount: 2
Fore
SplineSet
318 390 m 0
 318 169 246 -4 136 -129 c 1
 78 -106 l 1
 179 12 234 180 234 390 c 0
 234 600 179 768 78 886 c 1
 136 909 l 1
 246 784 318 611 318 390 c 0
EndSplineSet
Substitution2: "Latin.subs subtable" parenright.subs
Substitution2: "Latin.sups subtable" parenright.sups
EndChar

StartChar: asterisk
Encoding: 42 42 14
Width: 570
GlyphClass: 2
Flags: W
LayerCount: 2
Fore
SplineSet
52 702 m 1
 76 778 l 1
 262 700 l 1
 246 900 l 1
 326 900 l 1
 309 700 l 1
 494 778 l 1
 519 702 l 1
 324 655 l 1
 455 503 l 1
 390 456 l 1
 286 628 l 1
 180 456 l 1
 116 503 l 1
 247 655 l 1
 52 702 l 1
EndSplineSet
EndChar

StartChar: plus
Encoding: 43 43 15
Width: 600
GlyphClass: 2
Flags: W
LayerCount: 2
Fore
SplineSet
97 328 m 1
 97 392 l 1
 257 392 l 1
 257 555 l 1
 343 555 l 1
 343 392 l 1
 503 392 l 1
 503 328 l 1
 343 328 l 1
 343 165 l 1
 257 165 l 1
 257 328 l 1
 97 328 l 1
EndSplineSet
EndChar

StartChar: comma
Encoding: 44 44 16
Width: 330
GlyphClass: 2
Flags: W
LayerCount: 2
Fore
SplineSet
92 63 m 0
 92 104 120 133 164 133 c 0
 226 133 252 81 252 25 c 0
 252 -79 184 -152 120 -195 c 1
 92 -156 l 1
 141 -123 182 -72 189 1 c 1
 181 -2 172 -3 162 -3 c 0
 122 -3 92 23 92 63 c 0
EndSplineSet
EndChar

StartChar: hyphen
Encoding: 45 45 17
Width: 600
GlyphClass: 2
Flags: W
LayerCount: 2
Fore
SplineSet
97 395 m 1
 503 395 l 1
 503 325 l 1
 97 325 l 1
 97 395 l 1
EndSplineSet
EndChar

StartChar: period
Encoding: 46 46 18
Width: 330
GlyphClass: 2
Flags: W
LayerCount: 2
Fore
SplineSet
165 133 m 0
 206 133 237 107 237 65 c 0
 237 23 206 -3 165 -3 c 0
 124 -3 93 23 93 65 c 0
 93 107 124 133 165 133 c 0
EndSplineSet
EndChar

StartChar: slash
Encoding: 47 47 19
Width: 510
GlyphClass: 2
Flags: W
LayerCount: 2
Fore
SplineSet
50 0 m 1
 50 5 l 1
 379 780 l 1
 460 780 l 1
 460 775 l 1
 132 0 l 1
 50 0 l 1
EndSplineSet
Substitution2: "LatinSlash.frac subtable" fraction
EndChar

StartChar: zero
Encoding: 48 48 20
Width: 660
GlyphClass: 2
Flags: W
LayerCount: 2
Fore
SplineSet
67 374 m 2
 67 406 l 2
 67 587 118 798 330 798 c 0
 542 798 593 587 593 406 c 2
 593 374 l 2
 593 193 542 -18 330 -18 c 0
 118 -18 67 193 67 374 c 2
330 52 m 0
 438 52 499 178 499 374 c 2
 499 406 l 2
 499 602 438 728 330 728 c 0
 222 728 161 602 161 406 c 2
 161 374 l 2
 161 178 222 52 330 52 c 0
EndSplineSet
Substitution2: "Latin.dnom subtable" zero.dnom
Substitution2: "Latin.numr subtable" zero.numr
Substitution2: "Latin.subs subtable" zero.subs
Substitution2: "Latin.sups subtable" zero.sups
Substitution2: "Latin.pnum subtable" zero.pnum
EndChar

StartChar: one
Encoding: 49 49 21
Width: 660
GlyphClass: 2
Flags: W
LayerCount: 2
Fore
SplineSet
102 630 m 1
 364 786 l 1
 430 779 l 1
 430 74 l 1
 582 74 l 1
 582 0 l 1
 142 0 l 1
 142 74 l 1
 337 74 l 1
 337 681 l 1
 142 562 l 1
 102 630 l 1
EndSplineSet
Substitution2: "Latin.dnom subtable" one.dnom
Substitution2: "Latin.numr subtable" one.numr
Substitution2: "Latin.subs subtable" one.subs
Substitution2: "Latin.sups subtable" one.sups
Substitution2: "Latin.pnum subtable" one.pnum
EndChar

StartChar: two
Encoding: 50 50 22
Width: 660
GlyphClass: 2
Flags: W
LayerCount: 2
Fore
SplineSet
77 36 m 0
 77 212 221 312 331 386 c 0
 409 438 482 492 482 580 c 0
 482 642 452 728 330 728 c 0
 245 728 193 663 181 605 c 1
 85 614 l 1
 99 685 171 798 329 798 c 0
 539 798 574 646 574 580 c 0
 574 455 465 379 389 327 c 0
 289 259 193 190 180 74 c 1
 582 74 l 1
 582 0 l 1
 82 0 l 1
 82 0 77 16 77 36 c 0
EndSplineSet
Substitution2: "Latin.dnom subtable" two.dnom
Substitution2: "Latin.numr subtable" two.numr
Substitution2: "Latin.subs subtable" two.subs
Substitution2: "Latin.sups subtable" two.sups
Substitution2: "Latin.pnum subtable" two.pnum
EndChar

StartChar: three
Encoding: 51 51 23
Width: 660
GlyphClass: 2
Flags: W
LayerCount: 2
Fore
SplineSet
47 122 m 1
 139 139 l 1
 151 106 188 44 302 44 c 0
 450 44 482 138 482 205 c 0
 482 271 445 351 312 351 c 2
 212 351 l 1
 212 420 l 1
 302 420 l 2
 378 420 455 476 455 573 c 0
 455 635 425 721 303 721 c 0
 218 721 165 655 153 597 c 1
 57 607 l 1
 71 678 143 791 301 791 c 0
 511 791 546 639 546 573 c 0
 546 483 492 427 434 396 c 1
 544 362 577 272 577 210 c 0
 577 132 536 -25 302 -25 c 0
 126 -25 63 78 47 122 c 1
EndSplineSet
Substitution2: "Latin.dnom subtable" three.dnom
Substitution2: "Latin.numr subtable" three.numr
Substitution2: "Latin.subs subtable" three.subs
Substitution2: "Latin.sups subtable" three.sups
Substitution2: "Latin.pnum subtable" three.pnum
EndChar

StartChar: four
Encoding: 52 52 24
Width: 660
GlyphClass: 2
Flags: W
LayerCount: 2
Fore
SplineSet
408 206 m 1
 45 206 l 1
 38 250 l 1
 420 786 l 1
 498 779 l 1
 498 274 l 1
 623 274 l 1
 623 206 l 1
 498 206 l 1
 498 0 l 1
 408 0 l 1
 408 206 l 1
410 274 m 1
 410 657 l 1
 140 274 l 1
 410 274 l 1
EndSplineSet
Substitution2: "Latin.dnom subtable" four.dnom
Substitution2: "Latin.numr subtable" four.numr
Substitution2: "Latin.subs subtable" four.subs
Substitution2: "Latin.sups subtable" four.sups
Substitution2: "Latin.pnum subtable" four.pnum
EndChar

StartChar: five
Encoding: 53 53 25
Width: 660
GlyphClass: 2
Flags: W
LayerCount: 2
Fore
SplineSet
67 129 m 1
 159 146 l 1
 171 113 208 51 322 51 c 0
 470 51 502 154 502 231 c 0
 502 311 473 412 341 412 c 0
 265 412 198 359 170 317 c 1
 100 354 l 1
 114 780 l 1
 554 780 l 1
 554 711 l 1
 201 711 l 1
 192 421 l 1
 230 450 285 479 357 479 c 0
 559 479 597 312 597 236 c 0
 597 152 556 -18 322 -18 c 0
 146 -18 83 85 67 129 c 1
EndSplineSet
Substitution2: "Latin.dnom subtable" five.dnom
Substitution2: "Latin.numr subtable" five.numr
Substitution2: "Latin.subs subtable" five.subs
Substitution2: "Latin.sups subtable" five.sups
Substitution2: "Latin.pnum subtable" five.pnum
EndChar

StartChar: six
Encoding: 54 54 26
Width: 660
GlyphClass: 2
Flags: W
LayerCount: 2
Fore
SplineSet
88 294 m 2
 88 438 l 2
 88 570 114 798 344 798 c 0
 512 798 564 686 578 642 c 1
 487 627 l 1
 475 666 442 728 344 728 c 0
 217 728 182 592 182 438 c 2
 182 405 l 1
 222 448 280 477 357 477 c 0
 537 477 598 340 598 230 c 0
 598 94 509 -18 344 -18 c 0
 174 -18 88 96 88 294 c 2
183 266 m 1
 190 97 260 52 344 52 c 0
 436 52 505 111 505 230 c 0
 505 324 462 411 342 411 c 0
 257 411 198 352 183 266 c 1
EndSplineSet
Substitution2: "Latin.dnom subtable" six.dnom
Substitution2: "Latin.numr subtable" six.numr
Substitution2: "Latin.subs subtable" six.subs
Substitution2: "Latin.sups subtable" six.sups
Substitution2: "Latin.pnum subtable" six.pnum
EndChar

StartChar: seven
Encoding: 55 55 27
Width: 660
GlyphClass: 2
Flags: W
LayerCount: 2
Fore
SplineSet
72 706 m 1
 72 780 l 1
 570 780 l 1
 577 728 l 1
 465 576 339 283 339 45 c 2
 339 0 l 1
 241 0 l 1
 241 45 l 2
 241 268 359 542 465 706 c 1
 72 706 l 1
EndSplineSet
Substitution2: "Latin.dnom subtable" seven.dnom
Substitution2: "Latin.numr subtable" seven.numr
Substitution2: "Latin.subs subtable" seven.subs
Substitution2: "Latin.sups subtable" seven.sups
Substitution2: "Latin.pnum subtable" seven.pnum
EndChar

StartChar: eight
Encoding: 56 56 28
Width: 660
GlyphClass: 2
Flags: W
LayerCount: 2
Fore
SplineSet
330 -18 m 0
 162 -18 57 77 57 198 c 0
 57 329 154 381 224 401 c 1
 156 427 92 484 92 586 c 0
 92 704 186 798 330 798 c 0
 474 798 568 704 568 586 c 0
 568 484 504 427 436 401 c 1
 506 381 603 329 603 198 c 0
 603 77 498 -18 330 -18 c 0
330 50 m 0
 439 50 507 106 507 198 c 0
 507 298 444 338 384 353 c 0
 369 358 350 363 330 369 c 1
 310 363 291 358 276 353 c 0
 216 338 153 298 153 198 c 0
 153 106 221 50 330 50 c 0
330 730 m 0
 251 730 185 682 185 586 c 0
 185 502 240 456 291 443 c 0
 303 440 316 436 330 432 c 1
 344 436 357 440 369 443 c 0
 420 456 475 502 475 586 c 0
 475 682 409 730 330 730 c 0
EndSplineSet
Substitution2: "Latin.dnom subtable" eight.dnom
Substitution2: "Latin.numr subtable" eight.numr
Substitution2: "Latin.subs subtable" eight.subs
Substitution2: "Latin.sups subtable" eight.sups
Substitution2: "Latin.pnum subtable" eight.pnum
EndChar

StartChar: nine
Encoding: 57 57 29
Width: 660
GlyphClass: 2
Flags: W
LayerCount: 2
Fore
SplineSet
572 486 m 2
 572 342 l 2
 572 210 546 -18 316 -18 c 0
 148 -18 96 94 82 138 c 1
 173 153 l 1
 185 114 218 52 316 52 c 0
 443 52 478 188 478 342 c 2
 478 375 l 1
 438 332 380 303 303 303 c 0
 123 303 62 440 62 550 c 0
 62 686 151 798 316 798 c 0
 486 798 572 684 572 486 c 2
477 514 m 1
 470 683 400 728 316 728 c 0
 224 728 155 669 155 550 c 0
 155 456 198 369 318 369 c 0
 403 369 462 428 477 514 c 1
EndSplineSet
Substitution2: "Latin.dnom subtable" nine.dnom
Substitution2: "Latin.numr subtable" nine.numr
Substitution2: "Latin.subs subtable" nine.subs
Substitution2: "Latin.sups subtable" nine.sups
Substitution2: "Latin.pnum subtable" nine.pnum
EndChar

StartChar: colon
Encoding: 58 58 30
Width: 330
GlyphClass: 2
Flags: W
LayerCount: 2
Fore
SplineSet
165 553 m 0
 206 553 237 527 237 485 c 0
 237 443 206 417 165 417 c 0
 124 417 93 443 93 485 c 0
 93 527 124 553 165 553 c 0
165 133 m 0
 206 133 237 107 237 65 c 0
 237 23 206 -3 165 -3 c 0
 124 -3 93 23 93 65 c 0
 93 107 124 133 165 133 c 0
EndSplineSet
EndChar

StartChar: semicolon
Encoding: 59 59 31
Width: 330
GlyphClass: 2
Flags: W
LayerCount: 2
Fore
SplineSet
92 63 m 0
 92 104 120 133 164 133 c 0
 226 133 252 81 252 25 c 0
 252 -79 184 -152 120 -195 c 1
 92 -156 l 1
 141 -123 182 -72 189 1 c 1
 181 -2 172 -3 162 -3 c 0
 122 -3 92 23 92 63 c 0
165 553 m 0
 206 553 237 527 237 485 c 0
 237 443 206 417 165 417 c 0
 124 417 93 443 93 485 c 0
 93 527 124 553 165 553 c 0
EndSplineSet
EndChar

StartChar: less
Encoding: 60 60 32
Width: 600
GlyphClass: 2
Flags: W
LayerCount: 2
Fore
SplineSet
97 334 m 1
 97 360 l 1
 97 386 l 1
 485 618 l 1
 502 548 l 1
 183 360 l 1
 502 172 l 1
 485 102 l 1
 97 334 l 1
EndSplineSet
EndChar

StartChar: equal
Encoding: 61 61 33
Width: 600
GlyphClass: 2
Flags: W
LayerCount: 2
Fore
SplineSet
97 422 m 1
 97 489 l 1
 503 489 l 1
 503 422 l 1
 97 422 l 1
97 231 m 1
 97 298 l 1
 503 298 l 1
 503 231 l 1
 97 231 l 1
EndSplineSet
EndChar

StartChar: greater
Encoding: 62 62 34
Width: 600
GlyphClass: 2
Flags: W
LayerCount: 2
Fore
SplineSet
503 386 m 1
 503 360 l 1
 503 334 l 1
 115 102 l 1
 98 172 l 1
 417 360 l 1
 98 548 l 1
 115 618 l 1
 503 386 l 1
EndSplineSet
EndChar

StartChar: question
Encoding: 63 63 35
Width: 570
GlyphClass: 2
Flags: W
LayerCount: 2
Fore
SplineSet
62 650 m 0
 62 752 148 828 284 828 c 0
 412 828 497 756 497 636 c 0
 497 472 292 430 292 309 c 0
 292 289 297 269 306 250 c 1
 231 241 l 1
 219 265 212 290 212 314 c 0
 212 470 402 501 402 633 c 0
 402 725 344 757 282 757 c 0
 209 757 158 720 158 650 c 0
 158 628 161 605 171 585 c 1
 82 561 l 1
 70 589 62 620 62 650 c 0
285 133 m 0
 326 133 357 107 357 65 c 0
 357 23 326 -3 285 -3 c 0
 244 -3 213 23 213 65 c 0
 213 107 244 133 285 133 c 0
EndSplineSet
EndChar

StartChar: at
Encoding: 64 64 36
Width: 1020
GlyphClass: 2
Flags: W
LayerCount: 2
Fore
SplineSet
85 236 m 0
 85 491 257 780 559 780 c 0
 812 780 935 598 935 398 c 0
 935 233 840 40 699 40 c 0
 638 40 618 77 613 121 c 1
 579 71 533 35 472 35 c 0
 343 35 297 137 297 229 c 0
 297 367 393 561 585 561 c 0
 674 561 708 495 708 439 c 0
 708 396 695 341 685 299 c 0
 673 234 667 186 667 153 c 0
 667 103 677 87 699 87 c 0
 781 87 881 236 881 398 c 0
 881 582 775 732 559 732 c 0
 301 732 139 478 139 236 c 0
 139 34 250 -142 502 -142 c 0
 572 -142 657 -105 683 -89 c 1
 713 -128 l 1
 679 -149 590 -190 502 -190 c 0
 210 -190 85 19 85 236 c 0
472 89 m 0
 550 89 594 178 621 307 c 0
 630 347 644 407 644 439 c 0
 644 485 620 508 585 508 c 0
 465 508 367 363 367 229 c 0
 367 141 408 89 472 89 c 0
EndSplineSet
EndChar

StartChar: A
Encoding: 65 65 37
Width: 750
GlyphClass: 2
Flags: W
AnchorPoint: "LatinOgonek.mark" 670 0 basechar 0
AnchorPoint: "LatinBelow.mark" 375 0 basechar 0
AnchorPoint: "LatinAbove.mark" 375 150 basechar 0
LayerCount: 2
Fore
SplineSet
727 0 m 1
 619 0 l 1
 555 176 l 1
 195 176 l 1
 131 0 l 1
 23 0 l 1
 23 6 l 1
 335 780 l 1
 415 780 l 1
 727 6 l 1
 727 0 l 1
530 244 m 1
 375 670 l 1
 220 244 l 1
 530 244 l 1
EndSplineSet
EndChar

StartChar: B
Encoding: 66 66 38
Width: 745
GlyphClass: 2
Flags: W
AnchorPoint: "LatinBelow.mark" 320 0 basechar 0
AnchorPoint: "LatinAbove.mark" 320 150 basechar 0
LayerCount: 2
Fore
SplineSet
495 430 m 1
 608 402 683 332 683 221 c 0
 683 73 550 -9 370 -9 c 0
 258 -9 126 -2 98 0 c 1
 98 780 l 1
 122 782 238 789 338 789 c 0
 486 789 608 723 608 594 c 0
 608 512 560 459 495 430 c 1
370 444 m 1
 444 452 516 497 516 587 c 0
 516 681 438 721 328 721 c 0
 273 721 216 718 188 716 c 1
 188 439 l 1
 239 442 306 444 370 444 c 1
188 64 m 1
 230 62 300 60 360 60 c 0
 488 60 590 105 590 221 c 0
 590 337 488 380 360 380 c 0
 300 380 230 378 188 376 c 1
 188 64 l 1
EndSplineSet
EndChar

StartChar: C
Encoding: 67 67 39
Width: 755
GlyphClass: 2
Flags: W
AnchorPoint: "LatinCedilla.mark" 412 0 basechar 0
AnchorPoint: "LatinBelow.mark" 410 0 basechar 0
AnchorPoint: "LatinAbove.mark" 410 150 basechar 0
LayerCount: 2
Fore
SplineSet
68 405 m 2
 68 593 149 797 413 797 c 0
 607 797 694 671 708 591 c 1
 610 581 l 1
 598 642 535 724 413 724 c 0
 245 724 168 592 168 405 c 2
 168 373 l 2
 168 186 245 54 413 54 c 0
 535 54 598 136 610 197 c 1
 708 187 l 1
 694 107 607 -19 413 -19 c 0
 149 -19 68 185 68 373 c 2
 68 405 l 2
EndSplineSet
EndChar

StartChar: D
Encoding: 68 68 40
Width: 770
GlyphClass: 2
Flags: W
AnchorPoint: "LatinBelow.mark" 320 0 basechar 0
AnchorPoint: "LatinAbove.mark" 320 150 basechar 0
LayerCount: 2
Fore
SplineSet
193 64 m 1
 223 63 262 61 290 61 c 0
 524 61 608 195 608 374 c 2
 608 406 l 2
 608 585 524 719 290 719 c 0
 262 719 223 717 193 716 c 1
 193 64 l 1
98 780 m 1
 98 780 206 789 290 789 c 0
 599 789 703 596 703 406 c 2
 703 374 l 2
 703 184 599 -9 290 -9 c 0
 206 -9 98 0 98 0 c 1
 98 780 l 1
EndSplineSet
EndChar

StartChar: E
Encoding: 69 69 41
Width: 675
GlyphClass: 2
Flags: W
AnchorPoint: "LatinOgonek.mark" 545 0 basechar 0
AnchorPoint: "LatinBelow.mark" 350 0 basechar 0
AnchorPoint: "LatinAbove.mark" 350 150 basechar 0
LayerCount: 2
Fore
SplineSet
98 0 m 1
 98 780 l 1
 598 780 l 1
 598 706 l 1
 194 706 l 1
 194 420 l 1
 564 420 l 1
 564 350 l 1
 194 350 l 1
 194 74 l 1
 613 74 l 1
 613 0 l 1
 98 0 l 1
EndSplineSet
EndChar

StartChar: F
Encoding: 70 70 42
Width: 640
GlyphClass: 2
Flags: W
AnchorPoint: "LatinBelow.mark" 160 0 basechar 0
AnchorPoint: "LatinAbove.mark" 340 150 basechar 0
LayerCount: 2
Fore
SplineSet
98 0 m 1
 98 780 l 1
 588 780 l 1
 588 706 l 1
 194 706 l 1
 194 422 l 1
 554 422 l 1
 554 348 l 1
 194 348 l 1
 194 0 l 1
 98 0 l 1
EndSplineSet
EndChar

StartChar: G
Encoding: 71 71 43
Width: 770
GlyphClass: 2
Flags: W
AnchorPoint: "LatinBelow.mark" 410 0 basechar 0
AnchorPoint: "LatinAbove.mark" 410 150 basechar 0
LayerCount: 2
Fore
SplineSet
422 311 m 1
 422 379 l 1
 703 379 l 1
 703 138 l 1
 673 74 585 -18 413 -18 c 0
 149 -18 68 185 68 373 c 2
 68 407 l 2
 68 595 149 798 413 798 c 0
 607 798 694 672 708 592 c 1
 611 583 l 1
 599 644 537 726 413 726 c 0
 243 726 166 596 166 407 c 2
 166 373 l 2
 166 184 243 54 413 54 c 0
 531 54 588 103 616 147 c 1
 616 311 l 1
 422 311 l 1
EndSplineSet
EndChar

StartChar: H
Encoding: 72 72 44
Width: 790
GlyphClass: 2
Flags: W
AnchorPoint: "LatinBelow.mark" 395 0 basechar 0
AnchorPoint: "LatinAbove.mark" 395 150 basechar 0
LayerCount: 2
Fore
SplineSet
97 0 m 1
 97 780 l 1
 193 780 l 1
 193 427 l 1
 597 427 l 1
 597 780 l 1
 693 780 l 1
 693 0 l 1
 597 0 l 1
 597 353 l 1
 193 353 l 1
 193 0 l 1
 97 0 l 1
EndSplineSet
EndChar

StartChar: I
Encoding: 73 73 45
Width: 320
GlyphClass: 2
Flags: W
AnchorPoint: "LatinOgonek.mark" 165 0 basechar 0
AnchorPoint: "LatinBelow.mark" 160 0 basechar 0
AnchorPoint: "LatinAbove.mark" 160 150 basechar 0
LayerCount: 2
Fore
SplineSet
112 0 m 1
 112 780 l 1
 208 780 l 1
 208 0 l 1
 112 0 l 1
EndSplineSet
EndChar

StartChar: J
Encoding: 74 74 46
Width: 520
GlyphClass: 2
Flags: W
AnchorPoint: "LatinBelow.mark" 230 0 basechar 0
AnchorPoint: "LatinAbove.mark" 360 150 basechar 0
LayerCount: 2
Fore
SplineSet
28 136 m 1
 124 143 l 1
 133 85 170 53 226 53 c 0
 282 53 327 84 327 162 c 2
 327 781 l 1
 423 781 l 1
 423 162 l 2
 423 63 351 -17 226 -17 c 0
 102 -17 39 62 28 136 c 1
EndSplineSet
EndChar

StartChar: K
Encoding: 75 75 47
Width: 715
GlyphClass: 2
Flags: W
AnchorPoint: "LatinBelow.mark" 360 0 basechar 0
AnchorPoint: "LatinAbove.mark" 360 150 basechar 0
LayerCount: 2
Fore
SplineSet
97 0 m 1
 97 780 l 1
 189 780 l 1
 189 378 l 1
 548 780 l 1
 654 772 l 1
 654 768 l 1
 355 452 l 1
 702 5 l 1
 702 0 l 1
 589 0 l 1
 294 388 l 1
 189 276 l 1
 189 0 l 1
 97 0 l 1
EndSplineSet
EndChar

StartChar: L
Encoding: 76 76 48
Width: 570
GlyphClass: 2
Flags: W
AnchorPoint: "LatinBelow.mark" 320 0 basechar 0
AnchorPoint: "LatinAbove.mark" 160 150 basechar 0
LayerCount: 2
Fore
SplineSet
98 0 m 1
 98 780 l 1
 194 780 l 1
 194 74 l 1
 538 74 l 1
 538 0 l 1
 98 0 l 1
EndSplineSet
EndChar

StartChar: M
Encoding: 77 77 49
Width: 880
GlyphClass: 2
Flags: W
AnchorPoint: "LatinBelow.mark" 440 0 basechar 0
AnchorPoint: "LatinAbove.mark" 440 150 basechar 0
LayerCount: 2
Fore
SplineSet
783 0 m 1
 689 0 l 1
 689 600 l 1
 464 195 l 1
 416 195 l 1
 191 600 l 1
 191 0 l 1
 97 0 l 1
 97 771 l 1
 177 780 l 1
 440 294 l 1
 703 780 l 1
 783 771 l 1
 783 0 l 1
EndSplineSet
EndChar

StartChar: N
Encoding: 78 78 50
Width: 790
GlyphClass: 2
Flags: W
AnchorPoint: "LatinBelow.mark" 395 0 basechar 0
AnchorPoint: "LatinAbove.mark" 395 150 basechar 0
LayerCount: 2
Fore
SplineSet
98 0 m 1
 98 771 l 1
 180 780 l 1
 599 152 l 1
 599 780 l 1
 692 780 l 1
 692 0 l 1
 610 0 l 1
 191 628 l 1
 191 0 l 1
 98 0 l 1
EndSplineSet
EndChar

StartChar: O
Encoding: 79 79 51
Width: 820
GlyphClass: 2
Flags: W
AnchorPoint: "LatinOgonek.mark" 480 0 basechar 0
AnchorPoint: "LatinBelow.mark" 410 0 basechar 0
AnchorPoint: "LatinAbove.mark" 410 150 basechar 0
LayerCount: 2
Fore
SplineSet
68 372 m 2
 68 408 l 2
 68 594 147 798 410 798 c 0
 673 798 752 594 752 408 c 2
 752 372 l 2
 752 186 673 -18 410 -18 c 0
 147 -18 68 186 68 372 c 2
410 54 m 0
 579 54 654 186 654 372 c 2
 654 408 l 2
 654 594 579 726 410 726 c 0
 241 726 166 594 166 408 c 2
 166 372 l 2
 166 186 241 54 410 54 c 0
EndSplineSet
EndChar

StartChar: P
Encoding: 80 80 52
Width: 710
GlyphClass: 2
Flags: W
AnchorPoint: "LatinBelow.mark" 160 0 basechar 0
AnchorPoint: "LatinAbove.mark" 360 150 basechar 0
LayerCount: 2
Fore
SplineSet
192 402 m 1
 228 400 283 398 340 398 c 0
 468 398 568 443 568 559 c 0
 568 675 468 720 340 720 c 0
 283 720 228 718 192 716 c 1
 192 402 l 1
192 333 m 1
 192 0 l 1
 98 0 l 1
 98 338 l 1
 98 780 l 1
 126 782 238 789 350 789 c 0
 530 789 663 707 663 559 c 0
 663 411 530 329 350 329 c 0
 294 329 238 331 192 333 c 1
EndSplineSet
EndChar

StartChar: Q
Encoding: 81 81 53
Width: 820
GlyphClass: 2
Flags: W
AnchorPoint: "LatinBelow.mark" 410 0 basechar 0
AnchorPoint: "LatinAbove.mark" 410 150 basechar 0
LayerCount: 2
Fore
SplineSet
68 372 m 2
 68 408 l 2
 68 594 147 798 410 798 c 0
 673 798 752 594 752 408 c 2
 752 372 l 2
 752 283 733 189 685 116 c 1
 795 29 l 1
 754 -25 l 1
 643 65 l 1
 590 14 515 -18 410 -18 c 0
 147 -18 68 186 68 372 c 2
391 269 m 1
 429 319 l 1
 613 173 l 1
 641 226 654 294 654 372 c 2
 654 408 l 2
 654 594 579 726 410 726 c 0
 241 726 166 594 166 408 c 2
 166 372 l 2
 166 186 241 54 410 54 c 0
 482 54 537 77 576 119 c 1
 391 269 l 1
EndSplineSet
EndChar

StartChar: R
Encoding: 82 82 54
Width: 730
GlyphClass: 2
Flags: W
AnchorPoint: "LatinBelow.mark" 360 0 basechar 0
AnchorPoint: "LatinAbove.mark" 360 150 basechar 0
LayerCount: 2
Fore
SplineSet
192 402 m 1
 228 400 283 398 340 398 c 0
 468 398 568 443 568 559 c 0
 568 675 468 720 340 720 c 0
 283 720 228 718 192 716 c 1
 192 402 l 1
318 329 m 1
 273 330 229 331 192 333 c 1
 192 0 l 1
 98 0 l 1
 98 338 l 1
 98 780 l 1
 126 782 238 789 350 789 c 0
 530 789 663 707 663 559 c 0
 663 431 563 352 420 333 c 1
 693 5 l 1
 693 0 l 1
 585 0 l 1
 318 329 l 1
EndSplineSet
EndChar

StartChar: S
Encoding: 83 83 55
Width: 710
GlyphClass: 2
Flags: W
AnchorPoint: "LatinCedilla.mark" 380 0 basechar 0
AnchorPoint: "LatinBelow.mark" 355 0 basechar 0
AnchorPoint: "LatinAbove.mark" 355 150 basechar 0
LayerCount: 2
Fore
SplineSet
62 177 m 1
 156 190 l 1
 166 128 229 52 355 52 c 0
 486 52 554 109 554 197 c 0
 554 279 493 313 446 327 c 0
 388 343 301 370 242 392 c 0
 172 418 81 473 81 583 c 0
 81 707 191 798 355 798 c 0
 527 798 613 685 627 607 c 1
 532 594 l 1
 520 656 461 728 355 728 c 0
 243 728 174 672 174 587 c 0
 174 517 232 489 284 469 c 0
 340 449 426 421 480 405 c 0
 558 381 647 323 647 201 c 0
 647 75 539 -18 355 -18 c 0
 166 -18 77 97 62 177 c 1
EndSplineSet
EndChar

StartChar: T
Encoding: 84 84 56
Width: 620
GlyphClass: 2
Flags: W
AnchorPoint: "LatinCedilla.mark" 320 0 basechar 0
AnchorPoint: "LatinBelow.mark" 310 0 basechar 0
AnchorPoint: "LatinAbove.mark" 310 150 basechar 0
LayerCount: 2
Fore
SplineSet
37 708 m 1
 37 780 l 1
 583 780 l 1
 583 708 l 1
 358 708 l 1
 358 0 l 1
 262 0 l 1
 262 708 l 1
 37 708 l 1
EndSplineSet
EndChar

StartChar: U
Encoding: 85 85 57
Width: 770
GlyphClass: 2
Flags: W
AnchorPoint: "LatinOgonek.mark" 480 0 basechar 0
AnchorPoint: "LatinBelow.mark" 385 0 basechar 0
AnchorPoint: "LatinAbove.mark" 385 150 basechar 0
LayerCount: 2
Fore
SplineSet
87 236 m 2
 87 780 l 1
 183 780 l 1
 183 236 l 2
 183 118 267 54 385 54 c 0
 503 54 587 118 587 236 c 2
 587 780 l 1
 683 780 l 1
 683 236 l 2
 683 90 565 -18 385 -18 c 0
 205 -18 87 90 87 236 c 2
EndSplineSet
EndChar

StartChar: V
Encoding: 86 86 58
Width: 750
GlyphClass: 2
Flags: W
AnchorPoint: "LatinBelow.mark" 375 0 basechar 0
AnchorPoint: "LatinAbove.mark" 375 150 basechar 0
LayerCount: 2
Fore
SplineSet
28 764 m 1
 28 771 l 1
 140 780 l 1
 375 116 l 1
 610 780 l 1
 722 771 l 1
 722 764 l 1
 416 0 l 1
 334 0 l 1
 28 764 l 1
EndSplineSet
EndChar

StartChar: W
Encoding: 87 87 59
Width: 1060
GlyphClass: 2
Flags: W
AnchorPoint: "LatinBelow.mark" 530 0 basechar 0
AnchorPoint: "LatinAbove.mark" 530 150 basechar 0
LayerCount: 2
Fore
SplineSet
1028 765 m 1
 798 0 l 1
 714 0 l 1
 530 624 l 1
 346 0 l 1
 262 0 l 1
 32 765 l 1
 32 771 l 1
 136 780 l 1
 311 129 l 1
 490 760 l 1
 570 760 l 1
 749 129 l 1
 924 780 l 1
 1028 771 l 1
 1028 765 l 1
EndSplineSet
EndChar

StartChar: X
Encoding: 88 88 60
Width: 740
GlyphClass: 2
Flags: W
AnchorPoint: "LatinBelow.mark" 370 0 basechar 0
AnchorPoint: "LatinAbove.mark" 370 150 basechar 0
LayerCount: 2
Fore
SplineSet
63 764 m 1
 63 770 l 1
 168 780 l 1
 371 475 l 1
 573 780 l 1
 678 770 l 1
 678 764 l 1
 424 415 l 1
 728 6 l 1
 728 0 l 1
 617 0 l 1
 371 340 l 1
 124 0 l 1
 13 0 l 1
 13 6 l 1
 317 415 l 1
 63 764 l 1
EndSplineSet
EndChar

StartChar: Y
Encoding: 89 89 61
Width: 670
GlyphClass: 2
Flags: W
AnchorPoint: "LatinBelow.mark" 335 0 basechar 0
AnchorPoint: "LatinAbove.mark" 335 150 basechar 0
LayerCount: 2
Fore
SplineSet
18 765 m 1
 18 772 l 1
 125 780 l 1
 335 392 l 1
 545 780 l 1
 652 772 l 1
 652 765 l 1
 383 301 l 1
 383 0 l 1
 287 0 l 1
 287 301 l 1
 18 765 l 1
EndSplineSet
EndChar

StartChar: Z
Encoding: 90 90 62
Width: 670
GlyphClass: 2
Flags: W
AnchorPoint: "LatinBelow.mark" 335 0 basechar 0
AnchorPoint: "LatinAbove.mark" 335 150 basechar 0
LayerCount: 2
Fore
SplineSet
43 55 m 1
 490 706 l 1
 67 706 l 1
 67 780 l 1
 611 780 l 1
 618 725 l 1
 171 74 l 1
 628 74 l 1
 628 0 l 1
 50 0 l 1
 43 55 l 1
EndSplineSet
EndChar

StartChar: bracketleft
Encoding: 91 91 63
Width: 435
GlyphClass: 2
Flags: W
LayerCount: 2
Fore
SplineSet
127 -120 m 1
 127 900 l 1
 337 900 l 1
 337 844 l 1
 205 844 l 1
 205 -64 l 1
 335 -64 l 1
 335 -120 l 1
 127 -120 l 1
EndSplineSet
EndChar

StartChar: backslash
Encoding: 92 92 64
Width: 510
GlyphClass: 2
Flags: W
LayerCount: 2
Fore
SplineSet
460 0 m 1
 378 0 l 1
 50 775 l 1
 50 780 l 1
 131 780 l 1
 460 5 l 1
 460 0 l 1
EndSplineSet
EndChar

StartChar: bracketright
Encoding: 93 93 65
Width: 435
GlyphClass: 2
Flags: W
LayerCount: 2
Fore
SplineSet
308 900 m 1
 308 -120 l 1
 98 -120 l 1
 98 -64 l 1
 230 -64 l 1
 230 844 l 1
 100 844 l 1
 100 900 l 1
 308 900 l 1
EndSplineSet
EndChar

StartChar: asciicircum
Encoding: 94 94 66
Width: 630
GlyphClass: 2
Flags: W
LayerCount: 2
Fore
SplineSet
37 586 m 1
 296 883 l 1
 333 883 l 1
 592 586 l 1
 545 553 l 1
 315 786 l 1
 83 553 l 1
 37 586 l 1
EndSplineSet
EndChar

StartChar: underscore
Encoding: 95 95 67
Width: 600
GlyphClass: 2
Flags: W
LayerCount: 2
Fore
SplineSet
0 0 m 1
 600 0 l 1
 600 -70 l 1
 0 -70 l 1
 0 0 l 1
EndSplineSet
EndChar

StartChar: grave
Encoding: 96 96 68
Width: 390
GlyphClass: 2
Flags: W
LayerCount: 2
Fore
SplineSet
8 830 m 1
 77 882 l 1
 353 586 l 1
 306 553 l 1
 8 830 l 1
EndSplineSet
EndChar

StartChar: a
Encoding: 97 97 69
Width: 625
GlyphClass: 2
Flags: W
AnchorPoint: "LatinOgonek.mark" 515 0 basechar 0
AnchorPoint: "LatinBelow.mark" 330 0 basechar 0
AnchorPoint: "LatinAbove.mark" 310 0 basechar 0
LayerCount: 2
Fore
SplineSet
63 172 m 0
 63 249 125 320 251 320 c 0
 324 320 395 314 446 308 c 1
 446 422 l 2
 446 511 384 552 300 552 c 0
 220 552 169 505 158 429 c 1
 68 435 l 1
 81 528 156 618 300 618 c 0
 442 618 533 536 533 422 c 2
 533 137 l 2
 533 77 551 53 603 47 c 1
 581 -13 l 1
 536 -8 476 14 462 89 c 1
 427 35 369 -13 275 -13 c 0
 146 -13 63 57 63 172 c 0
450 252 m 1
 405 258 336 266 256 266 c 0
 198 266 151 232 151 171 c 0
 151 83 213 43 285 43 c 0
 392 43 436 133 450 210 c 1
 450 252 l 1
EndSplineSet
Substitution2: "Latin.ss20 subtable" uni0251
Substitution2: "Latin.ss19 subtable" uni0251
EndChar

StartChar: b
Encoding: 98 98 70
Width: 675
GlyphClass: 2
Flags: W
AnchorPoint: "LatinBelow.mark" 360 0 basechar 0
AnchorPoint: "LatinAbove.mark" 135 180 basechar 0
LayerCount: 2
Fore
SplineSet
613 312 m 2
 613 288 l 2
 613 146 549 -13 363 -13 c 0
 273 -13 214 42 177 106 c 1
 170 0 l 1
 93 0 l 1
 93 810 l 1
 180 810 l 1
 180 504 l 1
 218 563 278 613 363 613 c 0
 549 613 613 454 613 312 c 2
180 378 m 1
 180 222 l 1
 199 140 253 54 353 54 c 0
 465 54 523 144 523 288 c 2
 523 312 l 2
 523 456 465 546 353 546 c 0
 253 546 199 460 180 378 c 1
EndSplineSet
EndChar

StartChar: c
Encoding: 99 99 71
Width: 605
GlyphClass: 2
Flags: W
AnchorPoint: "LatinCedilla.mark" 330 0 basechar 0
AnchorPoint: "LatinBelow.mark" 330 0 basechar 0
AnchorPoint: "LatinAbove.mark" 330 0 basechar 0
LayerCount: 2
Fore
SplineSet
63 287 m 2
 63 313 l 2
 63 455 122 618 331 618 c 0
 485 618 553 518 563 455 c 1
 473 447 l 1
 465 493 417 551 331 551 c 0
 214 551 155 456 155 313 c 2
 155 287 l 2
 155 144 214 49 331 49 c 0
 417 49 465 107 473 153 c 1
 563 145 l 1
 553 82 485 -18 331 -18 c 0
 122 -18 63 145 63 287 c 2
EndSplineSet
EndChar

StartChar: d
Encoding: 100 100 72
Width: 680
GlyphClass: 2
Flags: W
AnchorPoint: "LatinBelow.mark" 360 0 basechar 0
AnchorPoint: "LatinAbove.mark" 525 180 basechar 0
LayerCount: 2
Fore
SplineSet
62 288 m 2
 62 312 l 2
 62 454 126 613 312 613 c 0
 400 613 458 561 495 500 c 1
 495 810 l 1
 582 810 l 1
 582 137 l 2
 582 77 600 53 652 47 c 1
 630 -13 l 1
 581 -7 510 18 506 114 c 1
 468 47 406 -13 312 -13 c 0
 126 -13 62 146 62 288 c 2
495 378 m 1
 476 460 422 546 322 546 c 0
 210 546 152 456 152 312 c 2
 152 288 l 2
 152 144 210 54 322 54 c 0
 422 54 476 140 495 222 c 1
 495 378 l 1
EndSplineSet
EndChar

StartChar: e
Encoding: 101 101 73
Width: 640
GlyphClass: 2
Flags: W
AnchorPoint: "LatinOgonek.mark" 410 0 basechar 0
AnchorPoint: "LatinBelow.mark" 330 0 basechar 0
AnchorPoint: "LatinAbove.mark" 330 0 basechar 0
LayerCount: 2
Fore
SplineSet
63 286 m 2
 63 314 l 2
 63 456 124 618 327 618 c 0
 493 618 578 496 578 362 c 0
 578 337 576 311 571 286 c 1
 151 286 l 1
 151 144 207 47 327 47 c 0
 417 47 465 107 473 153 c 1
 560 145 l 1
 549 81 479 -18 327 -18 c 0
 121 -18 63 144 63 286 c 2
152 344 m 1
 493 344 l 1
 493 363 l 2
 493 487 425 554 327 554 c 0
 217 554 160 470 152 344 c 1
EndSplineSet
EndChar

StartChar: f
Encoding: 102 102 74
Width: 400
GlyphClass: 2
Flags: W
AnchorPoint: "LatinBelow.mark" 180 0 basechar 0
AnchorPoint: "LatinAbove.mark" 270 180 basechar 0
LayerCount: 2
Fore
SplineSet
35 542 m 1
 35 600 l 1
 130 600 l 1
 130 683 l 2
 130 743 167 828 283 828 c 0
 360 828 406 794 420 784 c 1
 381 735 l 1
 368 744 337 765 289 765 c 0
 241 765 217 729 217 683 c 2
 217 600 l 1
 375 600 l 1
 375 542 l 1
 220 542 l 1
 220 0 l 1
 130 0 l 1
 130 542 l 1
 35 542 l 1
EndSplineSet
EndChar

StartChar: g
Encoding: 103 103 75
Width: 670
GlyphClass: 2
Flags: W
AnchorPoint: "LatinBelow.mark" 360 -180 basechar 0
AnchorPoint: "LatinAbove.mark" 360 0 basechar 0
LayerCount: 2
Fore
SplineSet
62 315 m 0
 62 451 126 613 312 613 c 0
 402 613 461 557 498 493 c 1
 505 600 l 1
 582 600 l 1
 582 -31 l 2
 582 -146 490 -228 348 -228 c 0
 208 -228 132 -159 117 -113 c 1
 201 -90 l 1
 210 -118 256 -165 348 -165 c 0
 436 -165 497 -121 497 -31 c 2
 497 136 l 1
 460 72 401 17 312 17 c 0
 126 17 62 179 62 315 c 0
495 375 m 1
 476 457 422 547 322 547 c 0
 210 547 152 453 152 315 c 0
 152 177 210 83 322 83 c 0
 422 83 476 173 495 255 c 1
 495 375 l 1
EndSplineSet
Substitution2: "Latin.ss20 subtable" g.alt
Substitution2: "Latin.ss18 subtable" g.alt
EndChar

StartChar: h
Encoding: 104 104 76
Width: 665
GlyphClass: 2
Flags: W
AnchorPoint: "LatinBelow.mark" 360 0 basechar 0
AnchorPoint: "LatinAbove.mark" 135 180 basechar 0
LayerCount: 2
Fore
SplineSet
93 0 m 1
 93 810 l 1
 181 810 l 1
 181 433 l 1
 223 524 298 613 416 613 c 0
 534 613 588 525 588 421 c 2
 588 0 l 1
 498 0 l 1
 498 418 l 2
 498 506 453 541 393 541 c 0
 284 541 200 412 183 301 c 1
 183 0 l 1
 93 0 l 1
EndSplineSet
EndChar

StartChar: i
Encoding: 105 105 77
Width: 300
GlyphClass: 3
Flags: W
AnchorPoint: "LatinOgonek.mark" 155 0 basechar 0
AnchorPoint: "LatinBelow.mark" 150 0 basechar 0
AnchorPoint: "LatinAbove.mark" 150 180 basechar 0
LayerCount: 2
Fore
SplineSet
105 0 m 1
 105 600 l 1
 195 600 l 1
 195 0 l 1
 105 0 l 1
150 848 m 0
 191 848 222 822 222 780 c 0
 222 738 191 712 150 712 c 0
 109 712 78 738 78 780 c 0
 78 822 109 848 150 848 c 0
EndSplineSet
Substitution2: "Latin.ij.dotless subtable" dotlessi
Ligature2: "Latin.ij subtable" dotlessi uni0307
EndChar

StartChar: j
Encoding: 106 106 78
Width: 310
GlyphClass: 3
Flags: W
AnchorPoint: "LatinBelow.mark" 150 -180 basechar 0
AnchorPoint: "LatinAbove.mark" 150 180 basechar 0
LayerCount: 2
Fore
SplineSet
1 -164 m 1
 70 -140 116 -102 116 -19 c 2
 116 600 l 1
 206 600 l 1
 206 -24 l 2
 206 -133 123 -195 29 -223 c 1
 1 -164 l 1
161 848 m 0
 202 848 233 822 233 780 c 0
 233 738 202 712 161 712 c 0
 120 712 89 738 89 780 c 0
 89 822 120 848 161 848 c 0
EndSplineSet
Substitution2: "Latin.ij.dotless subtable" uni0237
Ligature2: "Latin.ij subtable" uni0237 uni0307
Ligature2: "Latin.ij subtable" uni0237 uni200D uni0307
Ligature2: "Latin.ij subtable" dotlessi uni200D uni0307
EndChar

StartChar: k
Encoding: 107 107 79
Width: 605
GlyphClass: 2
Flags: W
AnchorPoint: "LatinBelow.mark" 360 0 basechar 0
AnchorPoint: "LatinAbove.mark" 135 180 basechar 0
LayerCount: 2
Fore
SplineSet
102 0 m 1
 102 810 l 1
 188 810 l 1
 188 305 l 1
 459 600 l 1
 557 594 l 1
 557 590 l 1
 320 345 l 1
 592 4 l 1
 592 0 l 1
 488 0 l 1
 263 287 l 1
 188 209 l 1
 188 0 l 1
 102 0 l 1
EndSplineSet
EndChar

StartChar: l
Encoding: 108 108 80
Width: 315
GlyphClass: 2
Flags: W
AnchorPoint: "LatinBelow.mark" 190 0 basechar 0
AnchorPoint: "LatinAbove.mark" 140 180 basechar 0
LayerCount: 2
Fore
SplineSet
100 122 m 2
 100 810 l 1
 190 810 l 1
 190 130 l 2
 190 70 232 53 300 47 c 1
 282 -13 l 1
 204 -7 100 15 100 122 c 2
EndSplineSet
EndChar

StartChar: m
Encoding: 109 109 81
Width: 945
GlyphClass: 2
Flags: W
AnchorPoint: "LatinBelow.mark" 480 0 basechar 0
AnchorPoint: "LatinAbove.mark" 480 0 basechar 0
LayerCount: 2
Fore
SplineSet
82 595 m 1
 164 603 l 1
 178 464 l 1
 210 540 265 607 362 607 c 0
 454 607 507 546 521 467 c 1
 553 542 609 607 704 607 c 0
 814 607 867 521 867 420 c 2
 867 0 l 1
 777 0 l 1
 777 418 l 2
 777 504 736 536 682 536 c 0
 592 536 541 428 525 328 c 1
 525 0 l 1
 435 0 l 1
 435 418 l 2
 435 504 393 536 339 536 c 0
 247 536 197 423 182 322 c 1
 182 0 l 1
 92 0 l 1
 92 420 l 1
 82 595 l 1
EndSplineSet
EndChar

StartChar: n
Encoding: 110 110 82
Width: 655
GlyphClass: 2
Flags: W
AnchorPoint: "LatinBelow.mark" 360 0 basechar 0
AnchorPoint: "LatinAbove.mark" 330 0 basechar 0
LayerCount: 2
Fore
SplineSet
92 0 m 1
 92 420 l 1
 82 595 l 1
 164 603 l 1
 180 438 l 1
 220 527 292 613 407 613 c 0
 522 613 577 525 577 421 c 2
 577 0 l 1
 487 0 l 1
 487 418 l 2
 487 506 442 541 385 541 c 0
 278 541 199 413 182 302 c 1
 182 0 l 1
 92 0 l 1
EndSplineSet
Substitution2: "Latin.sups subtable" n.sups
EndChar

StartChar: o
Encoding: 111 111 83
Width: 660
GlyphClass: 2
Flags: W
AnchorPoint: "LatinOgonek.mark" 400 0 basechar 0
AnchorPoint: "LatinBelow.mark" 330 0 basechar 0
AnchorPoint: "LatinAbove.mark" 330 0 basechar 0
LayerCount: 2
Fore
SplineSet
62 286 m 2
 62 314 l 2
 62 456 122 618 330 618 c 0
 538 618 598 456 598 314 c 2
 598 286 l 2
 598 144 538 -18 330 -18 c 0
 122 -18 62 144 62 286 c 2
330 48 m 0
 450 48 508 143 508 286 c 2
 508 314 l 2
 508 457 450 552 330 552 c 0
 210 552 152 457 152 314 c 2
 152 286 l 2
 152 143 210 48 330 48 c 0
EndSplineSet
EndChar

StartChar: p
Encoding: 112 112 84
Width: 675
GlyphClass: 2
Flags: W
AnchorPoint: "LatinBelow.mark" 150 -180 basechar 0
AnchorPoint: "LatinAbove.mark" 330 0 basechar 0
LayerCount: 2
Fore
SplineSet
613 312 m 2
 613 288 l 2
 613 146 549 -13 363 -13 c 0
 278 -13 220 37 183 96 c 1
 183 -210 l 1
 93 -210 l 1
 93 420 l 1
 83 595 l 1
 165 603 l 1
 175 497 l 1
 213 559 274 613 363 613 c 0
 549 613 613 454 613 312 c 2
183 210 m 1
 204 132 258 54 353 54 c 0
 465 54 523 144 523 288 c 2
 523 312 l 2
 523 456 465 546 353 546 c 0
 258 546 204 468 183 390 c 1
 183 210 l 1
EndSplineSet
EndChar

StartChar: q
Encoding: 113 113 85
Width: 675
GlyphClass: 2
Flags: W
AnchorPoint: "LatinBelow.mark" 535 -240 basechar 0
AnchorPoint: "LatinAbove.mark" 360 0 basechar 0
LayerCount: 2
Fore
SplineSet
62 288 m 2
 62 312 l 2
 62 454 126 613 312 613 c 0
 402 613 461 558 498 494 c 1
 505 600 l 1
 582 600 l 1
 582 -210 l 1
 495 -210 l 1
 495 96 l 1
 457 37 397 -13 312 -13 c 0
 126 -13 62 146 62 288 c 2
495 222 m 1
 495 378 l 1
 476 460 422 546 322 546 c 0
 210 546 152 456 152 312 c 2
 152 288 l 2
 152 144 210 54 322 54 c 0
 422 54 476 140 495 222 c 1
EndSplineSet
EndChar

StartChar: r
Encoding: 114 114 86
Width: 435
GlyphClass: 2
Flags: W
AnchorPoint: "LatinBelow.mark" 170 0 basechar 0
AnchorPoint: "LatinAbove.mark" 240 0 basechar 0
LayerCount: 2
Fore
SplineSet
77 594 m 1
 153 603 l 1
 187 453 l 1
 211 535 260 613 357 613 c 0
 385 613 407 607 427 598 c 1
 393 524 l 1
 379 531 363 535 343 535 c 0
 255 535 214 428 202 327 c 1
 202 0 l 1
 112 0 l 1
 112 427 l 1
 77 594 l 1
EndSplineSet
EndChar

StartChar: s
Encoding: 115 115 87
Width: 570
GlyphClass: 2
Flags: W
AnchorPoint: "LatinCedilla.mark" 310 0 basechar 0
AnchorPoint: "LatinBelow.mark" 285 0 basechar 0
AnchorPoint: "LatinAbove.mark" 285 0 basechar 0
LayerCount: 2
Fore
SplineSet
52 137 m 1
 140 147 l 1
 148 100 195 47 288 47 c 0
 380 47 431 89 431 153 c 0
 431 213 384 239 350 249 c 0
 305 263 240 281 196 297 c 0
 140 317 68 358 68 448 c 0
 68 546 152 618 284 618 c 0
 424 618 490 529 501 467 c 1
 414 455 l 1
 406 501 364 553 284 553 c 0
 204 553 154 514 154 451 c 0
 154 401 198 375 234 363 c 0
 278 349 344 329 384 317 c 0
 447 298 517 255 517 155 c 0
 517 56 428 -18 284 -18 c 0
 132 -18 64 73 52 137 c 1
EndSplineSet
EndChar

StartChar: t
Encoding: 116 116 88
Width: 415
GlyphClass: 2
Flags: W
AnchorPoint: "LatinCedilla.mark" 270 0 basechar 0
AnchorPoint: "LatinBelow.mark" 280 0 basechar 0
AnchorPoint: "LatinAbove.mark" 180 120 basechar 0
LayerCount: 2
Fore
SplineSet
35 542 m 1
 35 600 l 1
 133 600 l 1
 133 728 l 1
 219 735 l 1
 219 600 l 1
 375 600 l 1
 375 542 l 1
 220 542 l 1
 220 133 l 2
 220 69 240 52 282 52 c 0
 326 52 367 69 383 79 c 1
 405 19 l 1
 378 3 329 -13 271 -13 c 0
 186 -13 130 25 130 121 c 2
 130 542 l 1
 35 542 l 1
EndSplineSet
EndChar

StartChar: u
Encoding: 117 117 89
Width: 620
GlyphClass: 2
Flags: W
AnchorPoint: "LatinOgonek.mark" 380 0 basechar 0
AnchorPoint: "LatinBelow.mark" 310 0 basechar 0
AnchorPoint: "LatinAbove.mark" 310 0 basechar 0
LayerCount: 2
Fore
SplineSet
72 184 m 2
 72 600 l 1
 162 600 l 1
 162 184 l 2
 162 94 224 48 310 48 c 0
 396 48 458 94 458 184 c 2
 458 600 l 1
 548 600 l 1
 548 184 l 2
 548 69 456 -18 310 -18 c 0
 164 -18 72 69 72 184 c 2
EndSplineSet
EndChar

StartChar: v
Encoding: 118 118 90
Width: 600
GlyphClass: 2
Flags: W
AnchorPoint: "LatinBelow.mark" 300 0 basechar 0
AnchorPoint: "LatinAbove.mark" 300 0 basechar 0
LayerCount: 2
Fore
SplineSet
17 588 m 1
 17 593 l 1
 115 600 l 1
 305 96 l 1
 495 600 l 1
 593 593 l 1
 593 588 l 1
 341 0 l 1
 269 0 l 1
 17 588 l 1
EndSplineSet
EndChar

StartChar: w
Encoding: 119 119 91
Width: 830
GlyphClass: 2
Flags: W
AnchorPoint: "LatinBelow.mark" 415 0 basechar 0
AnchorPoint: "LatinAbove.mark" 415 0 basechar 0
LayerCount: 2
Fore
SplineSet
803 588 m 1
 627 0 l 1
 549 0 l 1
 415 461 l 1
 281 0 l 1
 203 0 l 1
 27 588 l 1
 27 592 l 1
 123 600 l 1
 248 125 l 1
 379 585 l 1
 451 585 l 1
 582 125 l 1
 707 600 l 1
 803 592 l 1
 803 588 l 1
EndSplineSet
EndChar

StartChar: x
Encoding: 120 120 92
Width: 600
GlyphClass: 2
Flags: W
AnchorPoint: "LatinBelow.mark" 300 0 basechar 0
AnchorPoint: "LatinAbove.mark" 300 0 basechar 0
LayerCount: 2
Fore
SplineSet
58 588 m 1
 58 593 l 1
 154 600 l 1
 300 380 l 1
 447 600 l 1
 543 593 l 1
 543 588 l 1
 350 324 l 1
 583 4 l 1
 583 0 l 1
 482 0 l 1
 300 255 l 1
 119 0 l 1
 18 0 l 1
 18 4 l 1
 251 324 l 1
 58 588 l 1
EndSplineSet
EndChar

StartChar: y
Encoding: 121 121 93
Width: 600
GlyphClass: 2
Flags: W
AnchorPoint: "LatinBelow.mark" 300 -180 basechar 0
AnchorPoint: "LatinAbove.mark" 300 0 basechar 0
LayerCount: 2
Fore
SplineSet
22 588 m 1
 22 593 l 1
 120 600 l 1
 299 103 l 1
 481 600 l 1
 578 593 l 1
 578 588 l 1
 328 -29 l 2
 290 -113 245 -228 138 -228 c 0
 88 -228 56 -206 32 -186 c 1
 76 -131 l 1
 94 -147 111 -165 136 -165 c 0
 184 -165 218 -96 254 -12 c 2
 261 3 l 1
 22 588 l 1
EndSplineSet
EndChar

StartChar: z
Encoding: 122 122 94
Width: 530
GlyphClass: 2
Flags: W
AnchorPoint: "LatinBelow.mark" 265 0 basechar 0
AnchorPoint: "LatinAbove.mark" 265 0 basechar 0
LayerCount: 2
Fore
SplineSet
37 46 m 1
 367 536 l 1
 57 536 l 1
 57 600 l 1
 479 600 l 1
 485 554 l 1
 156 64 l 1
 492 64 l 1
 492 0 l 1
 43 0 l 1
 37 46 l 1
EndSplineSet
EndChar

StartChar: braceleft
Encoding: 123 123 95
Width: 390
GlyphClass: 2
Flags: W
LayerCount: 2
Fore
SplineSet
52 373 m 1
 52 390 l 1
 52 407 l 1
 94 414 150 452 150 538 c 0
 150 578 117 678 117 738 c 0
 117 834 170 900 262 900 c 2
 307 900 l 1
 307 852 l 1
 272 852 l 2
 236 852 197 828 197 732 c 0
 197 680 227 580 227 530 c 0
 227 456 188 410 141 390 c 1
 188 370 227 324 227 250 c 0
 227 200 197 100 197 48 c 0
 197 -48 236 -72 272 -72 c 2
 307 -72 l 1
 307 -120 l 1
 262 -120 l 2
 170 -120 117 -54 117 42 c 0
 117 102 150 202 150 242 c 0
 150 328 94 366 52 373 c 1
EndSplineSet
EndChar

StartChar: bar
Encoding: 124 124 96
Width: 360
GlyphClass: 2
Flags: W
LayerCount: 2
Fore
SplineSet
140 -120 m 1
 140 900 l 1
 220 900 l 1
 220 -120 l 1
 140 -120 l 1
EndSplineSet
EndChar

StartChar: braceright
Encoding: 125 125 97
Width: 390
GlyphClass: 2
Flags: W
LayerCount: 2
Fore
SplineSet
338 407 m 1
 338 390 l 1
 338 373 l 1
 296 366 240 328 240 242 c 0
 240 202 273 102 273 42 c 0
 273 -54 220 -120 128 -120 c 2
 83 -120 l 1
 83 -72 l 1
 118 -72 l 2
 154 -72 193 -48 193 48 c 0
 193 100 163 200 163 250 c 0
 163 324 202 370 249 390 c 1
 202 410 163 456 163 530 c 0
 163 580 193 680 193 732 c 0
 193 828 154 852 118 852 c 2
 83 852 l 1
 83 900 l 1
 128 900 l 2
 220 900 273 834 273 738 c 0
 273 678 240 578 240 538 c 0
 240 452 296 414 338 407 c 1
EndSplineSet
EndChar

StartChar: asciitilde
Encoding: 126 126 98
Width: 600
GlyphClass: 2
Flags: W
LayerCount: 2
Fore
SplineSet
52 329 m 1
 76 395 113 481 200 481 c 0
 258 481 296 442 324 414 c 0
 354 384 377 365 402 365 c 0
 444 365 474 420 488 469 c 1
 547 451 l 1
 525 385 485 299 399 299 c 0
 341 299 302 338 274 366 c 0
 244 396 223 415 198 415 c 0
 156 415 126 361 111 311 c 1
 52 329 l 1
EndSplineSet
EndChar

StartChar: exclamdown
Encoding: 161 161 100
Width: 330
GlyphClass: 2
Flags: W
LayerCount: 2
Fore
SplineSet
220 -210 m 1
 110 -210 l 1
 134 330 l 1
 196 330 l 1
 220 -210 l 1
165 467 m 0
 124 467 93 493 93 535 c 0
 93 577 124 603 165 603 c 0
 206 603 237 577 237 535 c 0
 237 493 206 467 165 467 c 0
EndSplineSet
EndChar

StartChar: cent
Encoding: 162 162 101
Width: 605
GlyphClass: 2
Flags: W
LayerCount: 2
Fore
SplineSet
62 317 m 2
 62 343 l 2
 62 477 115 631 297 647 c 1
 297 780 l 1
 366 780 l 1
 366 646 l 1
 495 632 553 543 562 485 c 1
 472 477 l 1
 465 516 429 564 366 577 c 1
 366 83 l 1
 429 96 465 144 472 183 c 1
 562 175 l 1
 553 117 495 28 366 14 c 1
 366 -120 l 1
 297 -120 l 1
 297 13 l 1
 115 29 62 183 62 317 c 2
297 82 m 1
 297 578 l 1
 202 561 154 472 154 343 c 2
 154 317 l 2
 154 188 202 99 297 82 c 1
EndSplineSet
EndChar

StartChar: sterling
Encoding: 163 163 102
Width: 660
GlyphClass: 2
Flags: W
LayerCount: 2
Fore
SplineSet
83 363 m 1
 83 417 l 1
 183 417 l 1
 183 558 l 2
 183 607 188 798 377 798 c 0
 527 798 564 679 573 639 c 1
 483 629 l 1
 473 673 451 733 377 733 c 0
 288 733 273 625 273 558 c 2
 273 417 l 1
 503 417 l 1
 503 363 l 1
 273 363 l 1
 273 296 l 2
 273 192 253 119 203 65 c 1
 598 65 l 1
 598 0 l 1
 91 0 l 1
 83 55 l 1
 149 107 183 171 183 296 c 2
 183 363 l 1
 83 363 l 1
EndSplineSet
EndChar

StartChar: currency
Encoding: 164 164 103
Width: 720
GlyphClass: 2
Flags: W
LayerCount: 2
Fore
SplineSet
654 144 m 1
 605 96 l 1
 500 201 l 1
 463 176 416 160 360 160 c 0
 304 160 257 176 220 201 c 1
 115 96 l 1
 66 144 l 1
 170 248 l 1
 140 288 123 337 123 390 c 0
 123 443 140 492 170 532 c 1
 66 636 l 1
 115 684 l 1
 220 579 l 1
 257 604 304 620 360 620 c 0
 416 620 463 604 500 579 c 1
 605 684 l 1
 654 636 l 1
 550 532 l 1
 580 492 597 443 597 390 c 0
 597 337 580 288 550 248 c 1
 654 144 l 1
360 229 m 0
 450 229 512 291 512 390 c 0
 512 489 450 551 360 551 c 0
 270 551 208 489 208 390 c 0
 208 291 270 229 360 229 c 0
EndSplineSet
EndChar

StartChar: yen
Encoding: 165 165 104
Width: 660
GlyphClass: 2
Flags: W
LayerCount: 2
Fore
SplineSet
105 318 m 1
 105 372 l 1
 246 372 l 1
 32 765 l 1
 32 772 l 1
 139 780 l 1
 330 392 l 1
 521 780 l 1
 628 772 l 1
 628 765 l 1
 414 372 l 1
 555 372 l 1
 555 318 l 1
 384 318 l 1
 378 306 l 1
 378 222 l 1
 555 222 l 1
 555 168 l 1
 378 168 l 1
 378 0 l 1
 282 0 l 1
 282 168 l 1
 105 168 l 1
 105 222 l 1
 282 222 l 1
 282 306 l 1
 276 318 l 1
 105 318 l 1
EndSplineSet
EndChar

StartChar: brokenbar
Encoding: 166 166 105
Width: 360
GlyphClass: 2
Flags: W
LayerCount: 2
Fore
SplineSet
140 450 m 1
 140 900 l 1
 220 900 l 1
 220 450 l 1
 140 450 l 1
140 -120 m 1
 140 330 l 1
 220 330 l 1
 220 -120 l 1
 140 -120 l 1
EndSplineSet
EndChar

StartChar: section
Encoding: 167 167 106
Width: 660
GlyphClass: 2
Flags: W
LayerCount: 2
Fore
SplineSet
109 619 m 0
 109 735 195 828 340 828 c 0
 492 828 560 713 571 637 c 1
 484 629 l 1
 474 694 426 764 340 764 c 0
 254 764 196 712 196 619 c 0
 196 545 246 512 288 493 c 0
 335 472 403 445 448 429 c 0
 514 406 587 345 587 231 c 0
 587 180 565 133 528 95 c 1
 546 66 557 30 557 -14 c 0
 557 -132 470 -228 310 -228 c 0
 146 -228 74 -111 62 -33 c 1
 150 -25 l 1
 160 -89 208 -164 310 -164 c 0
 412 -164 470 -111 470 -14 c 0
 470 74 419 106 378 121 c 0
 330 139 264 166 214 188 c 0
 155 214 79 271 79 373 c 0
 79 425 101 474 143 510 c 1
 123 538 109 574 109 619 c 0
478 152 m 1
 491 172 500 197 500 231 c 0
 500 319 448 353 410 367 c 0
 362 385 294 411 244 433 c 0
 228 440 211 449 194 461 c 1
 177 438 166 409 166 373 c 0
 166 299 222 267 264 248 c 0
 311 227 374 201 418 185 c 0
 438 178 459 167 478 152 c 1
EndSplineSet
EndChar

StartChar: dieresis
Encoding: 168 168 107
Width: 510
GlyphClass: 2
Flags: W
LayerCount: 2
Fore
SplineSet
68 780 m 0
 68 819 98 843 136 843 c 0
 174 843 204 819 204 780 c 0
 204 741 174 717 136 717 c 0
 98 717 68 741 68 780 c 0
306 780 m 0
 306 819 336 843 374 843 c 0
 412 843 442 819 442 780 c 0
 442 741 412 717 374 717 c 0
 336 717 306 741 306 780 c 0
EndSplineSet
EndChar

StartChar: copyright
Encoding: 169 169 108
Width: 1020
GlyphClass: 2
Flags: W
LayerCount: 2
Fore
SplineSet
341 412 m 2
 341 504 381 608 517 608 c 0
 617 608 661 543 669 503 c 1
 607 497 l 1
 601 525 572 562 517 562 c 0
 441 562 404 504 404 412 c 2
 404 396 l 2
 404 304 441 244 517 244 c 0
 572 244 601 282 607 310 c 1
 669 304 l 1
 661 264 617 199 517 199 c 0
 381 199 341 304 341 396 c 2
 341 412 l 2
510 -4 m 0
 256 -4 93 171 93 405 c 0
 93 639 256 814 510 814 c 0
 764 814 927 639 927 405 c 0
 927 171 764 -4 510 -4 c 0
510 44 m 0
 730 44 873 191 873 405 c 0
 873 619 730 766 510 766 c 0
 290 766 147 619 147 405 c 0
 147 191 290 44 510 44 c 0
EndSplineSet
EndChar

StartChar: ordfeminine
Encoding: 170 170 109
Width: 313
GlyphClass: 2
Flags: W
LayerCount: 2
Fore
SplineSet
26 596 m 0
 26 634 57 672 124 672 c 0
 156 672 189 668 213 666 c 1
 213 720 l 2
 213 762 184 778 148 778 c 0
 114 778 89 758 84 722 c 1
 28 726 l 1
 34 772 72 820 148 820 c 0
 222 820 268 778 268 720 c 2
 268 582 l 2
 268 554 274 543 300 540 c 1
 286 503 l 1
 266 505 234 515 224 548 c 1
 206 524 178 503 134 503 c 0
 66 503 26 538 26 596 c 0
216 632 m 1
 194 635 162 638 127 638 c 0
 103 638 80 624 80 596 c 0
 80 554 110 538 142 538 c 0
 191 538 210 577 216 615 c 1
 216 632 l 1
EndSplineSet
EndChar

StartChar: guillemotleft
Encoding: 171 171 110
Width: 780
GlyphClass: 2
Flags: W
LayerCount: 2
Fore
SplineSet
82 342 m 1
 82 378 l 1
 380 638 l 1
 412 592 l 1
 178 360 l 1
 412 128 l 1
 380 82 l 1
 82 342 l 1
367 342 m 1
 367 378 l 1
 664 638 l 1
 697 592 l 1
 463 360 l 1
 697 128 l 1
 664 82 l 1
 367 342 l 1
EndSplineSet
EndChar

StartChar: logicalnot
Encoding: 172 172 111
Width: 600
GlyphClass: 2
Flags: W
LayerCount: 2
Fore
SplineSet
97 326 m 1
 97 394 l 1
 502 394 l 1
 502 195 l 1
 417 195 l 1
 417 326 l 1
 97 326 l 1
EndSplineSet
EndChar

StartChar: uni00AD
Encoding: 173 173 112
Width: 450
GlyphClass: 2
Flags: W
LayerCount: 2
Fore
SplineSet
82 395 m 1
 368 395 l 1
 368 325 l 1
 82 325 l 1
 82 395 l 1
EndSplineSet
EndChar

StartChar: registered
Encoding: 174 174 113
Width: 870
GlyphClass: 2
Flags: W
LayerCount: 2
Fore
SplineSet
435 270 m 0
 229 270 97 412 97 600 c 0
 97 788 229 930 435 930 c 0
 641 930 773 788 773 600 c 0
 773 412 641 270 435 270 c 0
435 308 m 0
 611 308 728 426 728 600 c 0
 728 774 611 892 435 892 c 0
 259 892 142 774 142 600 c 0
 142 426 259 308 435 308 c 0
412 560 m 1
 395 560 379 560 365 561 c 1
 365 400 l 1
 305 400 l 1
 305 564 l 1
 305 790 l 1
 314 790 375 794 435 794 c 0
 529 794 595 751 595 677 c 0
 595 614 548 574 477 563 c 1
 610 403 l 1
 610 400 l 1
 542 400 l 1
 412 560 l 1
365 605 m 1
 381 604 404 603 428 603 c 0
 488 603 535 621 535 677 c 0
 535 733 488 752 428 752 c 0
 404 752 381 751 365 750 c 1
 365 605 l 1
EndSplineSet
EndChar

StartChar: macron
Encoding: 175 175 114
Width: 510
GlyphClass: 2
Flags: W
LayerCount: 2
Fore
SplineSet
68 750 m 1
 68 810 l 1
 442 810 l 1
 442 750 l 1
 68 750 l 1
EndSplineSet
EndChar

StartChar: degree
Encoding: 176 176 115
Width: 330
GlyphClass: 2
Flags: W
LayerCount: 2
Fore
SplineSet
165 661 m 0
 87 661 40 717 40 780 c 0
 40 843 87 899 165 899 c 0
 243 899 290 843 290 780 c 0
 290 717 243 661 165 661 c 0
165 704 m 0
 205 704 236 732 236 780 c 0
 236 828 205 856 165 856 c 0
 125 856 94 828 94 780 c 0
 94 732 125 704 165 704 c 0
EndSplineSet
EndChar

StartChar: plusminus
Encoding: 177 177 116
Width: 600
GlyphClass: 2
Flags: W
LayerCount: 2
Fore
SplineSet
97 191 m 1
 97 255 l 1
 502 255 l 1
 502 191 l 1
 97 191 l 1
97 465 m 1
 97 529 l 1
 259 529 l 1
 259 649 l 1
 339 649 l 1
 339 529 l 1
 502 529 l 1
 502 465 l 1
 339 465 l 1
 339 345 l 1
 259 345 l 1
 259 465 l 1
 97 465 l 1
EndSplineSet
EndChar

StartChar: two.sups
Encoding: 178 178 117
Width: 330
GlyphClass: 2
Flags: W
LayerCount: 2
Fore
SplineSet
35 532 m 0
 35 620 108 672 162 708 c 0
 200 734 234 758 234 798 c 0
 234 829 220 866 166 866 c 0
 129 866 105 838 99 810 c 1
 38 815 l 1
 45 851 82 910 165 910 c 0
 274 910 292 831 292 798 c 0
 292 734 237 695 199 670 c 0
 151 638 108 606 100 556 c 1
 295 556 l 1
 295 510 l 1
 38 510 l 1
 38 510 35 520 35 532 c 0
EndSplineSet
EndChar

StartChar: three.sups
Encoding: 179 179 118
Width: 330
GlyphClass: 2
Flags: W
LayerCount: 2
Fore
SplineSet
20 576 m 1
 78 586 l 1
 84 570 101 544 152 544 c 0
 218 544 232 586 232 618 c 0
 232 652 214 684 156 684 c 2
 104 684 l 1
 104 726 l 1
 150 726 l 2
 188 726 220 754 220 798 c 0
 220 829 206 866 152 866 c 0
 115 866 92 838 86 810 c 1
 26 815 l 1
 33 851 69 910 152 910 c 0
 261 910 278 831 278 798 c 0
 278 754 254 727 226 711 c 1
 278 693 292 650 292 620 c 0
 292 580 272 500 152 500 c 0
 62 500 28 554 20 576 c 1
EndSplineSet
EndChar

StartChar: acute
Encoding: 180 180 119
Width: 390
GlyphClass: 2
Flags: W
LayerCount: 2
Fore
SplineSet
382 830 m 1
 84 553 l 1
 37 586 l 1
 313 882 l 1
 382 830 l 1
EndSplineSet
EndChar

StartChar: mu
Encoding: 181 181 120
Width: 665
GlyphClass: 2
Flags: W
LayerCount: 2
Fore
SplineSet
93 600 m 1
 183 600 l 1
 183 299 l 1
 200 188 284 59 393 59 c 0
 453 59 498 94 498 182 c 2
 498 600 l 1
 588 600 l 1
 588 179 l 2
 588 75 534 -13 416 -13 c 0
 298 -13 223 76 181 167 c 1
 181 -210 l 1
 93 -210 l 1
 93 600 l 1
EndSplineSet
EndChar

StartChar: paragraph
Encoding: 182 182 121
Width: 725
GlyphClass: 2
Flags: W
LayerCount: 2
Fore
SplineSet
327 400 m 1
 327 718 l 1
 223 708 147 660 147 559 c 0
 147 458 223 410 327 400 c 1
537 715 m 1
 508 717 460 719 407 720 c 1
 407 -210 l 1
 327 -210 l 1
 327 330 l 1
 167 341 52 422 52 559 c 0
 52 707 185 789 365 789 c 0
 477 789 589 782 617 780 c 1
 617 -210 l 1
 537 -210 l 1
 537 715 l 1
EndSplineSet
EndChar

StartChar: periodcentered
Encoding: 183 183 122
Width: 330
GlyphClass: 2
Flags: W
LayerCount: 2
Fore
SplineSet
165 428 m 0
 206 428 237 402 237 360 c 0
 237 318 206 292 165 292 c 0
 124 292 93 318 93 360 c 0
 93 402 124 428 165 428 c 0
EndSplineSet
EndChar

StartChar: cedilla
Encoding: 184 184 123
Width: 330
GlyphClass: 2
Flags: W
LayerCount: 2
Fore
SplineSet
55 -284 m 1
 119 -268 205 -240 205 -175 c 0
 205 -152 188 -130 130 -130 c 0
 114 -130 94 -133 83 -135 c 1
 55 -107 l 1
 120 10 l 1
 173 10 l 1
 117 -89 l 1
 124 -88 132 -88 140 -88 c 0
 218 -88 265 -119 265 -175 c 0
 265 -283 123 -314 70 -328 c 1
 55 -284 l 1
EndSplineSet
EndChar

StartChar: one.sups
Encoding: 185 185 124
Width: 330
GlyphClass: 2
Flags: W
LayerCount: 2
Fore
SplineSet
48 825 m 1
 179 903 l 1
 220 898 l 1
 220 556 l 1
 295 556 l 1
 295 510 l 1
 68 510 l 1
 68 556 l 1
 162 556 l 1
 162 838 l 1
 72 782 l 1
 48 825 l 1
EndSplineSet
EndChar

StartChar: ordmasculine
Encoding: 186 186 125
Width: 330
GlyphClass: 2
Flags: W
LayerCount: 2
Fore
SplineSet
28 653 m 2
 28 667 l 2
 28 736 57 820 165 820 c 0
 273 820 302 736 302 667 c 2
 302 653 l 2
 302 584 273 500 165 500 c 0
 57 500 28 584 28 653 c 2
165 542 m 0
 217 542 246 583 246 653 c 2
 246 667 l 2
 246 737 217 778 165 778 c 0
 113 778 84 737 84 667 c 2
 84 653 l 2
 84 583 113 542 165 542 c 0
EndSplineSet
EndChar

StartChar: guillemotright
Encoding: 187 187 126
Width: 780
GlyphClass: 2
Flags: W
LayerCount: 2
Fore
SplineSet
698 378 m 1
 698 342 l 1
 400 82 l 1
 368 128 l 1
 602 360 l 1
 368 592 l 1
 400 638 l 1
 698 378 l 1
413 378 m 1
 413 342 l 1
 116 82 l 1
 83 128 l 1
 317 360 l 1
 83 592 l 1
 116 638 l 1
 413 378 l 1
EndSplineSet
EndChar

StartChar: onequarter
Encoding: 188 188 127
Width: 780
GlyphClass: 3
Flags: W
LayerCount: 2
Fore
SplineSet
646 98 m 1
 470 98 l 1
 465 126 l 1
 654 393 l 1
 702 388 l 1
 702 142 l 1
 765 142 l 1
 765 98 l 1
 702 98 l 1
 702 0 l 1
 646 0 l 1
 646 98 l 1
648 142 m 1
 648 313 l 1
 528 142 l 1
 648 142 l 1
48 705 m 1
 179 783 l 1
 220 778 l 1
 220 436 l 1
 295 436 l 1
 295 390 l 1
 68 390 l 1
 68 436 l 1
 162 436 l 1
 162 718 l 1
 72 662 l 1
 48 705 l 1
82 0 m 1
 82 5 l 1
 636 780 l 1
 697 780 l 1
 697 775 l 1
 143 0 l 1
 82 0 l 1
EndSplineSet
Ligature2: "LatinLiga.frac subtable" one.numr fraction four.dnom
Ligature2: "LatinLiga.frac subtable" one.numr fraction four
Ligature2: "LatinLiga.frac subtable" one fraction four.dnom
Ligature2: "LatinLiga.frac subtable" one fraction four
EndChar

StartChar: onehalf
Encoding: 189 189 128
Width: 780
GlyphClass: 3
Flags: W
LayerCount: 2
Fore
SplineSet
485 22 m 0
 485 110 558 162 612 198 c 0
 650 224 684 248 684 288 c 0
 684 319 670 356 616 356 c 0
 579 356 555 328 549 300 c 1
 488 305 l 1
 495 341 532 400 615 400 c 0
 724 400 742 321 742 288 c 0
 742 224 687 185 649 160 c 0
 601 128 558 96 550 46 c 1
 745 46 l 1
 745 0 l 1
 488 0 l 1
 488 0 485 10 485 22 c 0
82 0 m 1
 82 5 l 1
 636 780 l 1
 697 780 l 1
 697 775 l 1
 143 0 l 1
 82 0 l 1
48 705 m 1
 179 783 l 1
 220 778 l 1
 220 436 l 1
 295 436 l 1
 295 390 l 1
 68 390 l 1
 68 436 l 1
 162 436 l 1
 162 718 l 1
 72 662 l 1
 48 705 l 1
EndSplineSet
Ligature2: "LatinLiga.frac subtable" one.numr fraction two.dnom
Ligature2: "LatinLiga.frac subtable" one.numr fraction two
Ligature2: "LatinLiga.frac subtable" one fraction two.dnom
Ligature2: "LatinLiga.frac subtable" one fraction two
EndChar

StartChar: threequarters
Encoding: 190 190 129
Width: 780
GlyphClass: 3
Flags: W
LayerCount: 2
Fore
SplineSet
20 456 m 1
 78 466 l 1
 84 450 101 424 152 424 c 0
 218 424 232 466 232 498 c 0
 232 532 214 564 156 564 c 2
 104 564 l 1
 104 606 l 1
 150 606 l 2
 188 606 220 634 220 678 c 0
 220 709 206 746 152 746 c 0
 115 746 92 718 86 690 c 1
 26 695 l 1
 33 731 69 790 152 790 c 0
 261 790 278 711 278 678 c 0
 278 634 254 607 226 591 c 1
 278 573 292 530 292 500 c 0
 292 460 272 380 152 380 c 0
 62 380 28 434 20 456 c 1
82 0 m 1
 82 5 l 1
 636 780 l 1
 697 780 l 1
 697 775 l 1
 143 0 l 1
 82 0 l 1
646 98 m 1
 470 98 l 1
 465 126 l 1
 654 393 l 1
 702 388 l 1
 702 142 l 1
 765 142 l 1
 765 98 l 1
 702 98 l 1
 702 0 l 1
 646 0 l 1
 646 98 l 1
648 142 m 1
 648 313 l 1
 528 142 l 1
 648 142 l 1
EndSplineSet
Ligature2: "LatinLiga.frac subtable" three.numr fraction four.dnom
Ligature2: "LatinLiga.frac subtable" three.numr fraction four
Ligature2: "LatinLiga.frac subtable" three fraction four.dnom
Ligature2: "LatinLiga.frac subtable" three fraction four
EndChar

StartChar: questiondown
Encoding: 191 191 130
Width: 570
GlyphClass: 2
Flags: W
LayerCount: 2
Fore
SplineSet
508 -50 m 0
 508 -152 422 -228 286 -228 c 0
 158 -228 73 -156 73 -36 c 0
 73 128 278 170 278 291 c 0
 278 311 273 331 264 350 c 1
 339 359 l 1
 351 335 358 310 358 286 c 0
 358 130 168 99 168 -33 c 0
 168 -125 226 -157 288 -157 c 0
 361 -157 412 -120 412 -50 c 0
 412 -28 409 -5 399 15 c 1
 488 39 l 1
 500 11 508 -20 508 -50 c 0
285 467 m 0
 244 467 213 493 213 535 c 0
 213 577 244 603 285 603 c 0
 326 603 357 577 357 535 c 0
 357 493 326 467 285 467 c 0
EndSplineSet
EndChar

StartChar: Agrave
Encoding: 192 192 131
Width: 750
GlyphClass: 2
Flags: W
AnchorPoint: "LatinBelow.mark" 375 0 basechar 0
AnchorPoint: "LatinAbove.mark" 375 330 basechar 0
LayerCount: 2
Fore
SplineSet
225 990 m 1
 265 1052 l 1
 480 884 l 1
 454 848 l 1
 225 990 l 1
727 0 m 1
 619 0 l 1
 555 176 l 1
 195 176 l 1
 131 0 l 1
 23 0 l 1
 23 6 l 1
 335 780 l 1
 415 780 l 1
 727 6 l 1
 727 0 l 1
530 244 m 1
 375 670 l 1
 220 244 l 1
 530 244 l 1
EndSplineSet
EndChar

StartChar: Aacute
Encoding: 193 193 132
Width: 750
GlyphClass: 2
Flags: W
AnchorPoint: "LatinBelow.mark" 375 0 basechar 0
AnchorPoint: "LatinAbove.mark" 375 330 basechar 0
LayerCount: 2
Fore
SplineSet
525 990 m 1
 296 848 l 1
 270 884 l 1
 485 1052 l 1
 525 990 l 1
727 0 m 1
 619 0 l 1
 555 176 l 1
 195 176 l 1
 131 0 l 1
 23 0 l 1
 23 6 l 1
 335 780 l 1
 415 780 l 1
 727 6 l 1
 727 0 l 1
530 244 m 1
 375 670 l 1
 220 244 l 1
 530 244 l 1
EndSplineSet
EndChar

StartChar: Acircumflex
Encoding: 194 194 133
Width: 750
GlyphClass: 2
Flags: W
AnchorPoint: "LatinBelow.mark" 375 0 basechar 0
AnchorPoint: "LatinAbove.mark" 375 330 basechar 0
LayerCount: 2
Fore
SplineSet
188 863 m 1
 363 1012 l 1
 387 1012 l 1
 562 863 l 1
 534 832 l 1
 375 938 l 1
 216 832 l 1
 188 863 l 1
727 0 m 1
 619 0 l 1
 555 176 l 1
 195 176 l 1
 131 0 l 1
 23 0 l 1
 23 6 l 1
 335 780 l 1
 415 780 l 1
 727 6 l 1
 727 0 l 1
530 244 m 1
 375 670 l 1
 220 244 l 1
 530 244 l 1
EndSplineSet
EndChar

StartChar: Atilde
Encoding: 195 195 134
Width: 750
GlyphClass: 2
Flags: W
AnchorPoint: "LatinBelow.mark" 375 0 basechar 0
AnchorPoint: "LatinAbove.mark" 375 330 basechar 0
LayerCount: 2
Fore
SplineSet
188 887 m 1
 208 938 235 1007 299 1007 c 0
 349 1007 377 976 399 955 c 0
 420 934 435 913 454 913 c 0
 486 913 505 974 515 1000 c 1
 562 983 l 1
 544 931 515 863 452 863 c 0
 402 863 374 894 352 915 c 0
 331 936 316 957 297 957 c 0
 265 957 246 896 236 870 c 1
 188 887 l 1
727 0 m 1
 619 0 l 1
 555 176 l 1
 195 176 l 1
 131 0 l 1
 23 0 l 1
 23 6 l 1
 335 780 l 1
 415 780 l 1
 727 6 l 1
 727 0 l 1
530 244 m 1
 375 670 l 1
 220 244 l 1
 530 244 l 1
EndSplineSet
EndChar

StartChar: Adieresis
Encoding: 196 196 135
Width: 750
GlyphClass: 2
Flags: W
AnchorPoint: "LatinBelow.mark" 375 0 basechar 0
AnchorPoint: "LatinAbove.mark" 375 330 basechar 0
LayerCount: 2
Fore
SplineSet
188 930 m 0
 188 969 218 993 256 993 c 0
 294 993 324 969 324 930 c 0
 324 891 294 867 256 867 c 0
 218 867 188 891 188 930 c 0
426 930 m 0
 426 969 456 993 494 993 c 0
 532 993 562 969 562 930 c 0
 562 891 532 867 494 867 c 0
 456 867 426 891 426 930 c 0
727 0 m 1
 619 0 l 1
 555 176 l 1
 195 176 l 1
 131 0 l 1
 23 0 l 1
 23 6 l 1
 335 780 l 1
 415 780 l 1
 727 6 l 1
 727 0 l 1
530 244 m 1
 375 670 l 1
 220 244 l 1
 530 244 l 1
EndSplineSet
EndChar

StartChar: Aring
Encoding: 197 197 136
Width: 750
GlyphClass: 2
Flags: W
AnchorPoint: "LatinBelow.mark" 375 0 basechar 0
AnchorPoint: "LatinAbove.mark" 375 330 basechar 0
LayerCount: 2
Fore
SplineSet
375 807 m 0
 308 807 260 851 260 915 c 0
 260 979 308 1023 375 1023 c 0
 442 1023 490 979 490 915 c 0
 490 851 442 807 375 807 c 0
375 851 m 0
 415 851 441 877 441 915 c 0
 441 953 415 979 375 979 c 0
 335 979 309 953 309 915 c 0
 309 877 335 851 375 851 c 0
727 0 m 1
 619 0 l 1
 555 176 l 1
 195 176 l 1
 131 0 l 1
 23 0 l 1
 23 6 l 1
 335 780 l 1
 415 780 l 1
 727 6 l 1
 727 0 l 1
530 244 m 1
 375 670 l 1
 220 244 l 1
 530 244 l 1
EndSplineSet
EndChar

StartChar: AE
Encoding: 198 198 137
Width: 980
GlyphClass: 2
Flags: W
AnchorPoint: "LatinBelow.mark" 510 0 basechar 0
AnchorPoint: "LatinAbove.mark" 510 150 basechar 0
LayerCount: 2
Fore
SplineSet
28 0 m 1
 28 6 l 1
 425 780 l 1
 463 780 l 1
 506 780 l 1
 903 780 l 1
 903 706 l 1
 559 706 l 1
 559 420 l 1
 869 420 l 1
 869 350 l 1
 559 350 l 1
 559 74 l 1
 918 74 l 1
 918 0 l 1
 463 0 l 1
 463 176 l 1
 219 176 l 1
 136 0 l 1
 28 0 l 1
463 689 m 1
 252 244 l 1
 463 244 l 1
 463 689 l 1
EndSplineSet
EndChar

StartChar: Ccedilla
Encoding: 199 199 138
Width: 755
GlyphClass: 2
Flags: W
AnchorPoint: "LatinAbove.mark" 410 150 basechar 0
LayerCount: 2
Fore
SplineSet
322 -284 m 1
 386 -268 472 -240 472 -175 c 0
 472 -152 455 -130 397 -130 c 0
 381 -130 361 -133 350 -135 c 1
 322 -107 l 1
 372 -17 l 1
 141 3 68 195 68 373 c 2
 68 405 l 2
 68 593 149 797 413 797 c 0
 607 797 694 671 708 591 c 1
 610 581 l 1
 598 642 535 724 413 724 c 0
 245 724 168 592 168 405 c 2
 168 373 l 2
 168 186 245 54 413 54 c 0
 535 54 598 136 610 197 c 1
 708 187 l 1
 694 108 611 -14 424 -19 c 1
 384 -89 l 1
 391 -88 399 -88 407 -88 c 0
 485 -88 532 -119 532 -175 c 0
 532 -283 390 -314 337 -328 c 1
 322 -284 l 1
EndSplineSet
EndChar

StartChar: Egrave
Encoding: 200 200 139
Width: 675
GlyphClass: 2
Flags: W
AnchorPoint: "LatinBelow.mark" 350 0 basechar 0
AnchorPoint: "LatinAbove.mark" 350 330 basechar 0
LayerCount: 2
Fore
SplineSet
200 990 m 1
 240 1052 l 1
 455 884 l 1
 429 848 l 1
 200 990 l 1
98 0 m 1
 98 780 l 1
 598 780 l 1
 598 706 l 1
 194 706 l 1
 194 420 l 1
 564 420 l 1
 564 350 l 1
 194 350 l 1
 194 74 l 1
 613 74 l 1
 613 0 l 1
 98 0 l 1
EndSplineSet
EndChar

StartChar: Eacute
Encoding: 201 201 140
Width: 675
GlyphClass: 2
Flags: W
AnchorPoint: "LatinBelow.mark" 350 0 basechar 0
AnchorPoint: "LatinAbove.mark" 350 330 basechar 0
LayerCount: 2
Fore
SplineSet
500 990 m 1
 271 848 l 1
 245 884 l 1
 460 1052 l 1
 500 990 l 1
98 0 m 1
 98 780 l 1
 598 780 l 1
 598 706 l 1
 194 706 l 1
 194 420 l 1
 564 420 l 1
 564 350 l 1
 194 350 l 1
 194 74 l 1
 613 74 l 1
 613 0 l 1
 98 0 l 1
EndSplineSet
EndChar

StartChar: Ecircumflex
Encoding: 202 202 141
Width: 675
GlyphClass: 2
Flags: W
AnchorPoint: "LatinBelow.mark" 350 0 basechar 0
AnchorPoint: "LatinAbove.mark" 350 330 basechar 0
LayerCount: 2
Fore
SplineSet
163 863 m 1
 338 1012 l 1
 362 1012 l 1
 537 863 l 1
 509 832 l 1
 350 938 l 1
 191 832 l 1
 163 863 l 1
98 0 m 1
 98 780 l 1
 598 780 l 1
 598 706 l 1
 194 706 l 1
 194 420 l 1
 564 420 l 1
 564 350 l 1
 194 350 l 1
 194 74 l 1
 613 74 l 1
 613 0 l 1
 98 0 l 1
EndSplineSet
EndChar

StartChar: Edieresis
Encoding: 203 203 142
Width: 675
GlyphClass: 2
Flags: W
AnchorPoint: "LatinBelow.mark" 350 0 basechar 0
AnchorPoint: "LatinAbove.mark" 350 330 basechar 0
LayerCount: 2
Fore
SplineSet
163 930 m 0
 163 969 193 993 231 993 c 0
 269 993 299 969 299 930 c 0
 299 891 269 867 231 867 c 0
 193 867 163 891 163 930 c 0
401 930 m 0
 401 969 431 993 469 993 c 0
 507 993 537 969 537 930 c 0
 537 891 507 867 469 867 c 0
 431 867 401 891 401 930 c 0
98 0 m 1
 98 780 l 1
 598 780 l 1
 598 706 l 1
 194 706 l 1
 194 420 l 1
 564 420 l 1
 564 350 l 1
 194 350 l 1
 194 74 l 1
 613 74 l 1
 613 0 l 1
 98 0 l 1
EndSplineSet
EndChar

StartChar: Igrave
Encoding: 204 204 143
Width: 320
GlyphClass: 2
Flags: W
AnchorPoint: "LatinBelow.mark" 160 0 basechar 0
AnchorPoint: "LatinAbove.mark" 160 330 basechar 0
LayerCount: 2
Fore
SplineSet
10 990 m 1
 50 1052 l 1
 265 884 l 1
 239 848 l 1
 10 990 l 1
112 0 m 1
 112 780 l 1
 208 780 l 1
 208 0 l 1
 112 0 l 1
EndSplineSet
EndChar

StartChar: Iacute
Encoding: 205 205 144
Width: 320
GlyphClass: 2
Flags: W
AnchorPoint: "LatinBelow.mark" 160 0 basechar 0
AnchorPoint: "LatinAbove.mark" 160 330 basechar 0
LayerCount: 2
Fore
SplineSet
310 990 m 1
 81 848 l 1
 55 884 l 1
 270 1052 l 1
 310 990 l 1
112 0 m 1
 112 780 l 1
 208 780 l 1
 208 0 l 1
 112 0 l 1
EndSplineSet
EndChar

StartChar: Icircumflex
Encoding: 206 206 145
Width: 320
GlyphClass: 2
Flags: W
AnchorPoint: "LatinBelow.mark" 160 0 basechar 0
AnchorPoint: "LatinAbove.mark" 160 330 basechar 0
LayerCount: 2
Fore
SplineSet
-27 863 m 1
 148 1012 l 1
 172 1012 l 1
 347 863 l 1
 319 832 l 1
 160 938 l 1
 1 832 l 1
 -27 863 l 1
112 0 m 1
 112 780 l 1
 208 780 l 1
 208 0 l 1
 112 0 l 1
EndSplineSet
EndChar

StartChar: Idieresis
Encoding: 207 207 146
Width: 320
GlyphClass: 2
Flags: W
AnchorPoint: "LatinBelow.mark" 160 0 basechar 0
AnchorPoint: "LatinAbove.mark" 160 330 basechar 0
LayerCount: 2
Fore
SplineSet
-27 930 m 0
 -27 969 3 993 41 993 c 0
 79 993 109 969 109 930 c 0
 109 891 79 867 41 867 c 0
 3 867 -27 891 -27 930 c 0
211 930 m 0
 211 969 241 993 279 993 c 0
 317 993 347 969 347 930 c 0
 347 891 317 867 279 867 c 0
 241 867 211 891 211 930 c 0
112 0 m 1
 112 780 l 1
 208 780 l 1
 208 0 l 1
 112 0 l 1
EndSplineSet
EndChar

StartChar: Eth
Encoding: 208 208 147
Width: 770
GlyphClass: 2
Flags: W
AnchorPoint: "LatinBelow.mark" 320 0 basechar 0
AnchorPoint: "LatinAbove.mark" 320 150 basechar 0
LayerCount: 2
Fore
SplineSet
13 363 m 1
 13 417 l 1
 98 417 l 1
 98 780 l 1
 98 780 206 789 290 789 c 0
 599 789 703 596 703 406 c 2
 703 374 l 2
 703 184 599 -9 290 -9 c 0
 206 -9 98 0 98 0 c 1
 98 363 l 1
 13 363 l 1
193 64 m 1
 223 63 262 61 290 61 c 0
 524 61 608 195 608 374 c 2
 608 406 l 2
 608 585 524 719 290 719 c 0
 262 719 223 717 193 716 c 1
 193 417 l 1
 403 417 l 1
 403 363 l 1
 193 363 l 1
 193 64 l 1
EndSplineSet
EndChar

StartChar: Ntilde
Encoding: 209 209 148
Width: 790
GlyphClass: 2
Flags: W
AnchorPoint: "LatinBelow.mark" 395 0 basechar 0
LayerCount: 2
Fore
SplineSet
208 887 m 1
 228 938 255 1007 319 1007 c 0
 369 1007 397 976 419 955 c 0
 440 934 455 913 474 913 c 0
 506 913 525 974 535 1000 c 1
 582 983 l 1
 564 931 535 863 472 863 c 0
 422 863 394 894 372 915 c 0
 351 936 336 957 317 957 c 0
 285 957 266 896 256 870 c 1
 208 887 l 1
98 0 m 1
 98 771 l 1
 180 780 l 1
 599 152 l 1
 599 780 l 1
 692 780 l 1
 692 0 l 1
 610 0 l 1
 191 628 l 1
 191 0 l 1
 98 0 l 1
EndSplineSet
EndChar

StartChar: Ograve
Encoding: 210 210 149
Width: 820
GlyphClass: 2
Flags: W
AnchorPoint: "LatinBelow.mark" 410 0 basechar 0
AnchorPoint: "LatinAbove.mark" 410 330 basechar 0
LayerCount: 2
Fore
SplineSet
260 990 m 1
 300 1052 l 1
 515 884 l 1
 489 848 l 1
 260 990 l 1
68 372 m 2
 68 408 l 2
 68 594 147 798 410 798 c 0
 673 798 752 594 752 408 c 2
 752 372 l 2
 752 186 673 -18 410 -18 c 0
 147 -18 68 186 68 372 c 2
410 54 m 0
 579 54 654 186 654 372 c 2
 654 408 l 2
 654 594 579 726 410 726 c 0
 241 726 166 594 166 408 c 2
 166 372 l 2
 166 186 241 54 410 54 c 0
EndSplineSet
EndChar

StartChar: Oacute
Encoding: 211 211 150
Width: 820
GlyphClass: 2
Flags: W
AnchorPoint: "LatinBelow.mark" 410 0 basechar 0
AnchorPoint: "LatinAbove.mark" 410 330 basechar 0
LayerCount: 2
Fore
SplineSet
560 990 m 1
 331 848 l 1
 305 884 l 1
 520 1052 l 1
 560 990 l 1
68 372 m 2
 68 408 l 2
 68 594 147 798 410 798 c 0
 673 798 752 594 752 408 c 2
 752 372 l 2
 752 186 673 -18 410 -18 c 0
 147 -18 68 186 68 372 c 2
410 54 m 0
 579 54 654 186 654 372 c 2
 654 408 l 2
 654 594 579 726 410 726 c 0
 241 726 166 594 166 408 c 2
 166 372 l 2
 166 186 241 54 410 54 c 0
EndSplineSet
EndChar

StartChar: Ocircumflex
Encoding: 212 212 151
Width: 820
GlyphClass: 2
Flags: W
AnchorPoint: "LatinBelow.mark" 410 0 basechar 0
AnchorPoint: "LatinAbove.mark" 410 330 basechar 0
LayerCount: 2
Fore
SplineSet
223 863 m 1
 398 1012 l 1
 422 1012 l 1
 597 863 l 1
 569 832 l 1
 410 938 l 1
 251 832 l 1
 223 863 l 1
68 372 m 2
 68 408 l 2
 68 594 147 798 410 798 c 0
 673 798 752 594 752 408 c 2
 752 372 l 2
 752 186 673 -18 410 -18 c 0
 147 -18 68 186 68 372 c 2
410 54 m 0
 579 54 654 186 654 372 c 2
 654 408 l 2
 654 594 579 726 410 726 c 0
 241 726 166 594 166 408 c 2
 166 372 l 2
 166 186 241 54 410 54 c 0
EndSplineSet
EndChar

StartChar: Otilde
Encoding: 213 213 152
Width: 820
GlyphClass: 2
Flags: W
AnchorPoint: "LatinBelow.mark" 410 0 basechar 0
AnchorPoint: "LatinAbove.mark" 410 330 basechar 0
LayerCount: 2
Fore
SplineSet
223 887 m 1
 243 938 270 1007 334 1007 c 0
 384 1007 412 976 434 955 c 0
 455 934 470 913 489 913 c 0
 521 913 540 974 550 1000 c 1
 597 983 l 1
 579 931 550 863 487 863 c 0
 437 863 409 894 387 915 c 0
 366 936 351 957 332 957 c 0
 300 957 281 896 271 870 c 1
 223 887 l 1
68 372 m 2
 68 408 l 2
 68 594 147 798 410 798 c 0
 673 798 752 594 752 408 c 2
 752 372 l 2
 752 186 673 -18 410 -18 c 0
 147 -18 68 186 68 372 c 2
410 54 m 0
 579 54 654 186 654 372 c 2
 654 408 l 2
 654 594 579 726 410 726 c 0
 241 726 166 594 166 408 c 2
 166 372 l 2
 166 186 241 54 410 54 c 0
EndSplineSet
EndChar

StartChar: Odieresis
Encoding: 214 214 153
Width: 820
GlyphClass: 2
Flags: W
AnchorPoint: "LatinBelow.mark" 410 0 basechar 0
AnchorPoint: "LatinAbove.mark" 410 330 basechar 0
LayerCount: 2
Fore
SplineSet
223 930 m 0
 223 969 253 993 291 993 c 0
 329 993 359 969 359 930 c 0
 359 891 329 867 291 867 c 0
 253 867 223 891 223 930 c 0
461 930 m 0
 461 969 491 993 529 993 c 0
 567 993 597 969 597 930 c 0
 597 891 567 867 529 867 c 0
 491 867 461 891 461 930 c 0
68 372 m 2
 68 408 l 2
 68 594 147 798 410 798 c 0
 673 798 752 594 752 408 c 2
 752 372 l 2
 752 186 673 -18 410 -18 c 0
 147 -18 68 186 68 372 c 2
410 54 m 0
 579 54 654 186 654 372 c 2
 654 408 l 2
 654 594 579 726 410 726 c 0
 241 726 166 594 166 408 c 2
 166 372 l 2
 166 186 241 54 410 54 c 0
EndSplineSet
EndChar

StartChar: multiply
Encoding: 215 215 154
Width: 600
GlyphClass: 2
Flags: W
LayerCount: 2
Fore
SplineSet
108 503 m 1
 157 552 l 1
 300 409 l 1
 443 552 l 1
 492 503 l 1
 349 360 l 1
 492 217 l 1
 443 168 l 1
 300 311 l 1
 157 168 l 1
 108 217 l 1
 251 360 l 1
 108 503 l 1
EndSplineSet
EndChar

StartChar: Oslash
Encoding: 216 216 155
Width: 820
GlyphClass: 2
Flags: W
AnchorPoint: "LatinBelow.mark" 410 0 basechar 0
AnchorPoint: "LatinAbove.mark" 410 150 basechar 0
LayerCount: 2
Fore
SplineSet
68 372 m 2
 68 408 l 2
 68 594 147 798 410 798 c 0
 511 798 585 768 638 720 c 1
 702 801 l 1
 746 771 l 1
 674 681 l 1
 731 606 752 504 752 408 c 2
 752 372 l 2
 752 186 673 -18 410 -18 c 0
 307 -18 233 13 180 62 c 1
 118 -15 l 1
 76 15 l 1
 145 101 l 1
 89 176 68 276 68 372 c 2
583 652 m 1
 543 699 486 726 410 726 c 0
 241 726 166 594 166 408 c 2
 166 372 l 2
 166 296 179 230 205 177 c 1
 583 652 l 1
614 606 m 1
 234 131 l 1
 274 83 332 54 410 54 c 0
 579 54 654 186 654 372 c 2
 654 408 l 2
 654 485 641 553 614 606 c 1
EndSplineSet
EndChar

StartChar: Ugrave
Encoding: 217 217 156
Width: 770
GlyphClass: 2
Flags: W
AnchorPoint: "LatinBelow.mark" 385 0 basechar 0
AnchorPoint: "LatinAbove.mark" 385 330 basechar 0
LayerCount: 2
Fore
SplineSet
235 990 m 1
 275 1052 l 1
 490 884 l 1
 464 848 l 1
 235 990 l 1
87 236 m 2
 87 780 l 1
 183 780 l 1
 183 236 l 2
 183 118 267 54 385 54 c 0
 503 54 587 118 587 236 c 2
 587 780 l 1
 683 780 l 1
 683 236 l 2
 683 90 565 -18 385 -18 c 0
 205 -18 87 90 87 236 c 2
EndSplineSet
EndChar

StartChar: Uacute
Encoding: 218 218 157
Width: 770
GlyphClass: 2
Flags: W
AnchorPoint: "LatinBelow.mark" 385 0 basechar 0
AnchorPoint: "LatinAbove.mark" 385 330 basechar 0
LayerCount: 2
Fore
SplineSet
535 990 m 1
 306 848 l 1
 280 884 l 1
 495 1052 l 1
 535 990 l 1
87 236 m 2
 87 780 l 1
 183 780 l 1
 183 236 l 2
 183 118 267 54 385 54 c 0
 503 54 587 118 587 236 c 2
 587 780 l 1
 683 780 l 1
 683 236 l 2
 683 90 565 -18 385 -18 c 0
 205 -18 87 90 87 236 c 2
EndSplineSet
EndChar

StartChar: Ucircumflex
Encoding: 219 219 158
Width: 770
GlyphClass: 2
Flags: W
AnchorPoint: "LatinBelow.mark" 385 0 basechar 0
AnchorPoint: "LatinAbove.mark" 385 330 basechar 0
LayerCount: 2
Fore
SplineSet
198 863 m 1
 373 1012 l 1
 397 1012 l 1
 572 863 l 1
 544 832 l 1
 385 938 l 1
 226 832 l 1
 198 863 l 1
87 236 m 2
 87 780 l 1
 183 780 l 1
 183 236 l 2
 183 118 267 54 385 54 c 0
 503 54 587 118 587 236 c 2
 587 780 l 1
 683 780 l 1
 683 236 l 2
 683 90 565 -18 385 -18 c 0
 205 -18 87 90 87 236 c 2
EndSplineSet
EndChar

StartChar: Udieresis
Encoding: 220 220 159
Width: 770
GlyphClass: 2
Flags: W
AnchorPoint: "LatinBelow.mark" 385 0 basechar 0
AnchorPoint: "LatinAbove.mark" 385 330 basechar 0
LayerCount: 2
Fore
SplineSet
198 930 m 0
 198 969 228 993 266 993 c 0
 304 993 334 969 334 930 c 0
 334 891 304 867 266 867 c 0
 228 867 198 891 198 930 c 0
436 930 m 0
 436 969 466 993 504 993 c 0
 542 993 572 969 572 930 c 0
 572 891 542 867 504 867 c 0
 466 867 436 891 436 930 c 0
87 236 m 2
 87 780 l 1
 183 780 l 1
 183 236 l 2
 183 118 267 54 385 54 c 0
 503 54 587 118 587 236 c 2
 587 780 l 1
 683 780 l 1
 683 236 l 2
 683 90 565 -18 385 -18 c 0
 205 -18 87 90 87 236 c 2
EndSplineSet
EndChar

StartChar: Yacute
Encoding: 221 221 160
Width: 670
GlyphClass: 2
Flags: W
AnchorPoint: "LatinBelow.mark" 335 0 basechar 0
AnchorPoint: "LatinAbove.mark" 345 330 basechar 0
LayerCount: 2
Fore
SplineSet
485 990 m 1
 256 848 l 1
 230 884 l 1
 445 1052 l 1
 485 990 l 1
18 765 m 1
 18 772 l 1
 125 780 l 1
 335 392 l 1
 545 780 l 1
 652 772 l 1
 652 765 l 1
 383 301 l 1
 383 0 l 1
 287 0 l 1
 287 301 l 1
 18 765 l 1
EndSplineSet
EndChar

StartChar: Thorn
Encoding: 222 222 161
Width: 725
GlyphClass: 2
Flags: W
AnchorPoint: "LatinBelow.mark" 160 0 basechar 0
AnchorPoint: "LatinAbove.mark" 160 150 basechar 0
LayerCount: 2
Fore
SplineSet
192 261 m 1
 228 259 283 257 340 257 c 0
 468 257 568 302 568 418 c 0
 568 534 468 579 340 579 c 0
 283 579 228 577 192 575 c 1
 192 261 l 1
192 644 m 1
 238 646 294 648 350 648 c 0
 530 648 663 566 663 418 c 0
 663 270 530 188 350 188 c 0
 294 188 238 190 192 192 c 1
 192 0 l 1
 98 0 l 1
 98 197 l 1
 98 639 l 1
 98 780 l 1
 192 780 l 1
 192 644 l 1
EndSplineSet
EndChar

StartChar: germandbls
Encoding: 223 223 162
Width: 780
GlyphClass: 2
Flags: W
AnchorPoint: "LatinBelow.mark" 350 0 basechar 0
AnchorPoint: "LatinAbove.mark" 350 180 basechar 0
LayerCount: 2
Fore
SplineSet
338 137 m 1
 423 143 l 1
 430 95 469 47 535 47 c 0
 603 47 647 82 647 150 c 0
 647 208 602 235 577 245 c 0
 541 259 495 279 460 294 c 0
 411 314 351 358 351 445 c 0
 351 537 417 601 525 601 c 0
 535 601 544 600 553 599 c 1
 531 714 448 763 357 763 c 0
 271 763 187 720 187 579 c 2
 187 0 l 1
 97 0 l 1
 97 579 l 2
 97 739 209 828 357 828 c 0
 520 828 623 717 633 569 c 1
 589 531 l 1
 580 535 561 543 527 543 c 0
 475 543 435 515 435 453 c 0
 435 391 479 368 505 356 c 0
 540 341 586 321 619 308 c 0
 669 288 732 241 732 150 c 0
 732 60 664 -18 535 -18 c 0
 401 -18 346 78 338 137 c 1
EndSplineSet
EndChar

StartChar: agrave
Encoding: 224 224 163
Width: 625
GlyphClass: 2
Flags: W
AnchorPoint: "LatinBelow.mark" 330 0 basechar 0
AnchorPoint: "LatinAbove.mark" 310 180 basechar 0
LayerCount: 2
Fore
SplineSet
160 840 m 1
 200 902 l 1
 415 734 l 1
 389 698 l 1
 160 840 l 1
63 172 m 0
 63 249 125 320 251 320 c 0
 324 320 395 314 446 308 c 1
 446 422 l 2
 446 511 384 552 300 552 c 0
 220 552 169 505 158 429 c 1
 68 435 l 1
 81 528 156 618 300 618 c 0
 442 618 533 536 533 422 c 2
 533 137 l 2
 533 77 551 53 603 47 c 1
 581 -13 l 1
 536 -8 476 14 462 89 c 1
 427 35 369 -13 275 -13 c 0
 146 -13 63 57 63 172 c 0
450 252 m 1
 405 258 336 266 256 266 c 0
 198 266 151 232 151 171 c 0
 151 83 213 43 285 43 c 0
 392 43 436 133 450 210 c 1
 450 252 l 1
EndSplineSet
MultipleSubs2: "Latin.a.decomp subtable" uni0251 uni0300
EndChar

StartChar: aacute
Encoding: 225 225 164
Width: 625
GlyphClass: 2
Flags: W
AnchorPoint: "LatinBelow.mark" 330 0 basechar 0
AnchorPoint: "LatinAbove.mark" 310 180 basechar 0
LayerCount: 2
Fore
SplineSet
460 840 m 1
 231 698 l 1
 205 734 l 1
 420 902 l 1
 460 840 l 1
63 172 m 0
 63 249 125 320 251 320 c 0
 324 320 395 314 446 308 c 1
 446 422 l 2
 446 511 384 552 300 552 c 0
 220 552 169 505 158 429 c 1
 68 435 l 1
 81 528 156 618 300 618 c 0
 442 618 533 536 533 422 c 2
 533 137 l 2
 533 77 551 53 603 47 c 1
 581 -13 l 1
 536 -8 476 14 462 89 c 1
 427 35 369 -13 275 -13 c 0
 146 -13 63 57 63 172 c 0
450 252 m 1
 405 258 336 266 256 266 c 0
 198 266 151 232 151 171 c 0
 151 83 213 43 285 43 c 0
 392 43 436 133 450 210 c 1
 450 252 l 1
EndSplineSet
MultipleSubs2: "Latin.a.decomp subtable" uni0251 uni0301
EndChar

StartChar: acircumflex
Encoding: 226 226 165
Width: 625
GlyphClass: 2
Flags: W
AnchorPoint: "LatinBelow.mark" 330 0 basechar 0
AnchorPoint: "LatinAbove.mark" 310 180 basechar 0
LayerCount: 2
Fore
SplineSet
123 713 m 1
 298 862 l 1
 322 862 l 1
 497 713 l 1
 469 682 l 1
 310 788 l 1
 151 682 l 1
 123 713 l 1
63 172 m 0
 63 249 125 320 251 320 c 0
 324 320 395 314 446 308 c 1
 446 422 l 2
 446 511 384 552 300 552 c 0
 220 552 169 505 158 429 c 1
 68 435 l 1
 81 528 156 618 300 618 c 0
 442 618 533 536 533 422 c 2
 533 137 l 2
 533 77 551 53 603 47 c 1
 581 -13 l 1
 536 -8 476 14 462 89 c 1
 427 35 369 -13 275 -13 c 0
 146 -13 63 57 63 172 c 0
450 252 m 1
 405 258 336 266 256 266 c 0
 198 266 151 232 151 171 c 0
 151 83 213 43 285 43 c 0
 392 43 436 133 450 210 c 1
 450 252 l 1
EndSplineSet
MultipleSubs2: "Latin.a.decomp subtable" uni0251 uni0302
EndChar

StartChar: atilde
Encoding: 227 227 166
Width: 625
GlyphClass: 2
Flags: W
AnchorPoint: "LatinBelow.mark" 330 0 basechar 0
AnchorPoint: "LatinAbove.mark" 310 180 basechar 0
LayerCount: 2
Fore
SplineSet
123 737 m 1
 143 788 170 857 234 857 c 0
 284 857 312 826 334 805 c 0
 355 784 370 763 389 763 c 0
 421 763 440 824 450 850 c 1
 497 833 l 1
 479 781 450 713 387 713 c 0
 337 713 309 744 287 765 c 0
 266 786 251 807 232 807 c 0
 200 807 181 746 171 720 c 1
 123 737 l 1
63 172 m 0
 63 249 125 320 251 320 c 0
 324 320 395 314 446 308 c 1
 446 422 l 2
 446 511 384 552 300 552 c 0
 220 552 169 505 158 429 c 1
 68 435 l 1
 81 528 156 618 300 618 c 0
 442 618 533 536 533 422 c 2
 533 137 l 2
 533 77 551 53 603 47 c 1
 581 -13 l 1
 536 -8 476 14 462 89 c 1
 427 35 369 -13 275 -13 c 0
 146 -13 63 57 63 172 c 0
450 252 m 1
 405 258 336 266 256 266 c 0
 198 266 151 232 151 171 c 0
 151 83 213 43 285 43 c 0
 392 43 436 133 450 210 c 1
 450 252 l 1
EndSplineSet
MultipleSubs2: "Latin.a.decomp subtable" uni0251 uni0303
EndChar

StartChar: adieresis
Encoding: 228 228 167
Width: 625
GlyphClass: 2
Flags: W
AnchorPoint: "LatinBelow.mark" 330 0 basechar 0
AnchorPoint: "LatinAbove.mark" 310 180 basechar 0
LayerCount: 2
Fore
SplineSet
123 780 m 0
 123 819 153 843 191 843 c 0
 229 843 259 819 259 780 c 0
 259 741 229 717 191 717 c 0
 153 717 123 741 123 780 c 0
361 780 m 0
 361 819 391 843 429 843 c 0
 467 843 497 819 497 780 c 0
 497 741 467 717 429 717 c 0
 391 717 361 741 361 780 c 0
63 172 m 0
 63 249 125 320 251 320 c 0
 324 320 395 314 446 308 c 1
 446 422 l 2
 446 511 384 552 300 552 c 0
 220 552 169 505 158 429 c 1
 68 435 l 1
 81 528 156 618 300 618 c 0
 442 618 533 536 533 422 c 2
 533 137 l 2
 533 77 551 53 603 47 c 1
 581 -13 l 1
 536 -8 476 14 462 89 c 1
 427 35 369 -13 275 -13 c 0
 146 -13 63 57 63 172 c 0
450 252 m 1
 405 258 336 266 256 266 c 0
 198 266 151 232 151 171 c 0
 151 83 213 43 285 43 c 0
 392 43 436 133 450 210 c 1
 450 252 l 1
EndSplineSet
MultipleSubs2: "Latin.a.decomp subtable" uni0251 uni0308
EndChar

StartChar: aring
Encoding: 229 229 168
Width: 625
GlyphClass: 2
Flags: W
AnchorPoint: "LatinBelow.mark" 330 0 basechar 0
AnchorPoint: "LatinAbove.mark" 310 180 basechar 0
LayerCount: 2
Fore
SplineSet
310 657 m 0
 243 657 195 701 195 765 c 0
 195 829 243 873 310 873 c 0
 377 873 425 829 425 765 c 0
 425 701 377 657 310 657 c 0
310 701 m 0
 350 701 376 727 376 765 c 0
 376 803 350 829 310 829 c 0
 270 829 244 803 244 765 c 0
 244 727 270 701 310 701 c 0
63 172 m 0
 63 249 125 320 251 320 c 0
 324 320 395 314 446 308 c 1
 446 422 l 2
 446 511 384 552 300 552 c 0
 220 552 169 505 158 429 c 1
 68 435 l 1
 81 528 156 618 300 618 c 0
 442 618 533 536 533 422 c 2
 533 137 l 2
 533 77 551 53 603 47 c 1
 581 -13 l 1
 536 -8 476 14 462 89 c 1
 427 35 369 -13 275 -13 c 0
 146 -13 63 57 63 172 c 0
450 252 m 1
 405 258 336 266 256 266 c 0
 198 266 151 232 151 171 c 0
 151 83 213 43 285 43 c 0
 392 43 436 133 450 210 c 1
 450 252 l 1
EndSplineSet
MultipleSubs2: "Latin.a.decomp subtable" uni0251 uni030A
EndChar

StartChar: ae
Encoding: 230 230 169
Width: 960
GlyphClass: 2
Flags: W
AnchorPoint: "LatinBelow.mark" 480 0 basechar 0
AnchorPoint: "LatinAbove.mark" 480 0 basechar 0
LayerCount: 2
Fore
SplineSet
63 172 m 0
 63 250 120 320 244 320 c 0
 312 320 375 314 423 308 c 1
 423 422 l 2
 423 511 366 552 290 552 c 0
 214 552 169 505 158 429 c 1
 68 435 l 1
 81 528 150 618 290 618 c 0
 381 618 448 579 481 518 c 1
 517 577 575 618 664 618 c 0
 822 618 898 498 898 362 c 0
 898 338 894 311 890 287 c 1
 891 286 l 1
 890 286 l 1
 511 286 l 1
 511 143 560 46 664 46 c 0
 748 46 788 107 796 153 c 1
 884 145 l 1
 874 81 804 -18 664 -18 c 0
 563 -18 502 34 468 104 c 1
 437 41 378 -18 268 -18 c 0
 142 -18 63 54 63 172 c 0
512 344 m 1
 813 344 l 1
 814 350 814 356 814 362 c 0
 814 484 757 554 664 554 c 0
 572 554 519 470 512 344 c 1
428 252 m 1
 386 258 327 266 251 266 c 0
 193 266 151 233 151 171 c 0
 151 81 210 43 278 43 c 0
 376 43 418 128 428 207 c 1
 428 252 l 1
EndSplineSet
EndChar

StartChar: ccedilla
Encoding: 231 231 170
Width: 605
GlyphClass: 2
Flags: W
AnchorPoint: "LatinAbove.mark" 330 0 basechar 0
LayerCount: 2
Fore
SplineSet
240 -284 m 1
 304 -268 390 -240 390 -175 c 0
 390 -152 373 -130 315 -130 c 0
 299 -130 279 -133 268 -135 c 1
 240 -107 l 1
 291 -16 l 1
 115 4 63 155 63 287 c 2
 63 313 l 2
 63 455 122 618 331 618 c 0
 485 618 553 518 563 455 c 1
 473 447 l 1
 465 493 417 551 331 551 c 0
 214 551 155 456 155 313 c 2
 155 287 l 2
 155 144 214 49 331 49 c 0
 417 49 465 107 473 153 c 1
 563 145 l 1
 553 84 488 -13 342 -18 c 1
 302 -89 l 1
 309 -88 317 -88 325 -88 c 0
 403 -88 450 -119 450 -175 c 0
 450 -283 308 -314 255 -328 c 1
 240 -284 l 1
EndSplineSet
EndChar

StartChar: egrave
Encoding: 232 232 171
Width: 640
GlyphClass: 2
Flags: W
AnchorPoint: "LatinBelow.mark" 330 0 basechar 0
AnchorPoint: "LatinAbove.mark" 330 180 basechar 0
LayerCount: 2
Fore
SplineSet
180 840 m 1
 220 902 l 1
 435 734 l 1
 409 698 l 1
 180 840 l 1
63 286 m 2
 63 314 l 2
 63 456 124 618 327 618 c 0
 493 618 578 496 578 362 c 0
 578 337 576 311 571 286 c 1
 151 286 l 1
 151 144 207 47 327 47 c 0
 417 47 465 107 473 153 c 1
 560 145 l 1
 549 81 479 -18 327 -18 c 0
 121 -18 63 144 63 286 c 2
152 344 m 1
 493 344 l 1
 493 363 l 2
 493 487 425 554 327 554 c 0
 217 554 160 470 152 344 c 1
EndSplineSet
EndChar

StartChar: eacute
Encoding: 233 233 172
Width: 640
GlyphClass: 2
Flags: W
AnchorPoint: "LatinBelow.mark" 330 0 basechar 0
AnchorPoint: "LatinAbove.mark" 330 180 basechar 0
LayerCount: 2
Fore
SplineSet
480 840 m 1
 251 698 l 1
 225 734 l 1
 440 902 l 1
 480 840 l 1
63 286 m 2
 63 314 l 2
 63 456 124 618 327 618 c 0
 493 618 578 496 578 362 c 0
 578 337 576 311 571 286 c 1
 151 286 l 1
 151 144 207 47 327 47 c 0
 417 47 465 107 473 153 c 1
 560 145 l 1
 549 81 479 -18 327 -18 c 0
 121 -18 63 144 63 286 c 2
152 344 m 1
 493 344 l 1
 493 363 l 2
 493 487 425 554 327 554 c 0
 217 554 160 470 152 344 c 1
EndSplineSet
EndChar

StartChar: ecircumflex
Encoding: 234 234 173
Width: 640
GlyphClass: 2
Flags: W
AnchorPoint: "LatinBelow.mark" 330 0 basechar 0
AnchorPoint: "LatinAbove.mark" 330 180 basechar 0
LayerCount: 2
Fore
SplineSet
143 713 m 1
 318 862 l 1
 342 862 l 1
 517 713 l 1
 489 682 l 1
 330 788 l 1
 171 682 l 1
 143 713 l 1
63 286 m 2
 63 314 l 2
 63 456 124 618 327 618 c 0
 493 618 578 496 578 362 c 0
 578 337 576 311 571 286 c 1
 151 286 l 1
 151 144 207 47 327 47 c 0
 417 47 465 107 473 153 c 1
 560 145 l 1
 549 81 479 -18 327 -18 c 0
 121 -18 63 144 63 286 c 2
152 344 m 1
 493 344 l 1
 493 363 l 2
 493 487 425 554 327 554 c 0
 217 554 160 470 152 344 c 1
EndSplineSet
EndChar

StartChar: edieresis
Encoding: 235 235 174
Width: 640
GlyphClass: 2
Flags: W
AnchorPoint: "LatinBelow.mark" 330 0 basechar 0
AnchorPoint: "LatinAbove.mark" 330 180 basechar 0
LayerCount: 2
Fore
SplineSet
143 780 m 0
 143 819 173 843 211 843 c 0
 249 843 279 819 279 780 c 0
 279 741 249 717 211 717 c 0
 173 717 143 741 143 780 c 0
381 780 m 0
 381 819 411 843 449 843 c 0
 487 843 517 819 517 780 c 0
 517 741 487 717 449 717 c 0
 411 717 381 741 381 780 c 0
63 286 m 2
 63 314 l 2
 63 456 124 618 327 618 c 0
 493 618 578 496 578 362 c 0
 578 337 576 311 571 286 c 1
 151 286 l 1
 151 144 207 47 327 47 c 0
 417 47 465 107 473 153 c 1
 560 145 l 1
 549 81 479 -18 327 -18 c 0
 121 -18 63 144 63 286 c 2
152 344 m 1
 493 344 l 1
 493 363 l 2
 493 487 425 554 327 554 c 0
 217 554 160 470 152 344 c 1
EndSplineSet
EndChar

StartChar: igrave
Encoding: 236 236 175
Width: 300
GlyphClass: 2
Flags: W
AnchorPoint: "LatinBelow.mark" 150 0 basechar 0
AnchorPoint: "LatinAbove.mark" 150 180 basechar 0
LayerCount: 2
Fore
SplineSet
0 840 m 1
 40 902 l 1
 255 734 l 1
 229 698 l 1
 0 840 l 1
105 0 m 1
 105 600 l 1
 195 600 l 1
 195 0 l 1
 105 0 l 1
EndSplineSet
EndChar

StartChar: iacute
Encoding: 237 237 176
Width: 300
GlyphClass: 2
Flags: W
AnchorPoint: "LatinBelow.mark" 150 0 basechar 0
AnchorPoint: "LatinAbove.mark" 150 180 basechar 0
LayerCount: 2
Fore
SplineSet
300 840 m 1
 71 698 l 1
 45 734 l 1
 260 902 l 1
 300 840 l 1
105 0 m 1
 105 600 l 1
 195 600 l 1
 195 0 l 1
 105 0 l 1
EndSplineSet
EndChar

StartChar: icircumflex
Encoding: 238 238 177
Width: 300
GlyphClass: 2
Flags: W
AnchorPoint: "LatinBelow.mark" 150 0 basechar 0
AnchorPoint: "LatinAbove.mark" 150 180 basechar 0
LayerCount: 2
Fore
SplineSet
-37 713 m 1
 138 862 l 1
 162 862 l 1
 337 713 l 1
 309 682 l 1
 150 788 l 1
 -9 682 l 1
 -37 713 l 1
105 0 m 1
 105 600 l 1
 195 600 l 1
 195 0 l 1
 105 0 l 1
EndSplineSet
EndChar

StartChar: idieresis
Encoding: 239 239 178
Width: 300
GlyphClass: 2
Flags: W
AnchorPoint: "LatinBelow.mark" 150 0 basechar 0
AnchorPoint: "LatinAbove.mark" 150 180 basechar 0
LayerCount: 2
Fore
SplineSet
-37 780 m 0
 -37 819 -7 843 31 843 c 0
 69 843 99 819 99 780 c 0
 99 741 69 717 31 717 c 0
 -7 717 -37 741 -37 780 c 0
201 780 m 0
 201 819 231 843 269 843 c 0
 307 843 337 819 337 780 c 0
 337 741 307 717 269 717 c 0
 231 717 201 741 201 780 c 0
105 0 m 1
 105 600 l 1
 195 600 l 1
 195 0 l 1
 105 0 l 1
EndSplineSet
EndChar

StartChar: eth
Encoding: 240 240 179
Width: 660
GlyphClass: 2
Flags: W
AnchorPoint: "LatinBelow.mark" 330 0 basechar 0
AnchorPoint: "LatinAbove.mark" 350 180 basechar 0
LayerCount: 2
Fore
SplineSet
383 781 m 1
 523 816 l 1
 535 769 l 1
 425 741 l 1
 546 617 597 469 597 304 c 2
 597 277 l 2
 597 139 539 -18 330 -18 c 0
 121 -18 62 139 62 277 c 2
 62 311 l 2
 62 453 126 608 312 608 c 0
 377 608 428 580 466 541 c 1
 440 607 401 667 345 721 c 1
 137 669 l 1
 125 716 l 1
 300 760 l 1
 274 781 244 802 212 821 c 1
 262 868 l 1
 307 841 348 812 383 781 c 1
503 382 m 1
 481 462 420 541 322 541 c 0
 210 541 152 455 152 311 c 2
 152 277 l 2
 152 139 211 47 330 47 c 0
 449 47 507 139 507 277 c 2
 507 304 l 2
 507 331 505 357 503 382 c 1
EndSplineSet
EndChar

StartChar: ntilde
Encoding: 241 241 180
Width: 655
GlyphClass: 2
Flags: W
AnchorPoint: "LatinBelow.mark" 360 0 basechar 0
LayerCount: 2
Fore
SplineSet
143 737 m 1
 163 788 190 857 254 857 c 0
 304 857 332 826 354 805 c 0
 375 784 390 763 409 763 c 0
 441 763 460 824 470 850 c 1
 517 833 l 1
 499 781 470 713 407 713 c 0
 357 713 329 744 307 765 c 0
 286 786 271 807 252 807 c 0
 220 807 201 746 191 720 c 1
 143 737 l 1
92 0 m 1
 92 420 l 1
 82 595 l 1
 164 603 l 1
 180 438 l 1
 220 527 292 613 407 613 c 0
 522 613 577 525 577 421 c 2
 577 0 l 1
 487 0 l 1
 487 418 l 2
 487 506 442 541 385 541 c 0
 278 541 199 413 182 302 c 1
 182 0 l 1
 92 0 l 1
EndSplineSet
EndChar

StartChar: ograve
Encoding: 242 242 181
Width: 660
GlyphClass: 2
Flags: W
AnchorPoint: "LatinBelow.mark" 330 0 basechar 0
AnchorPoint: "LatinAbove.mark" 330 180 basechar 0
LayerCount: 2
Fore
SplineSet
180 840 m 1
 220 902 l 1
 435 734 l 1
 409 698 l 1
 180 840 l 1
62 286 m 2
 62 314 l 2
 62 456 122 618 330 618 c 0
 538 618 598 456 598 314 c 2
 598 286 l 2
 598 144 538 -18 330 -18 c 0
 122 -18 62 144 62 286 c 2
330 48 m 0
 450 48 508 143 508 286 c 2
 508 314 l 2
 508 457 450 552 330 552 c 0
 210 552 152 457 152 314 c 2
 152 286 l 2
 152 143 210 48 330 48 c 0
EndSplineSet
EndChar

StartChar: oacute
Encoding: 243 243 182
Width: 660
GlyphClass: 2
Flags: W
AnchorPoint: "LatinBelow.mark" 330 0 basechar 0
AnchorPoint: "LatinAbove.mark" 330 180 basechar 0
LayerCount: 2
Fore
SplineSet
480 840 m 1
 251 698 l 1
 225 734 l 1
 440 902 l 1
 480 840 l 1
62 286 m 2
 62 314 l 2
 62 456 122 618 330 618 c 0
 538 618 598 456 598 314 c 2
 598 286 l 2
 598 144 538 -18 330 -18 c 0
 122 -18 62 144 62 286 c 2
330 48 m 0
 450 48 508 143 508 286 c 2
 508 314 l 2
 508 457 450 552 330 552 c 0
 210 552 152 457 152 314 c 2
 152 286 l 2
 152 143 210 48 330 48 c 0
EndSplineSet
EndChar

StartChar: ocircumflex
Encoding: 244 244 183
Width: 660
GlyphClass: 2
Flags: W
AnchorPoint: "LatinBelow.mark" 330 0 basechar 0
AnchorPoint: "LatinAbove.mark" 330 180 basechar 0
LayerCount: 2
Fore
SplineSet
143 713 m 1
 318 862 l 1
 342 862 l 1
 517 713 l 1
 489 682 l 1
 330 788 l 1
 171 682 l 1
 143 713 l 1
62 286 m 2
 62 314 l 2
 62 456 122 618 330 618 c 0
 538 618 598 456 598 314 c 2
 598 286 l 2
 598 144 538 -18 330 -18 c 0
 122 -18 62 144 62 286 c 2
330 48 m 0
 450 48 508 143 508 286 c 2
 508 314 l 2
 508 457 450 552 330 552 c 0
 210 552 152 457 152 314 c 2
 152 286 l 2
 152 143 210 48 330 48 c 0
EndSplineSet
EndChar

StartChar: otilde
Encoding: 245 245 184
Width: 660
GlyphClass: 2
Flags: W
AnchorPoint: "LatinBelow.mark" 330 0 basechar 0
AnchorPoint: "LatinAbove.mark" 330 180 basechar 0
LayerCount: 2
Fore
SplineSet
143 737 m 1
 163 788 190 857 254 857 c 0
 304 857 332 826 354 805 c 0
 375 784 390 763 409 763 c 0
 441 763 460 824 470 850 c 1
 517 833 l 1
 499 781 470 713 407 713 c 0
 357 713 329 744 307 765 c 0
 286 786 271 807 252 807 c 0
 220 807 201 746 191 720 c 1
 143 737 l 1
62 286 m 2
 62 314 l 2
 62 456 122 618 330 618 c 0
 538 618 598 456 598 314 c 2
 598 286 l 2
 598 144 538 -18 330 -18 c 0
 122 -18 62 144 62 286 c 2
330 48 m 0
 450 48 508 143 508 286 c 2
 508 314 l 2
 508 457 450 552 330 552 c 0
 210 552 152 457 152 314 c 2
 152 286 l 2
 152 143 210 48 330 48 c 0
EndSplineSet
EndChar

StartChar: odieresis
Encoding: 246 246 185
Width: 660
GlyphClass: 2
Flags: W
AnchorPoint: "LatinBelow.mark" 330 0 basechar 0
AnchorPoint: "LatinAbove.mark" 330 180 basechar 0
LayerCount: 2
Fore
SplineSet
143 780 m 0
 143 819 173 843 211 843 c 0
 249 843 279 819 279 780 c 0
 279 741 249 717 211 717 c 0
 173 717 143 741 143 780 c 0
381 780 m 0
 381 819 411 843 449 843 c 0
 487 843 517 819 517 780 c 0
 517 741 487 717 449 717 c 0
 411 717 381 741 381 780 c 0
62 286 m 2
 62 314 l 2
 62 456 122 618 330 618 c 0
 538 618 598 456 598 314 c 2
 598 286 l 2
 598 144 538 -18 330 -18 c 0
 122 -18 62 144 62 286 c 2
330 48 m 0
 450 48 508 143 508 286 c 2
 508 314 l 2
 508 457 450 552 330 552 c 0
 210 552 152 457 152 314 c 2
 152 286 l 2
 152 143 210 48 330 48 c 0
EndSplineSet
EndChar

StartChar: divide
Encoding: 247 247 186
Width: 600
GlyphClass: 2
Flags: W
LayerCount: 2
Fore
SplineSet
97 328 m 1
 97 392 l 1
 503 392 l 1
 503 328 l 1
 97 328 l 1
235 225 m 0
 235 263 263 286 299 286 c 0
 335 286 365 263 365 225 c 0
 365 187 335 164 299 164 c 0
 263 164 235 187 235 225 c 0
235 495 m 0
 235 533 263 556 299 556 c 0
 335 556 365 533 365 495 c 0
 365 457 335 434 299 434 c 0
 263 434 235 457 235 495 c 0
EndSplineSet
EndChar

StartChar: oslash
Encoding: 248 248 187
Width: 660
GlyphClass: 2
Flags: W
AnchorPoint: "LatinBelow.mark" 330 0 basechar 0
AnchorPoint: "LatinAbove.mark" 330 0 basechar 0
LayerCount: 2
Fore
SplineSet
62 286 m 2
 62 314 l 2
 62 456 122 618 330 618 c 0
 407 618 464 596 505 561 c 1
 550 618 l 1
 590 590 l 1
 538 525 l 1
 582 466 598 387 598 314 c 2
 598 286 l 2
 598 144 538 -18 330 -18 c 0
 253 -18 196 5 155 40 c 1
 109 -18 l 1
 70 10 l 1
 122 76 l 1
 78 135 62 213 62 286 c 2
455 498 m 1
 426 533 384 552 330 552 c 0
 210 552 152 457 152 314 c 2
 152 286 l 2
 152 232 160 184 177 146 c 1
 455 498 l 1
482 454 m 1
 204 103 l 1
 233 68 275 48 330 48 c 0
 450 48 508 143 508 286 c 2
 508 314 l 2
 508 369 499 416 482 454 c 1
EndSplineSet
EndChar

StartChar: ugrave
Encoding: 249 249 188
Width: 620
GlyphClass: 2
Flags: W
AnchorPoint: "LatinBelow.mark" 310 0 basechar 0
AnchorPoint: "LatinAbove.mark" 310 180 basechar 0
LayerCount: 2
Fore
SplineSet
160 840 m 1
 200 902 l 1
 415 734 l 1
 389 698 l 1
 160 840 l 1
72 184 m 2
 72 600 l 1
 162 600 l 1
 162 184 l 2
 162 94 224 48 310 48 c 0
 396 48 458 94 458 184 c 2
 458 600 l 1
 548 600 l 1
 548 184 l 2
 548 69 456 -18 310 -18 c 0
 164 -18 72 69 72 184 c 2
EndSplineSet
EndChar

StartChar: uacute
Encoding: 250 250 189
Width: 620
GlyphClass: 2
Flags: W
AnchorPoint: "LatinBelow.mark" 310 0 basechar 0
AnchorPoint: "LatinAbove.mark" 310 180 basechar 0
LayerCount: 2
Fore
SplineSet
460 840 m 1
 231 698 l 1
 205 734 l 1
 420 902 l 1
 460 840 l 1
72 184 m 2
 72 600 l 1
 162 600 l 1
 162 184 l 2
 162 94 224 48 310 48 c 0
 396 48 458 94 458 184 c 2
 458 600 l 1
 548 600 l 1
 548 184 l 2
 548 69 456 -18 310 -18 c 0
 164 -18 72 69 72 184 c 2
EndSplineSet
EndChar

StartChar: ucircumflex
Encoding: 251 251 190
Width: 620
GlyphClass: 2
Flags: W
AnchorPoint: "LatinBelow.mark" 310 0 basechar 0
AnchorPoint: "LatinAbove.mark" 310 180 basechar 0
LayerCount: 2
Fore
SplineSet
123 713 m 1
 298 862 l 1
 322 862 l 1
 497 713 l 1
 469 682 l 1
 310 788 l 1
 151 682 l 1
 123 713 l 1
72 184 m 2
 72 600 l 1
 162 600 l 1
 162 184 l 2
 162 94 224 48 310 48 c 0
 396 48 458 94 458 184 c 2
 458 600 l 1
 548 600 l 1
 548 184 l 2
 548 69 456 -18 310 -18 c 0
 164 -18 72 69 72 184 c 2
EndSplineSet
EndChar

StartChar: udieresis
Encoding: 252 252 191
Width: 620
GlyphClass: 2
Flags: W
AnchorPoint: "LatinBelow.mark" 310 0 basechar 0
AnchorPoint: "LatinAbove.mark" 310 180 basechar 0
LayerCount: 2
Fore
SplineSet
123 780 m 0
 123 819 153 843 191 843 c 0
 229 843 259 819 259 780 c 0
 259 741 229 717 191 717 c 0
 153 717 123 741 123 780 c 0
361 780 m 0
 361 819 391 843 429 843 c 0
 467 843 497 819 497 780 c 0
 497 741 467 717 429 717 c 0
 391 717 361 741 361 780 c 0
72 184 m 2
 72 600 l 1
 162 600 l 1
 162 184 l 2
 162 94 224 48 310 48 c 0
 396 48 458 94 458 184 c 2
 458 600 l 1
 548 600 l 1
 548 184 l 2
 548 69 456 -18 310 -18 c 0
 164 -18 72 69 72 184 c 2
EndSplineSet
EndChar

StartChar: yacute
Encoding: 253 253 192
Width: 600
GlyphClass: 2
Flags: W
AnchorPoint: "LatinBelow.mark" 300 -180 basechar 0
AnchorPoint: "LatinAbove.mark" 300 180 basechar 0
LayerCount: 2
Fore
SplineSet
450 840 m 1
 221 698 l 1
 195 734 l 1
 410 902 l 1
 450 840 l 1
22 588 m 1
 22 593 l 1
 120 600 l 1
 299 103 l 1
 481 600 l 1
 578 593 l 1
 578 588 l 1
 328 -29 l 2
 290 -113 245 -228 138 -228 c 0
 88 -228 56 -206 32 -186 c 1
 76 -131 l 1
 94 -147 111 -165 136 -165 c 0
 184 -165 218 -96 254 -12 c 2
 261 3 l 1
 22 588 l 1
EndSplineSet
EndChar

StartChar: thorn
Encoding: 254 254 193
Width: 675
GlyphClass: 2
Flags: W
AnchorPoint: "LatinBelow.mark" 150 -180 basechar 0
AnchorPoint: "LatinAbove.mark" 135 180 basechar 0
LayerCount: 2
Fore
SplineSet
613 312 m 2
 613 288 l 2
 613 146 549 -13 363 -13 c 0
 278 -13 220 37 183 96 c 1
 183 -210 l 1
 93 -210 l 1
 93 810 l 1
 181 810 l 1
 181 506 l 1
 219 565 278 613 363 613 c 0
 549 613 613 454 613 312 c 2
183 210 m 1
 204 132 258 54 353 54 c 0
 465 54 523 144 523 288 c 2
 523 312 l 2
 523 456 465 546 353 546 c 0
 258 546 204 468 183 390 c 1
 183 210 l 1
EndSplineSet
EndChar

StartChar: ydieresis
Encoding: 255 255 194
Width: 600
GlyphClass: 2
Flags: W
AnchorPoint: "LatinBelow.mark" 300 -180 basechar 0
AnchorPoint: "LatinAbove.mark" 300 180 basechar 0
LayerCount: 2
Fore
SplineSet
113 780 m 0
 113 819 143 843 181 843 c 0
 219 843 249 819 249 780 c 0
 249 741 219 717 181 717 c 0
 143 717 113 741 113 780 c 0
351 780 m 0
 351 819 381 843 419 843 c 0
 457 843 487 819 487 780 c 0
 487 741 457 717 419 717 c 0
 381 717 351 741 351 780 c 0
22 588 m 1
 22 593 l 1
 120 600 l 1
 299 103 l 1
 481 600 l 1
 578 593 l 1
 578 588 l 1
 328 -29 l 2
 290 -113 245 -228 138 -228 c 0
 88 -228 56 -206 32 -186 c 1
 76 -131 l 1
 94 -147 111 -165 136 -165 c 0
 184 -165 218 -96 254 -12 c 2
 261 3 l 1
 22 588 l 1
EndSplineSet
EndChar

StartChar: Amacron
Encoding: 256 256 195
Width: 750
GlyphClass: 2
Flags: W
AnchorPoint: "LatinBelow.mark" 375 0 basechar 0
AnchorPoint: "LatinAbove.mark" 375 330 basechar 0
LayerCount: 2
Fore
SplineSet
188 900 m 1
 188 960 l 1
 562 960 l 1
 562 900 l 1
 188 900 l 1
727 0 m 1
 619 0 l 1
 555 176 l 1
 195 176 l 1
 131 0 l 1
 23 0 l 1
 23 6 l 1
 335 780 l 1
 415 780 l 1
 727 6 l 1
 727 0 l 1
530 244 m 1
 375 670 l 1
 220 244 l 1
 530 244 l 1
EndSplineSet
EndChar

StartChar: amacron
Encoding: 257 257 196
Width: 625
GlyphClass: 2
Flags: W
AnchorPoint: "LatinBelow.mark" 330 0 basechar 0
AnchorPoint: "LatinAbove.mark" 310 180 basechar 0
LayerCount: 2
Fore
SplineSet
123 750 m 1
 123 810 l 1
 497 810 l 1
 497 750 l 1
 123 750 l 1
63 172 m 0
 63 249 125 320 251 320 c 0
 324 320 395 314 446 308 c 1
 446 422 l 2
 446 511 384 552 300 552 c 0
 220 552 169 505 158 429 c 1
 68 435 l 1
 81 528 156 618 300 618 c 0
 442 618 533 536 533 422 c 2
 533 137 l 2
 533 77 551 53 603 47 c 1
 581 -13 l 1
 536 -8 476 14 462 89 c 1
 427 35 369 -13 275 -13 c 0
 146 -13 63 57 63 172 c 0
450 252 m 1
 405 258 336 266 256 266 c 0
 198 266 151 232 151 171 c 0
 151 83 213 43 285 43 c 0
 392 43 436 133 450 210 c 1
 450 252 l 1
EndSplineSet
MultipleSubs2: "Latin.a.decomp subtable" uni0251 uni0304
EndChar

StartChar: Abreve
Encoding: 258 258 197
Width: 750
GlyphClass: 2
Flags: W
AnchorPoint: "LatinBelow.mark" 375 0 basechar 0
AnchorPoint: "LatinAbove.mark" 375 330 basechar 0
LayerCount: 2
Fore
SplineSet
188 988 m 1
 245 1007 l 1
 257 959 287 905 375 905 c 0
 463 905 493 959 505 1007 c 1
 562 988 l 1
 544 920 492 847 375 847 c 0
 258 847 206 920 188 988 c 1
727 0 m 1
 619 0 l 1
 555 176 l 1
 195 176 l 1
 131 0 l 1
 23 0 l 1
 23 6 l 1
 335 780 l 1
 415 780 l 1
 727 6 l 1
 727 0 l 1
530 244 m 1
 375 670 l 1
 220 244 l 1
 530 244 l 1
EndSplineSet
EndChar

StartChar: abreve
Encoding: 259 259 198
Width: 625
GlyphClass: 2
Flags: W
AnchorPoint: "LatinBelow.mark" 330 0 basechar 0
AnchorPoint: "LatinAbove.mark" 310 180 basechar 0
LayerCount: 2
Fore
SplineSet
123 838 m 1
 180 857 l 1
 192 809 222 755 310 755 c 0
 398 755 428 809 440 857 c 1
 497 838 l 1
 479 770 427 697 310 697 c 0
 193 697 141 770 123 838 c 1
63 172 m 0
 63 249 125 320 251 320 c 0
 324 320 395 314 446 308 c 1
 446 422 l 2
 446 511 384 552 300 552 c 0
 220 552 169 505 158 429 c 1
 68 435 l 1
 81 528 156 618 300 618 c 0
 442 618 533 536 533 422 c 2
 533 137 l 2
 533 77 551 53 603 47 c 1
 581 -13 l 1
 536 -8 476 14 462 89 c 1
 427 35 369 -13 275 -13 c 0
 146 -13 63 57 63 172 c 0
450 252 m 1
 405 258 336 266 256 266 c 0
 198 266 151 232 151 171 c 0
 151 83 213 43 285 43 c 0
 392 43 436 133 450 210 c 1
 450 252 l 1
EndSplineSet
MultipleSubs2: "Latin.a.decomp subtable" uni0251 uni0306
EndChar

StartChar: Aogonek
Encoding: 260 260 199
Width: 750
GlyphClass: 2
Flags: W
AnchorPoint: "LatinAbove.mark" 375 150 basechar 0
LayerCount: 2
Fore
SplineSet
530 244 m 1
 375 670 l 1
 220 244 l 1
 530 244 l 1
646 0 m 1
 619 0 l 1
 555 176 l 1
 195 176 l 1
 131 0 l 1
 23 0 l 1
 23 6 l 1
 335 780 l 1
 415 780 l 1
 727 6 l 1
 727 0 l 1
 701 0 l 1
 674 -32 652 -75 652 -135 c 0
 652 -184 678 -204 712 -204 c 0
 740 -204 764 -195 776 -188 c 1
 792 -232 l 1
 767 -245 738 -252 702 -252 c 0
 630 -252 592 -207 592 -142 c 0
 592 -81 617 -36 646 0 c 1
EndSplineSet
EndChar

StartChar: aogonek
Encoding: 261 261 200
Width: 625
GlyphClass: 2
Flags: W
AnchorPoint: "LatinAbove.mark" 310 0 basechar 0
LayerCount: 2
Fore
SplineSet
450 252 m 1
 405 258 336 266 256 266 c 0
 198 266 151 232 151 171 c 0
 151 83 213 43 285 43 c 0
 392 43 436 133 450 210 c 1
 450 252 l 1
63 172 m 0
 63 249 125 320 251 320 c 0
 324 320 395 314 446 308 c 1
 446 422 l 2
 446 511 384 552 300 552 c 0
 220 552 169 505 158 429 c 1
 68 435 l 1
 81 528 156 618 300 618 c 0
 442 618 533 536 533 422 c 2
 533 137 l 2
 533 77 551 53 603 47 c 1
 581 -13 l 1
 569 -12 556 -10 543 -5 c 1
 517 -37 497 -77 497 -135 c 0
 497 -184 523 -204 557 -204 c 0
 585 -204 609 -195 621 -188 c 1
 637 -232 l 1
 612 -245 583 -252 547 -252 c 0
 475 -252 437 -207 437 -142 c 0
 437 -72 470 -22 505 16 c 1
 485 32 468 54 462 89 c 1
 427 35 369 -13 275 -13 c 0
 146 -13 63 57 63 172 c 0
EndSplineSet
MultipleSubs2: "Latin.a.decomp subtable" uni0251 uni0328
EndChar

StartChar: Cacute
Encoding: 262 262 201
Width: 755
GlyphClass: 2
Flags: W
AnchorPoint: "LatinBelow.mark" 410 0 basechar 0
LayerCount: 2
Fore
SplineSet
560 990 m 1
 331 848 l 1
 305 884 l 1
 520 1052 l 1
 560 990 l 1
68 405 m 2
 68 593 149 797 413 797 c 0
 607 797 694 671 708 591 c 1
 610 581 l 1
 598 642 535 724 413 724 c 0
 245 724 168 592 168 405 c 2
 168 373 l 2
 168 186 245 54 413 54 c 0
 535 54 598 136 610 197 c 1
 708 187 l 1
 694 107 607 -19 413 -19 c 0
 149 -19 68 185 68 373 c 2
 68 405 l 2
EndSplineSet
EndChar

StartChar: cacute
Encoding: 263 263 202
Width: 605
GlyphClass: 2
Flags: W
AnchorPoint: "LatinBelow.mark" 330 0 basechar 0
LayerCount: 2
Fore
SplineSet
480 840 m 1
 251 698 l 1
 225 734 l 1
 440 902 l 1
 480 840 l 1
63 287 m 2
 63 313 l 2
 63 455 122 618 331 618 c 0
 485 618 553 518 563 455 c 1
 473 447 l 1
 465 493 417 551 331 551 c 0
 214 551 155 456 155 313 c 2
 155 287 l 2
 155 144 214 49 331 49 c 0
 417 49 465 107 473 153 c 1
 563 145 l 1
 553 82 485 -18 331 -18 c 0
 122 -18 63 145 63 287 c 2
EndSplineSet
EndChar

StartChar: Ccircumflex
Encoding: 264 264 203
Width: 755
GlyphClass: 2
Flags: W
AnchorPoint: "LatinBelow.mark" 410 0 basechar 0
LayerCount: 2
Fore
SplineSet
223 863 m 1
 398 1012 l 1
 422 1012 l 1
 597 863 l 1
 569 832 l 1
 410 938 l 1
 251 832 l 1
 223 863 l 1
68 405 m 2
 68 593 149 797 413 797 c 0
 607 797 694 671 708 591 c 1
 610 581 l 1
 598 642 535 724 413 724 c 0
 245 724 168 592 168 405 c 2
 168 373 l 2
 168 186 245 54 413 54 c 0
 535 54 598 136 610 197 c 1
 708 187 l 1
 694 107 607 -19 413 -19 c 0
 149 -19 68 185 68 373 c 2
 68 405 l 2
EndSplineSet
EndChar

StartChar: ccircumflex
Encoding: 265 265 204
Width: 605
GlyphClass: 2
Flags: W
AnchorPoint: "LatinBelow.mark" 330 0 basechar 0
LayerCount: 2
Fore
SplineSet
143 713 m 1
 318 862 l 1
 342 862 l 1
 517 713 l 1
 489 682 l 1
 330 788 l 1
 171 682 l 1
 143 713 l 1
63 287 m 2
 63 313 l 2
 63 455 122 618 331 618 c 0
 485 618 553 518 563 455 c 1
 473 447 l 1
 465 493 417 551 331 551 c 0
 214 551 155 456 155 313 c 2
 155 287 l 2
 155 144 214 49 331 49 c 0
 417 49 465 107 473 153 c 1
 563 145 l 1
 553 82 485 -18 331 -18 c 0
 122 -18 63 145 63 287 c 2
EndSplineSet
EndChar

StartChar: Cdotaccent
Encoding: 266 266 205
Width: 755
GlyphClass: 2
Flags: W
AnchorPoint: "LatinBelow.mark" 410 0 basechar 0
LayerCount: 2
Fore
SplineSet
410 998 m 0
 451 998 482 972 482 930 c 0
 482 888 451 862 410 862 c 0
 369 862 338 888 338 930 c 0
 338 972 369 998 410 998 c 0
68 405 m 2
 68 593 149 797 413 797 c 0
 607 797 694 671 708 591 c 1
 610 581 l 1
 598 642 535 724 413 724 c 0
 245 724 168 592 168 405 c 2
 168 373 l 2
 168 186 245 54 413 54 c 0
 535 54 598 136 610 197 c 1
 708 187 l 1
 694 107 607 -19 413 -19 c 0
 149 -19 68 185 68 373 c 2
 68 405 l 2
EndSplineSet
EndChar

StartChar: cdotaccent
Encoding: 267 267 206
Width: 605
GlyphClass: 2
Flags: W
AnchorPoint: "LatinBelow.mark" 330 0 basechar 0
LayerCount: 2
Fore
SplineSet
330 848 m 0
 371 848 402 822 402 780 c 0
 402 738 371 712 330 712 c 0
 289 712 258 738 258 780 c 0
 258 822 289 848 330 848 c 0
63 287 m 2
 63 313 l 2
 63 455 122 618 331 618 c 0
 485 618 553 518 563 455 c 1
 473 447 l 1
 465 493 417 551 331 551 c 0
 214 551 155 456 155 313 c 2
 155 287 l 2
 155 144 214 49 331 49 c 0
 417 49 465 107 473 153 c 1
 563 145 l 1
 553 82 485 -18 331 -18 c 0
 122 -18 63 145 63 287 c 2
EndSplineSet
EndChar

StartChar: Ccaron
Encoding: 268 268 207
Width: 755
GlyphClass: 2
Flags: W
AnchorPoint: "LatinBelow.mark" 410 0 basechar 0
LayerCount: 2
Fore
SplineSet
597 992 m 1
 422 843 l 1
 398 843 l 1
 223 992 l 1
 251 1023 l 1
 410 917 l 1
 569 1023 l 1
 597 992 l 1
68 405 m 2
 68 593 149 797 413 797 c 0
 607 797 694 671 708 591 c 1
 610 581 l 1
 598 642 535 724 413 724 c 0
 245 724 168 592 168 405 c 2
 168 373 l 2
 168 186 245 54 413 54 c 0
 535 54 598 136 610 197 c 1
 708 187 l 1
 694 107 607 -19 413 -19 c 0
 149 -19 68 185 68 373 c 2
 68 405 l 2
EndSplineSet
EndChar

StartChar: ccaron
Encoding: 269 269 208
Width: 605
GlyphClass: 2
Flags: W
AnchorPoint: "LatinBelow.mark" 330 0 basechar 0
LayerCount: 2
Fore
SplineSet
517 842 m 1
 342 693 l 1
 318 693 l 1
 143 842 l 1
 171 873 l 1
 330 767 l 1
 489 873 l 1
 517 842 l 1
63 287 m 2
 63 313 l 2
 63 455 122 618 331 618 c 0
 485 618 553 518 563 455 c 1
 473 447 l 1
 465 493 417 551 331 551 c 0
 214 551 155 456 155 313 c 2
 155 287 l 2
 155 144 214 49 331 49 c 0
 417 49 465 107 473 153 c 1
 563 145 l 1
 553 82 485 -18 331 -18 c 0
 122 -18 63 145 63 287 c 2
EndSplineSet
EndChar

StartChar: Dcaron
Encoding: 270 270 209
Width: 770
GlyphClass: 2
Flags: W
AnchorPoint: "LatinBelow.mark" 320 0 basechar 0
LayerCount: 2
Fore
SplineSet
507 992 m 1
 332 843 l 1
 308 843 l 1
 133 992 l 1
 161 1023 l 1
 320 917 l 1
 479 1023 l 1
 507 992 l 1
193 64 m 1
 223 63 262 61 290 61 c 0
 524 61 608 195 608 374 c 2
 608 406 l 2
 608 585 524 719 290 719 c 0
 262 719 223 717 193 716 c 1
 193 64 l 1
98 780 m 1
 98 780 206 789 290 789 c 0
 599 789 703 596 703 406 c 2
 703 374 l 2
 703 184 599 -9 290 -9 c 0
 206 -9 98 0 98 0 c 1
 98 780 l 1
EndSplineSet
EndChar

StartChar: dcaron
Encoding: 271 271 210
Width: 890
GlyphClass: 2
Flags: W
AnchorPoint: "LatinBelow.mark" 360 0 basechar 0
AnchorPoint: "LatinAbove.mark" 525 180 basechar 0
LayerCount: 2
Fore
SplineSet
810 710 m 1
 801 705 789 703 777 703 c 0
 741 703 715 725 715 761 c 0
 715 801 739 829 783 829 c 0
 845 829 865 779 865 735 c 0
 865 640 798 581 746 559 c 1
 723 591 l 1
 759 607 802 649 810 710 c 1
62 288 m 2
 62 312 l 2
 62 454 126 613 312 613 c 0
 400 613 458 561 495 500 c 1
 495 810 l 1
 582 810 l 1
 582 137 l 2
 582 77 600 53 652 47 c 1
 630 -13 l 1
 581 -7 510 18 506 114 c 1
 468 47 406 -13 312 -13 c 0
 126 -13 62 146 62 288 c 2
495 378 m 1
 476 460 422 546 322 546 c 0
 210 546 152 456 152 312 c 2
 152 288 l 2
 152 144 210 54 322 54 c 0
 422 54 476 140 495 222 c 1
 495 378 l 1
EndSplineSet
EndChar

StartChar: Dcroat
Encoding: 272 272 211
Width: 770
GlyphClass: 2
Flags: W
AnchorPoint: "LatinBelow.mark" 320 0 basechar 0
AnchorPoint: "LatinAbove.mark" 320 150 basechar 0
LayerCount: 2
Fore
SplineSet
13 363 m 1
 13 417 l 1
 98 417 l 1
 98 780 l 1
 98 780 206 789 290 789 c 0
 599 789 703 596 703 406 c 2
 703 374 l 2
 703 184 599 -9 290 -9 c 0
 206 -9 98 0 98 0 c 1
 98 363 l 1
 13 363 l 1
193 64 m 1
 223 63 262 61 290 61 c 0
 524 61 608 195 608 374 c 2
 608 406 l 2
 608 585 524 719 290 719 c 0
 262 719 223 717 193 716 c 1
 193 417 l 1
 403 417 l 1
 403 363 l 1
 193 363 l 1
 193 64 l 1
EndSplineSet
EndChar

StartChar: dcroat
Encoding: 273 273 212
Width: 680
GlyphClass: 2
Flags: W
AnchorPoint: "LatinBelow.mark" 360 0 basechar 0
AnchorPoint: "LatinAbove.mark" 525 180 basechar 0
LayerCount: 2
Fore
SplineSet
322 693 m 1
 322 747 l 1
 495 747 l 1
 495 810 l 1
 582 810 l 1
 582 747 l 1
 652 747 l 1
 652 693 l 1
 582 693 l 1
 582 137 l 2
 582 77 600 53 652 47 c 1
 630 -13 l 1
 581 -7 510 18 506 114 c 1
 468 47 406 -13 312 -13 c 0
 126 -13 62 146 62 288 c 2
 62 312 l 2
 62 454 126 613 312 613 c 0
 400 613 458 561 495 500 c 1
 495 693 l 1
 322 693 l 1
495 378 m 1
 476 460 422 546 322 546 c 0
 210 546 152 456 152 312 c 2
 152 288 l 2
 152 144 210 54 322 54 c 0
 422 54 476 140 495 222 c 1
 495 378 l 1
EndSplineSet
EndChar

StartChar: Emacron
Encoding: 274 274 213
Width: 675
GlyphClass: 2
Flags: W
AnchorPoint: "LatinBelow.mark" 350 0 basechar 0
AnchorPoint: "LatinAbove.mark" 350 330 basechar 0
LayerCount: 2
Fore
SplineSet
163 900 m 1
 163 960 l 1
 537 960 l 1
 537 900 l 1
 163 900 l 1
98 0 m 1
 98 780 l 1
 598 780 l 1
 598 706 l 1
 194 706 l 1
 194 420 l 1
 564 420 l 1
 564 350 l 1
 194 350 l 1
 194 74 l 1
 613 74 l 1
 613 0 l 1
 98 0 l 1
EndSplineSet
EndChar

StartChar: emacron
Encoding: 275 275 214
Width: 640
GlyphClass: 2
Flags: W
AnchorPoint: "LatinBelow.mark" 330 0 basechar 0
AnchorPoint: "LatinAbove.mark" 330 180 basechar 0
LayerCount: 2
Fore
SplineSet
143 750 m 1
 143 810 l 1
 517 810 l 1
 517 750 l 1
 143 750 l 1
63 286 m 2
 63 314 l 2
 63 456 124 618 327 618 c 0
 493 618 578 496 578 362 c 0
 578 337 576 311 571 286 c 1
 151 286 l 1
 151 144 207 47 327 47 c 0
 417 47 465 107 473 153 c 1
 560 145 l 1
 549 81 479 -18 327 -18 c 0
 121 -18 63 144 63 286 c 2
152 344 m 1
 493 344 l 1
 493 363 l 2
 493 487 425 554 327 554 c 0
 217 554 160 470 152 344 c 1
EndSplineSet
EndChar

StartChar: Ebreve
Encoding: 276 276 215
Width: 675
GlyphClass: 2
Flags: W
AnchorPoint: "LatinBelow.mark" 350 0 basechar 0
AnchorPoint: "LatinAbove.mark" 350 330 basechar 0
LayerCount: 2
Fore
SplineSet
163 988 m 1
 220 1007 l 1
 232 959 262 905 350 905 c 0
 438 905 468 959 480 1007 c 1
 537 988 l 1
 519 920 467 847 350 847 c 0
 233 847 181 920 163 988 c 1
98 0 m 1
 98 780 l 1
 598 780 l 1
 598 706 l 1
 194 706 l 1
 194 420 l 1
 564 420 l 1
 564 350 l 1
 194 350 l 1
 194 74 l 1
 613 74 l 1
 613 0 l 1
 98 0 l 1
EndSplineSet
EndChar

StartChar: ebreve
Encoding: 277 277 216
Width: 640
GlyphClass: 2
Flags: W
AnchorPoint: "LatinBelow.mark" 330 0 basechar 0
AnchorPoint: "LatinAbove.mark" 330 180 basechar 0
LayerCount: 2
Fore
SplineSet
143 838 m 1
 200 857 l 1
 212 809 242 755 330 755 c 0
 418 755 448 809 460 857 c 1
 517 838 l 1
 499 770 447 697 330 697 c 0
 213 697 161 770 143 838 c 1
63 286 m 2
 63 314 l 2
 63 456 124 618 327 618 c 0
 493 618 578 496 578 362 c 0
 578 337 576 311 571 286 c 1
 151 286 l 1
 151 144 207 47 327 47 c 0
 417 47 465 107 473 153 c 1
 560 145 l 1
 549 81 479 -18 327 -18 c 0
 121 -18 63 144 63 286 c 2
152 344 m 1
 493 344 l 1
 493 363 l 2
 493 487 425 554 327 554 c 0
 217 554 160 470 152 344 c 1
EndSplineSet
EndChar

StartChar: Edotaccent
Encoding: 278 278 217
Width: 675
GlyphClass: 2
Flags: W
AnchorPoint: "LatinBelow.mark" 350 0 basechar 0
AnchorPoint: "LatinAbove.mark" 350 330 basechar 0
LayerCount: 2
Fore
SplineSet
350 998 m 0
 391 998 422 972 422 930 c 0
 422 888 391 862 350 862 c 0
 309 862 278 888 278 930 c 0
 278 972 309 998 350 998 c 0
98 0 m 1
 98 780 l 1
 598 780 l 1
 598 706 l 1
 194 706 l 1
 194 420 l 1
 564 420 l 1
 564 350 l 1
 194 350 l 1
 194 74 l 1
 613 74 l 1
 613 0 l 1
 98 0 l 1
EndSplineSet
EndChar

StartChar: edotaccent
Encoding: 279 279 218
Width: 640
GlyphClass: 2
Flags: W
AnchorPoint: "LatinBelow.mark" 330 0 basechar 0
AnchorPoint: "LatinAbove.mark" 330 180 basechar 0
LayerCount: 2
Fore
SplineSet
330 848 m 0
 371 848 402 822 402 780 c 0
 402 738 371 712 330 712 c 0
 289 712 258 738 258 780 c 0
 258 822 289 848 330 848 c 0
63 286 m 2
 63 314 l 2
 63 456 124 618 327 618 c 0
 493 618 578 496 578 362 c 0
 578 337 576 311 571 286 c 1
 151 286 l 1
 151 144 207 47 327 47 c 0
 417 47 465 107 473 153 c 1
 560 145 l 1
 549 81 479 -18 327 -18 c 0
 121 -18 63 144 63 286 c 2
152 344 m 1
 493 344 l 1
 493 363 l 2
 493 487 425 554 327 554 c 0
 217 554 160 470 152 344 c 1
EndSplineSet
EndChar

StartChar: Eogonek
Encoding: 280 280 219
Width: 675
GlyphClass: 2
Flags: W
AnchorPoint: "LatinAbove.mark" 350 150 basechar 0
LayerCount: 2
Fore
SplineSet
98 0 m 1
 98 780 l 1
 598 780 l 1
 598 706 l 1
 194 706 l 1
 194 420 l 1
 564 420 l 1
 564 350 l 1
 194 350 l 1
 194 74 l 1
 613 74 l 1
 613 0 l 1
 576 0 l 1
 549 -32 527 -75 527 -135 c 0
 527 -184 553 -204 587 -204 c 0
 615 -204 639 -195 651 -188 c 1
 667 -232 l 1
 642 -245 613 -252 577 -252 c 0
 505 -252 467 -207 467 -142 c 0
 467 -81 492 -36 521 0 c 1
 98 0 l 1
EndSplineSet
EndChar

StartChar: eogonek
Encoding: 281 281 220
Width: 640
GlyphClass: 2
Flags: W
AnchorPoint: "LatinAbove.mark" 330 0 basechar 0
LayerCount: 2
Fore
SplineSet
152 344 m 1
 493 344 l 1
 493 363 l 2
 493 487 425 554 327 554 c 0
 217 554 160 470 152 344 c 1
63 286 m 2
 63 314 l 2
 63 456 124 618 327 618 c 0
 493 618 578 496 578 362 c 0
 578 337 576 311 571 286 c 1
 151 286 l 1
 151 144 207 47 327 47 c 0
 417 47 465 107 473 153 c 1
 560 145 l 1
 553 101 517 42 448 8 c 1
 418 -26 392 -70 392 -135 c 0
 392 -184 418 -204 452 -204 c 0
 480 -204 504 -195 516 -188 c 1
 532 -232 l 1
 507 -245 478 -252 442 -252 c 0
 370 -252 332 -207 332 -142 c 0
 332 -89 351 -47 375 -14 c 1
 360 -16 344 -18 327 -18 c 0
 121 -18 63 144 63 286 c 2
EndSplineSet
EndChar

StartChar: Ecaron
Encoding: 282 282 221
Width: 675
GlyphClass: 2
Flags: W
AnchorPoint: "LatinBelow.mark" 350 0 basechar 0
AnchorPoint: "LatinAbove.mark" 350 330 basechar 0
LayerCount: 2
Fore
SplineSet
537 992 m 1
 362 843 l 1
 338 843 l 1
 163 992 l 1
 191 1023 l 1
 350 917 l 1
 509 1023 l 1
 537 992 l 1
98 0 m 1
 98 780 l 1
 598 780 l 1
 598 706 l 1
 194 706 l 1
 194 420 l 1
 564 420 l 1
 564 350 l 1
 194 350 l 1
 194 74 l 1
 613 74 l 1
 613 0 l 1
 98 0 l 1
EndSplineSet
EndChar

StartChar: ecaron
Encoding: 283 283 222
Width: 640
GlyphClass: 2
Flags: W
AnchorPoint: "LatinBelow.mark" 330 0 basechar 0
AnchorPoint: "LatinAbove.mark" 330 180 basechar 0
LayerCount: 2
Fore
SplineSet
517 842 m 1
 342 693 l 1
 318 693 l 1
 143 842 l 1
 171 873 l 1
 330 767 l 1
 489 873 l 1
 517 842 l 1
63 286 m 2
 63 314 l 2
 63 456 124 618 327 618 c 0
 493 618 578 496 578 362 c 0
 578 337 576 311 571 286 c 1
 151 286 l 1
 151 144 207 47 327 47 c 0
 417 47 465 107 473 153 c 1
 560 145 l 1
 549 81 479 -18 327 -18 c 0
 121 -18 63 144 63 286 c 2
152 344 m 1
 493 344 l 1
 493 363 l 2
 493 487 425 554 327 554 c 0
 217 554 160 470 152 344 c 1
EndSplineSet
EndChar

StartChar: Gcircumflex
Encoding: 284 284 223
Width: 770
GlyphClass: 2
Flags: W
AnchorPoint: "LatinBelow.mark" 410 0 basechar 0
LayerCount: 2
Fore
SplineSet
223 863 m 1
 398 1012 l 1
 422 1012 l 1
 597 863 l 1
 569 832 l 1
 410 938 l 1
 251 832 l 1
 223 863 l 1
422 311 m 1
 422 379 l 1
 703 379 l 1
 703 138 l 1
 673 74 585 -18 413 -18 c 0
 149 -18 68 185 68 373 c 2
 68 407 l 2
 68 595 149 798 413 798 c 0
 607 798 694 672 708 592 c 1
 611 583 l 1
 599 644 537 726 413 726 c 0
 243 726 166 596 166 407 c 2
 166 373 l 2
 166 184 243 54 413 54 c 0
 531 54 588 103 616 147 c 1
 616 311 l 1
 422 311 l 1
EndSplineSet
EndChar

StartChar: gcircumflex
Encoding: 285 285 224
Width: 670
GlyphClass: 2
Flags: W
AnchorPoint: "LatinBelow.mark" 360 -180 basechar 0
LayerCount: 2
Fore
SplineSet
173 713 m 1
 348 862 l 1
 372 862 l 1
 547 713 l 1
 519 682 l 1
 360 788 l 1
 201 682 l 1
 173 713 l 1
62 315 m 0
 62 451 126 613 312 613 c 0
 402 613 461 557 498 493 c 1
 505 600 l 1
 582 600 l 1
 582 -31 l 2
 582 -146 490 -228 348 -228 c 0
 208 -228 132 -159 117 -113 c 1
 201 -90 l 1
 210 -118 256 -165 348 -165 c 0
 436 -165 497 -121 497 -31 c 2
 497 136 l 1
 460 72 401 17 312 17 c 0
 126 17 62 179 62 315 c 0
495 375 m 1
 476 457 422 547 322 547 c 0
 210 547 152 453 152 315 c 0
 152 177 210 83 322 83 c 0
 422 83 476 173 495 255 c 1
 495 375 l 1
EndSplineSet
MultipleSubs2: "Latin.g.decomp subtable" g.alt uni0302
EndChar

StartChar: Gbreve
Encoding: 286 286 225
Width: 770
GlyphClass: 2
Flags: W
AnchorPoint: "LatinBelow.mark" 410 0 basechar 0
LayerCount: 2
Fore
SplineSet
223 988 m 1
 280 1007 l 1
 292 959 322 905 410 905 c 0
 498 905 528 959 540 1007 c 1
 597 988 l 1
 579 920 527 847 410 847 c 0
 293 847 241 920 223 988 c 1
422 311 m 1
 422 379 l 1
 703 379 l 1
 703 138 l 1
 673 74 585 -18 413 -18 c 0
 149 -18 68 185 68 373 c 2
 68 407 l 2
 68 595 149 798 413 798 c 0
 607 798 694 672 708 592 c 1
 611 583 l 1
 599 644 537 726 413 726 c 0
 243 726 166 596 166 407 c 2
 166 373 l 2
 166 184 243 54 413 54 c 0
 531 54 588 103 616 147 c 1
 616 311 l 1
 422 311 l 1
EndSplineSet
EndChar

StartChar: gbreve
Encoding: 287 287 226
Width: 670
GlyphClass: 2
Flags: W
AnchorPoint: "LatinBelow.mark" 360 -180 basechar 0
LayerCount: 2
Fore
SplineSet
173 838 m 1
 230 857 l 1
 242 809 272 755 360 755 c 0
 448 755 478 809 490 857 c 1
 547 838 l 1
 529 770 477 697 360 697 c 0
 243 697 191 770 173 838 c 1
62 315 m 0
 62 451 126 613 312 613 c 0
 402 613 461 557 498 493 c 1
 505 600 l 1
 582 600 l 1
 582 -31 l 2
 582 -146 490 -228 348 -228 c 0
 208 -228 132 -159 117 -113 c 1
 201 -90 l 1
 210 -118 256 -165 348 -165 c 0
 436 -165 497 -121 497 -31 c 2
 497 136 l 1
 460 72 401 17 312 17 c 0
 126 17 62 179 62 315 c 0
495 375 m 1
 476 457 422 547 322 547 c 0
 210 547 152 453 152 315 c 0
 152 177 210 83 322 83 c 0
 422 83 476 173 495 255 c 1
 495 375 l 1
EndSplineSet
MultipleSubs2: "Latin.g.decomp subtable" g.alt uni0306
EndChar

StartChar: Gdotaccent
Encoding: 288 288 227
Width: 770
GlyphClass: 2
Flags: W
AnchorPoint: "LatinBelow.mark" 410 0 basechar 0
LayerCount: 2
Fore
SplineSet
410 998 m 0
 451 998 482 972 482 930 c 0
 482 888 451 862 410 862 c 0
 369 862 338 888 338 930 c 0
 338 972 369 998 410 998 c 0
422 311 m 1
 422 379 l 1
 703 379 l 1
 703 138 l 1
 673 74 585 -18 413 -18 c 0
 149 -18 68 185 68 373 c 2
 68 407 l 2
 68 595 149 798 413 798 c 0
 607 798 694 672 708 592 c 1
 611 583 l 1
 599 644 537 726 413 726 c 0
 243 726 166 596 166 407 c 2
 166 373 l 2
 166 184 243 54 413 54 c 0
 531 54 588 103 616 147 c 1
 616 311 l 1
 422 311 l 1
EndSplineSet
EndChar

StartChar: gdotaccent
Encoding: 289 289 228
Width: 670
GlyphClass: 2
Flags: W
AnchorPoint: "LatinBelow.mark" 360 -180 basechar 0
LayerCount: 2
Fore
SplineSet
360 848 m 0
 401 848 432 822 432 780 c 0
 432 738 401 712 360 712 c 0
 319 712 288 738 288 780 c 0
 288 822 319 848 360 848 c 0
62 315 m 0
 62 451 126 613 312 613 c 0
 402 613 461 557 498 493 c 1
 505 600 l 1
 582 600 l 1
 582 -31 l 2
 582 -146 490 -228 348 -228 c 0
 208 -228 132 -159 117 -113 c 1
 201 -90 l 1
 210 -118 256 -165 348 -165 c 0
 436 -165 497 -121 497 -31 c 2
 497 136 l 1
 460 72 401 17 312 17 c 0
 126 17 62 179 62 315 c 0
495 375 m 1
 476 457 422 547 322 547 c 0
 210 547 152 453 152 315 c 0
 152 177 210 83 322 83 c 0
 422 83 476 173 495 255 c 1
 495 375 l 1
EndSplineSet
MultipleSubs2: "Latin.g.decomp subtable" g.alt uni0307
EndChar

StartChar: uni0122
Encoding: 290 290 229
Width: 770
GlyphClass: 2
Flags: W
AnchorPoint: "LatinAbove.mark" 410 150 basechar 0
LayerCount: 2
Fore
SplineSet
425 -190 m 1
 416 -195 404 -197 392 -197 c 0
 356 -197 330 -175 330 -139 c 0
 330 -99 354 -71 398 -71 c 0
 460 -71 480 -121 480 -165 c 0
 480 -260 413 -319 361 -341 c 1
 338 -309 l 1
 374 -293 417 -251 425 -190 c 1
422 311 m 1
 422 379 l 1
 703 379 l 1
 703 138 l 1
 673 74 585 -18 413 -18 c 0
 149 -18 68 185 68 373 c 2
 68 407 l 2
 68 595 149 798 413 798 c 0
 607 798 694 672 708 592 c 1
 611 583 l 1
 599 644 537 726 413 726 c 0
 243 726 166 596 166 407 c 2
 166 373 l 2
 166 184 243 54 413 54 c 0
 531 54 588 103 616 147 c 1
 616 311 l 1
 422 311 l 1
EndSplineSet
EndChar

StartChar: uni0123
Encoding: 291 291 230
Width: 670
GlyphClass: 2
Flags: W
AnchorPoint: "LatinBelow.mark" 360 -180 basechar 0
LayerCount: 2
Fore
SplineSet
345 820 m 1
 354 825 366 827 378 827 c 0
 414 827 440 805 440 769 c 0
 440 729 416 701 372 701 c 0
 310 701 290 751 290 795 c 0
 290 890 357 949 409 971 c 1
 432 939 l 1
 396 923 353 881 345 820 c 1
62 315 m 0
 62 451 126 613 312 613 c 0
 402 613 461 557 498 493 c 1
 505 600 l 1
 582 600 l 1
 582 -31 l 2
 582 -146 490 -228 348 -228 c 0
 208 -228 132 -159 117 -113 c 1
 201 -90 l 1
 210 -118 256 -165 348 -165 c 0
 436 -165 497 -121 497 -31 c 2
 497 136 l 1
 460 72 401 17 312 17 c 0
 126 17 62 179 62 315 c 0
495 375 m 1
 476 457 422 547 322 547 c 0
 210 547 152 453 152 315 c 0
 152 177 210 83 322 83 c 0
 422 83 476 173 495 255 c 1
 495 375 l 1
EndSplineSet
MultipleSubs2: "Latin.g.decomp subtable" g.alt uni0312
EndChar

StartChar: Hcircumflex
Encoding: 292 292 231
Width: 790
GlyphClass: 2
Flags: W
AnchorPoint: "LatinBelow.mark" 395 0 basechar 0
LayerCount: 2
Fore
SplineSet
208 863 m 1
 383 1012 l 1
 407 1012 l 1
 582 863 l 1
 554 832 l 1
 395 938 l 1
 236 832 l 1
 208 863 l 1
97 0 m 1
 97 780 l 1
 193 780 l 1
 193 427 l 1
 597 427 l 1
 597 780 l 1
 693 780 l 1
 693 0 l 1
 597 0 l 1
 597 353 l 1
 193 353 l 1
 193 0 l 1
 97 0 l 1
EndSplineSet
EndChar

StartChar: hcircumflex
Encoding: 293 293 232
Width: 665
GlyphClass: 2
Flags: W
AnchorPoint: "LatinBelow.mark" 360 0 basechar 0
LayerCount: 2
Fore
SplineSet
-52 893 m 1
 123 1042 l 1
 147 1042 l 1
 322 893 l 1
 294 862 l 1
 135 968 l 1
 -24 862 l 1
 -52 893 l 1
93 0 m 1
 93 810 l 1
 181 810 l 1
 181 433 l 1
 223 524 298 613 416 613 c 0
 534 613 588 525 588 421 c 2
 588 0 l 1
 498 0 l 1
 498 418 l 2
 498 506 453 541 393 541 c 0
 284 541 200 412 183 301 c 1
 183 0 l 1
 93 0 l 1
EndSplineSet
EndChar

StartChar: Hbar
Encoding: 294 294 233
Width: 790
GlyphClass: 2
Flags: W
AnchorPoint: "LatinBelow.mark" 395 0 basechar 0
AnchorPoint: "LatinAbove.mark" 395 150 basechar 0
LayerCount: 2
Fore
SplineSet
27 633 m 1
 27 687 l 1
 97 687 l 1
 97 780 l 1
 193 780 l 1
 193 687 l 1
 597 687 l 1
 597 780 l 1
 693 780 l 1
 693 687 l 1
 763 687 l 1
 763 633 l 1
 693 633 l 1
 693 0 l 1
 597 0 l 1
 597 353 l 1
 193 353 l 1
 193 0 l 1
 97 0 l 1
 97 633 l 1
 27 633 l 1
597 633 m 1
 193 633 l 1
 193 427 l 1
 597 427 l 1
 597 633 l 1
EndSplineSet
EndChar

StartChar: hbar
Encoding: 295 295 234
Width: 665
GlyphClass: 2
Flags: W
AnchorPoint: "LatinBelow.mark" 360 0 basechar 0
LayerCount: 2
Fore
SplineSet
23 693 m 1
 23 747 l 1
 93 747 l 1
 93 810 l 1
 181 810 l 1
 181 747 l 1
 353 747 l 1
 353 693 l 1
 181 693 l 1
 181 433 l 1
 223 524 298 613 416 613 c 0
 534 613 588 525 588 421 c 2
 588 0 l 1
 498 0 l 1
 498 418 l 2
 498 506 453 541 393 541 c 0
 284 541 200 412 183 301 c 1
 183 0 l 1
 93 0 l 1
 93 693 l 1
 23 693 l 1
EndSplineSet
EndChar

StartChar: Itilde
Encoding: 296 296 235
Width: 320
GlyphClass: 2
Flags: W
AnchorPoint: "LatinBelow.mark" 160 0 basechar 0
AnchorPoint: "LatinAbove.mark" 160 330 basechar 0
LayerCount: 2
Fore
SplineSet
-27 887 m 1
 -7 938 20 1007 84 1007 c 0
 134 1007 162 976 184 955 c 0
 205 934 220 913 239 913 c 0
 271 913 290 974 300 1000 c 1
 347 983 l 1
 329 931 300 863 237 863 c 0
 187 863 159 894 137 915 c 0
 116 936 101 957 82 957 c 0
 50 957 31 896 21 870 c 1
 -27 887 l 1
112 0 m 1
 112 780 l 1
 208 780 l 1
 208 0 l 1
 112 0 l 1
EndSplineSet
EndChar

StartChar: itilde
Encoding: 297 297 236
Width: 300
GlyphClass: 2
Flags: W
AnchorPoint: "LatinBelow.mark" 150 0 basechar 0
AnchorPoint: "LatinAbove.mark" 150 180 basechar 0
LayerCount: 2
Fore
SplineSet
-37 737 m 1
 -17 788 10 857 74 857 c 0
 124 857 152 826 174 805 c 0
 195 784 210 763 229 763 c 0
 261 763 280 824 290 850 c 1
 337 833 l 1
 319 781 290 713 227 713 c 0
 177 713 149 744 127 765 c 0
 106 786 91 807 72 807 c 0
 40 807 21 746 11 720 c 1
 -37 737 l 1
105 0 m 1
 105 600 l 1
 195 600 l 1
 195 0 l 1
 105 0 l 1
EndSplineSet
EndChar

StartChar: Imacron
Encoding: 298 298 237
Width: 320
GlyphClass: 2
Flags: W
AnchorPoint: "LatinBelow.mark" 160 0 basechar 0
AnchorPoint: "LatinAbove.mark" 160 330 basechar 0
LayerCount: 2
Fore
SplineSet
-27 900 m 1
 -27 960 l 1
 347 960 l 1
 347 900 l 1
 -27 900 l 1
112 0 m 1
 112 780 l 1
 208 780 l 1
 208 0 l 1
 112 0 l 1
EndSplineSet
EndChar

StartChar: imacron
Encoding: 299 299 238
Width: 300
GlyphClass: 2
Flags: W
AnchorPoint: "LatinBelow.mark" 150 0 basechar 0
AnchorPoint: "LatinAbove.mark" 150 180 basechar 0
LayerCount: 2
Fore
SplineSet
-37 750 m 1
 -37 810 l 1
 337 810 l 1
 337 750 l 1
 -37 750 l 1
105 0 m 1
 105 600 l 1
 195 600 l 1
 195 0 l 1
 105 0 l 1
EndSplineSet
EndChar

StartChar: Ibreve
Encoding: 300 300 239
Width: 320
GlyphClass: 2
Flags: W
LayerCount: 2
Fore
SplineSet
-27 988 m 1
 30 1007 l 1
 42 959 72 905 160 905 c 0
 248 905 278 959 290 1007 c 1
 347 988 l 1
 329 920 277 847 160 847 c 0
 43 847 -9 920 -27 988 c 1
112 0 m 1
 112 780 l 1
 208 780 l 1
 208 0 l 1
 112 0 l 1
EndSplineSet
EndChar

StartChar: ibreve
Encoding: 301 301 240
Width: 300
GlyphClass: 2
Flags: W
LayerCount: 2
Fore
SplineSet
-37 838 m 1
 20 857 l 1
 32 809 62 755 150 755 c 0
 238 755 268 809 280 857 c 1
 337 838 l 1
 319 770 267 697 150 697 c 0
 33 697 -19 770 -37 838 c 1
105 0 m 1
 105 600 l 1
 195 600 l 1
 195 0 l 1
 105 0 l 1
EndSplineSet
EndChar

StartChar: Iogonek
Encoding: 302 302 241
Width: 320
GlyphClass: 2
Flags: W
AnchorPoint: "LatinAbove.mark" 160 150 basechar 0
LayerCount: 2
Fore
SplineSet
112 0 m 1
 112 780 l 1
 208 780 l 1
 208 0 l 1
 196 0 l 1
 169 -32 147 -75 147 -135 c 0
 147 -184 173 -204 207 -204 c 0
 235 -204 259 -195 271 -188 c 1
 287 -232 l 1
 262 -245 233 -252 197 -252 c 0
 125 -252 87 -207 87 -142 c 0
 87 -81 112 -36 141 0 c 1
 112 0 l 1
EndSplineSet
EndChar

StartChar: iogonek
Encoding: 303 303 242
Width: 300
GlyphClass: 2
Flags: W
AnchorPoint: "LatinAbove.mark" 150 180 basechar 0
LayerCount: 2
Fore
SplineSet
150 848 m 0
 191 848 222 822 222 780 c 0
 222 738 191 712 150 712 c 0
 109 712 78 738 78 780 c 0
 78 822 109 848 150 848 c 0
105 0 m 1
 105 600 l 1
 195 600 l 1
 195 0 l 1
 186 0 l 1
 159 -32 137 -75 137 -135 c 0
 137 -184 163 -204 197 -204 c 0
 225 -204 249 -195 261 -188 c 1
 277 -232 l 1
 252 -245 223 -252 187 -252 c 0
 115 -252 77 -207 77 -142 c 0
 77 -81 102 -36 131 0 c 1
 105 0 l 1
EndSplineSet
EndChar

StartChar: Idotaccent
Encoding: 304 304 243
Width: 320
GlyphClass: 2
Flags: W
AnchorPoint: "LatinBelow.mark" 160 0 basechar 0
AnchorPoint: "LatinAbove.mark" 160 330 basechar 0
LayerCount: 2
Fore
SplineSet
160 998 m 0
 201 998 232 972 232 930 c 0
 232 888 201 862 160 862 c 0
 119 862 88 888 88 930 c 0
 88 972 119 998 160 998 c 0
112 0 m 1
 112 780 l 1
 208 780 l 1
 208 0 l 1
 112 0 l 1
EndSplineSet
EndChar

StartChar: dotlessi
Encoding: 305 305 244
Width: 300
GlyphClass: 2
Flags: W
AnchorPoint: "LatinOgonek.mark" 155 0 basechar 0
AnchorPoint: "LatinBelow.mark" 150 0 basechar 0
AnchorPoint: "LatinAbove.mark" 150 0 basechar 0
LayerCount: 2
Fore
SplineSet
105 0 m 1
 105 600 l 1
 195 600 l 1
 195 0 l 1
 105 0 l 1
EndSplineSet
EndChar

StartChar: Jcircumflex
Encoding: 308 308 245
Width: 520
GlyphClass: 2
Flags: W
AnchorPoint: "LatinBelow.mark" 230 0 basechar 0
LayerCount: 2
Fore
SplineSet
173 863 m 1
 348 1012 l 1
 372 1012 l 1
 547 863 l 1
 519 832 l 1
 360 938 l 1
 201 832 l 1
 173 863 l 1
28 136 m 1
 124 143 l 1
 133 85 170 53 226 53 c 0
 282 53 327 84 327 162 c 2
 327 781 l 1
 423 781 l 1
 423 162 l 2
 423 63 351 -17 226 -17 c 0
 102 -17 39 62 28 136 c 1
EndSplineSet
EndChar

StartChar: jcircumflex
Encoding: 309 309 246
Width: 310
GlyphClass: 2
Flags: W
AnchorPoint: "LatinBelow.mark" 150 -180 basechar 0
AnchorPoint: "LatinAbove.mark" 150 180 basechar 0
LayerCount: 2
Fore
SplineSet
-27 713 m 1
 148 862 l 1
 172 862 l 1
 347 713 l 1
 319 682 l 1
 160 788 l 1
 1 682 l 1
 -27 713 l 1
1 -164 m 1
 70 -140 116 -102 116 -19 c 2
 116 600 l 1
 206 600 l 1
 206 -24 l 2
 206 -133 123 -195 29 -223 c 1
 1 -164 l 1
EndSplineSet
EndChar

StartChar: uni0136
Encoding: 310 310 247
Width: 715
GlyphClass: 2
Flags: W
LayerCount: 2
Fore
SplineSet
375 -190 m 1
 366 -195 354 -197 342 -197 c 0
 306 -197 280 -175 280 -139 c 0
 280 -99 304 -71 348 -71 c 0
 410 -71 430 -121 430 -165 c 0
 430 -260 363 -319 311 -341 c 1
 288 -309 l 1
 324 -293 367 -251 375 -190 c 1
97 0 m 1
 97 780 l 1
 189 780 l 1
 189 378 l 1
 548 780 l 1
 654 772 l 1
 654 768 l 1
 355 452 l 1
 702 5 l 1
 702 0 l 1
 589 0 l 1
 294 388 l 1
 189 276 l 1
 189 0 l 1
 97 0 l 1
EndSplineSet
EndChar

StartChar: uni0137
Encoding: 311 311 248
Width: 605
GlyphClass: 2
Flags: W
AnchorPoint: "LatinAbove.mark" 135 180 basechar 0
LayerCount: 2
Fore
SplineSet
375 -190 m 1
 366 -195 354 -197 342 -197 c 0
 306 -197 280 -175 280 -139 c 0
 280 -99 304 -71 348 -71 c 0
 410 -71 430 -121 430 -165 c 0
 430 -260 363 -319 311 -341 c 1
 288 -309 l 1
 324 -293 367 -251 375 -190 c 1
102 0 m 1
 102 810 l 1
 188 810 l 1
 188 305 l 1
 459 600 l 1
 557 594 l 1
 557 590 l 1
 320 345 l 1
 592 4 l 1
 592 0 l 1
 488 0 l 1
 263 287 l 1
 188 209 l 1
 188 0 l 1
 102 0 l 1
EndSplineSet
EndChar

StartChar: kgreenlandic
Encoding: 312 312 249
Width: 610
GlyphClass: 2
Flags: W
AnchorPoint: "LatinBelow.mark" 360 0 basechar 0
AnchorPoint: "LatinAbove.mark" 330 0 basechar 0
LayerCount: 2
Fore
SplineSet
102 0 m 1
 102 600 l 1
 188 600 l 1
 188 305 l 1
 459 600 l 1
 557 594 l 1
 557 590 l 1
 320 345 l 1
 592 4 l 1
 592 0 l 1
 488 0 l 1
 263 287 l 1
 188 209 l 1
 188 0 l 1
 102 0 l 1
EndSplineSet
EndChar

StartChar: Lacute
Encoding: 313 313 250
Width: 570
GlyphClass: 2
Flags: W
AnchorPoint: "LatinBelow.mark" 320 0 basechar 0
LayerCount: 2
Fore
SplineSet
310 990 m 1
 81 848 l 1
 55 884 l 1
 270 1052 l 1
 310 990 l 1
98 0 m 1
 98 780 l 1
 194 780 l 1
 194 74 l 1
 538 74 l 1
 538 0 l 1
 98 0 l 1
EndSplineSet
EndChar

StartChar: lacute
Encoding: 314 314 251
Width: 315
GlyphClass: 2
Flags: W
AnchorPoint: "LatinBelow.mark" 190 0 basechar 0
LayerCount: 2
Fore
SplineSet
290 1020 m 1
 61 878 l 1
 35 914 l 1
 250 1082 l 1
 290 1020 l 1
100 122 m 2
 100 810 l 1
 190 810 l 1
 190 130 l 2
 190 70 232 53 300 47 c 1
 282 -13 l 1
 204 -7 100 15 100 122 c 2
EndSplineSet
EndChar

StartChar: uni013B
Encoding: 315 315 252
Width: 570
GlyphClass: 2
Flags: W
AnchorPoint: "LatinAbove.mark" 160 150 basechar 0
LayerCount: 2
Fore
SplineSet
335 -190 m 1
 326 -195 314 -197 302 -197 c 0
 266 -197 240 -175 240 -139 c 0
 240 -99 264 -71 308 -71 c 0
 370 -71 390 -121 390 -165 c 0
 390 -260 323 -319 271 -341 c 1
 248 -309 l 1
 284 -293 327 -251 335 -190 c 1
98 0 m 1
 98 780 l 1
 194 780 l 1
 194 74 l 1
 538 74 l 1
 538 0 l 1
 98 0 l 1
EndSplineSet
EndChar

StartChar: uni013C
Encoding: 316 316 253
Width: 315
GlyphClass: 2
Flags: W
AnchorPoint: "LatinAbove.mark" 140 180 basechar 0
LayerCount: 2
Fore
SplineSet
205 -190 m 1
 196 -195 184 -197 172 -197 c 0
 136 -197 110 -175 110 -139 c 0
 110 -99 134 -71 178 -71 c 0
 240 -71 260 -121 260 -165 c 0
 260 -260 193 -319 141 -341 c 1
 118 -309 l 1
 154 -293 197 -251 205 -190 c 1
100 122 m 2
 100 810 l 1
 190 810 l 1
 190 130 l 2
 190 70 232 53 300 47 c 1
 282 -13 l 1
 204 -7 100 15 100 122 c 2
EndSplineSet
EndChar

StartChar: Lcaron
Encoding: 317 317 254
Width: 570
GlyphClass: 2
Flags: W
LayerCount: 2
Fore
SplineSet
460 710 m 1
 451 705 439 703 427 703 c 0
 391 703 365 725 365 761 c 0
 365 801 389 829 433 829 c 0
 495 829 515 779 515 735 c 0
 515 640 448 581 396 559 c 1
 373 591 l 1
 409 607 452 649 460 710 c 1
98 0 m 1
 98 780 l 1
 194 780 l 1
 194 74 l 1
 538 74 l 1
 538 0 l 1
 98 0 l 1
EndSplineSet
EndChar

StartChar: lcaron
Encoding: 318 318 255
Width: 525
GlyphClass: 2
Flags: W
LayerCount: 2
Fore
SplineSet
445 710 m 1
 436 705 424 703 412 703 c 0
 376 703 350 725 350 761 c 0
 350 801 374 829 418 829 c 0
 480 829 500 779 500 735 c 0
 500 640 433 581 381 559 c 1
 358 591 l 1
 394 607 437 649 445 710 c 1
100 122 m 2
 100 810 l 1
 190 810 l 1
 190 130 l 2
 190 70 232 53 300 47 c 1
 282 -13 l 1
 204 -7 100 15 100 122 c 2
EndSplineSet
EndChar

StartChar: Ldot
Encoding: 319 319 256
Width: 570
GlyphClass: 2
Flags: W
LayerCount: 2
Fore
SplineSet
435 428 m 0
 476 428 507 402 507 360 c 0
 507 318 476 292 435 292 c 0
 394 292 363 318 363 360 c 0
 363 402 394 428 435 428 c 0
98 0 m 1
 98 780 l 1
 194 780 l 1
 194 74 l 1
 538 74 l 1
 538 0 l 1
 98 0 l 1
EndSplineSet
EndChar

StartChar: ldot
Encoding: 320 320 257
Width: 510
GlyphClass: 2
Flags: W
LayerCount: 2
Fore
SplineSet
385 428 m 0
 426 428 457 402 457 360 c 0
 457 318 426 292 385 292 c 0
 344 292 313 318 313 360 c 0
 313 402 344 428 385 428 c 0
100 122 m 2
 100 810 l 1
 190 810 l 1
 190 130 l 2
 190 70 232 53 300 47 c 1
 282 -13 l 1
 204 -7 100 15 100 122 c 2
EndSplineSet
EndChar

StartChar: Lslash
Encoding: 321 321 258
Width: 580
GlyphClass: 2
Flags: W
LayerCount: 2
Fore
SplineSet
204 436 m 1
 346 528 l 1
 353 468 l 1
 204 371 l 1
 204 74 l 1
 548 74 l 1
 548 0 l 1
 108 0 l 1
 108 309 l 1
 20 252 l 1
 13 312 l 1
 108 374 l 1
 108 780 l 1
 204 780 l 1
 204 436 l 1
EndSplineSet
EndChar

StartChar: lslash
Encoding: 322 322 259
Width: 360
GlyphClass: 2
Flags: W
AnchorPoint: "LatinBelow.mark" 190 0 basechar 0
LayerCount: 2
Fore
SplineSet
200 432 m 1
 348 528 l 1
 355 468 l 1
 200 367 l 1
 200 130 l 2
 200 70 242 53 310 47 c 1
 292 -13 l 1
 214 -7 110 15 110 122 c 2
 110 309 l 1
 22 252 l 1
 15 312 l 1
 110 374 l 1
 110 810 l 1
 200 810 l 1
 200 432 l 1
EndSplineSet
EndChar

StartChar: Nacute
Encoding: 323 323 260
Width: 790
GlyphClass: 2
Flags: W
AnchorPoint: "LatinBelow.mark" 395 0 basechar 0
LayerCount: 2
Fore
SplineSet
545 990 m 1
 316 848 l 1
 290 884 l 1
 505 1052 l 1
 545 990 l 1
98 0 m 1
 98 771 l 1
 180 780 l 1
 599 152 l 1
 599 780 l 1
 692 780 l 1
 692 0 l 1
 610 0 l 1
 191 628 l 1
 191 0 l 1
 98 0 l 1
EndSplineSet
EndChar

StartChar: nacute
Encoding: 324 324 261
Width: 655
GlyphClass: 2
Flags: W
AnchorPoint: "LatinBelow.mark" 360 0 basechar 0
LayerCount: 2
Fore
SplineSet
480 840 m 1
 251 698 l 1
 225 734 l 1
 440 902 l 1
 480 840 l 1
92 0 m 1
 92 420 l 1
 82 595 l 1
 164 603 l 1
 180 438 l 1
 220 527 292 613 407 613 c 0
 522 613 577 525 577 421 c 2
 577 0 l 1
 487 0 l 1
 487 418 l 2
 487 506 442 541 385 541 c 0
 278 541 199 413 182 302 c 1
 182 0 l 1
 92 0 l 1
EndSplineSet
EndChar

StartChar: uni0145
Encoding: 325 325 262
Width: 790
GlyphClass: 2
Flags: W
AnchorPoint: "LatinAbove.mark" 395 150 basechar 0
LayerCount: 2
Fore
SplineSet
410 -190 m 1
 401 -195 389 -197 377 -197 c 0
 341 -197 315 -175 315 -139 c 0
 315 -99 339 -71 383 -71 c 0
 445 -71 465 -121 465 -165 c 0
 465 -260 398 -319 346 -341 c 1
 323 -309 l 1
 359 -293 402 -251 410 -190 c 1
98 0 m 1
 98 771 l 1
 180 780 l 1
 599 152 l 1
 599 780 l 1
 692 780 l 1
 692 0 l 1
 610 0 l 1
 191 628 l 1
 191 0 l 1
 98 0 l 1
EndSplineSet
EndChar

StartChar: uni0146
Encoding: 326 326 263
Width: 655
GlyphClass: 2
Flags: W
AnchorPoint: "LatinAbove.mark" 330 0 basechar 0
LayerCount: 2
Fore
SplineSet
375 -190 m 1
 366 -195 354 -197 342 -197 c 0
 306 -197 280 -175 280 -139 c 0
 280 -99 304 -71 348 -71 c 0
 410 -71 430 -121 430 -165 c 0
 430 -260 363 -319 311 -341 c 1
 288 -309 l 1
 324 -293 367 -251 375 -190 c 1
92 0 m 1
 92 420 l 1
 82 595 l 1
 164 603 l 1
 180 438 l 1
 220 527 292 613 407 613 c 0
 522 613 577 525 577 421 c 2
 577 0 l 1
 487 0 l 1
 487 418 l 2
 487 506 442 541 385 541 c 0
 278 541 199 413 182 302 c 1
 182 0 l 1
 92 0 l 1
EndSplineSet
EndChar

StartChar: Ncaron
Encoding: 327 327 264
Width: 790
GlyphClass: 2
Flags: W
AnchorPoint: "LatinBelow.mark" 395 0 basechar 0
LayerCount: 2
Fore
SplineSet
582 992 m 1
 407 843 l 1
 383 843 l 1
 208 992 l 1
 236 1023 l 1
 395 917 l 1
 554 1023 l 1
 582 992 l 1
98 0 m 1
 98 771 l 1
 180 780 l 1
 599 152 l 1
 599 780 l 1
 692 780 l 1
 692 0 l 1
 610 0 l 1
 191 628 l 1
 191 0 l 1
 98 0 l 1
EndSplineSet
EndChar

StartChar: ncaron
Encoding: 328 328 265
Width: 655
GlyphClass: 2
Flags: W
AnchorPoint: "LatinBelow.mark" 360 0 basechar 0
LayerCount: 2
Fore
SplineSet
517 842 m 1
 342 693 l 1
 318 693 l 1
 143 842 l 1
 171 873 l 1
 330 767 l 1
 489 873 l 1
 517 842 l 1
92 0 m 1
 92 420 l 1
 82 595 l 1
 164 603 l 1
 180 438 l 1
 220 527 292 613 407 613 c 0
 522 613 577 525 577 421 c 2
 577 0 l 1
 487 0 l 1
 487 418 l 2
 487 506 442 541 385 541 c 0
 278 541 199 413 182 302 c 1
 182 0 l 1
 92 0 l 1
EndSplineSet
EndChar

StartChar: napostrophe
Encoding: 329 329 266
Width: 865
GlyphClass: 2
Flags: W
LayerCount: 2
Fore
SplineSet
302 0 m 1
 302 420 l 1
 292 595 l 1
 374 603 l 1
 390 438 l 1
 430 527 502 613 617 613 c 0
 732 613 787 525 787 421 c 2
 787 0 l 1
 697 0 l 1
 697 418 l 2
 697 506 652 541 595 541 c 0
 488 541 409 413 392 302 c 1
 392 0 l 1
 302 0 l 1
32 803 m 0
 32 844 60 873 104 873 c 0
 166 873 192 821 192 765 c 0
 192 661 124 588 60 545 c 1
 32 584 l 1
 81 617 122 668 129 741 c 1
 121 738 112 737 102 737 c 0
 62 737 32 763 32 803 c 0
EndSplineSet
EndChar

StartChar: Omacron
Encoding: 332 332 267
Width: 820
GlyphClass: 2
Flags: W
AnchorPoint: "LatinBelow.mark" 410 0 basechar 0
AnchorPoint: "LatinAbove.mark" 410 330 basechar 0
LayerCount: 2
Fore
SplineSet
223 900 m 1
 223 960 l 1
 597 960 l 1
 597 900 l 1
 223 900 l 1
68 372 m 2
 68 408 l 2
 68 594 147 798 410 798 c 0
 673 798 752 594 752 408 c 2
 752 372 l 2
 752 186 673 -18 410 -18 c 0
 147 -18 68 186 68 372 c 2
410 54 m 0
 579 54 654 186 654 372 c 2
 654 408 l 2
 654 594 579 726 410 726 c 0
 241 726 166 594 166 408 c 2
 166 372 l 2
 166 186 241 54 410 54 c 0
EndSplineSet
EndChar

StartChar: omacron
Encoding: 333 333 268
Width: 660
GlyphClass: 2
Flags: W
AnchorPoint: "LatinBelow.mark" 330 0 basechar 0
AnchorPoint: "LatinAbove.mark" 330 180 basechar 0
LayerCount: 2
Fore
SplineSet
143 750 m 1
 143 810 l 1
 517 810 l 1
 517 750 l 1
 143 750 l 1
62 286 m 2
 62 314 l 2
 62 456 122 618 330 618 c 0
 538 618 598 456 598 314 c 2
 598 286 l 2
 598 144 538 -18 330 -18 c 0
 122 -18 62 144 62 286 c 2
330 48 m 0
 450 48 508 143 508 286 c 2
 508 314 l 2
 508 457 450 552 330 552 c 0
 210 552 152 457 152 314 c 2
 152 286 l 2
 152 143 210 48 330 48 c 0
EndSplineSet
EndChar

StartChar: Obreve
Encoding: 334 334 269
Width: 820
GlyphClass: 2
Flags: W
AnchorPoint: "LatinBelow.mark" 410 0 basechar 0
AnchorPoint: "LatinAbove.mark" 410 330 basechar 0
LayerCount: 2
Fore
SplineSet
223 988 m 1
 280 1007 l 1
 292 959 322 905 410 905 c 0
 498 905 528 959 540 1007 c 1
 597 988 l 1
 579 920 527 847 410 847 c 0
 293 847 241 920 223 988 c 1
68 372 m 2
 68 408 l 2
 68 594 147 798 410 798 c 0
 673 798 752 594 752 408 c 2
 752 372 l 2
 752 186 673 -18 410 -18 c 0
 147 -18 68 186 68 372 c 2
410 54 m 0
 579 54 654 186 654 372 c 2
 654 408 l 2
 654 594 579 726 410 726 c 0
 241 726 166 594 166 408 c 2
 166 372 l 2
 166 186 241 54 410 54 c 0
EndSplineSet
EndChar

StartChar: obreve
Encoding: 335 335 270
Width: 660
GlyphClass: 2
Flags: W
AnchorPoint: "LatinBelow.mark" 330 0 basechar 0
AnchorPoint: "LatinAbove.mark" 330 180 basechar 0
LayerCount: 2
Fore
SplineSet
143 838 m 1
 200 857 l 1
 212 809 242 755 330 755 c 0
 418 755 448 809 460 857 c 1
 517 838 l 1
 499 770 447 697 330 697 c 0
 213 697 161 770 143 838 c 1
62 286 m 2
 62 314 l 2
 62 456 122 618 330 618 c 0
 538 618 598 456 598 314 c 2
 598 286 l 2
 598 144 538 -18 330 -18 c 0
 122 -18 62 144 62 286 c 2
330 48 m 0
 450 48 508 143 508 286 c 2
 508 314 l 2
 508 457 450 552 330 552 c 0
 210 552 152 457 152 314 c 2
 152 286 l 2
 152 143 210 48 330 48 c 0
EndSplineSet
EndChar

StartChar: Ohungarumlaut
Encoding: 336 336 271
Width: 820
GlyphClass: 2
Flags: W
AnchorPoint: "LatinBelow.mark" 410 0 basechar 0
AnchorPoint: "LatinAbove.mark" 410 330 basechar 0
LayerCount: 2
Fore
SplineSet
252 873 m 1
 369 1062 l 1
 425 1022 l 1
 286 848 l 1
 252 873 l 1
455 873 m 1
 572 1062 l 1
 627 1022 l 1
 489 848 l 1
 455 873 l 1
68 372 m 2
 68 408 l 2
 68 594 147 798 410 798 c 0
 673 798 752 594 752 408 c 2
 752 372 l 2
 752 186 673 -18 410 -18 c 0
 147 -18 68 186 68 372 c 2
410 54 m 0
 579 54 654 186 654 372 c 2
 654 408 l 2
 654 594 579 726 410 726 c 0
 241 726 166 594 166 408 c 2
 166 372 l 2
 166 186 241 54 410 54 c 0
EndSplineSet
EndChar

StartChar: ohungarumlaut
Encoding: 337 337 272
Width: 660
GlyphClass: 2
Flags: W
AnchorPoint: "LatinBelow.mark" 330 0 basechar 0
AnchorPoint: "LatinAbove.mark" 330 180 basechar 0
LayerCount: 2
Fore
SplineSet
172 723 m 1
 289 912 l 1
 345 872 l 1
 206 698 l 1
 172 723 l 1
375 723 m 1
 492 912 l 1
 547 872 l 1
 409 698 l 1
 375 723 l 1
62 286 m 2
 62 314 l 2
 62 456 122 618 330 618 c 0
 538 618 598 456 598 314 c 2
 598 286 l 2
 598 144 538 -18 330 -18 c 0
 122 -18 62 144 62 286 c 2
330 48 m 0
 450 48 508 143 508 286 c 2
 508 314 l 2
 508 457 450 552 330 552 c 0
 210 552 152 457 152 314 c 2
 152 286 l 2
 152 143 210 48 330 48 c 0
EndSplineSet
EndChar

StartChar: OE
Encoding: 338 338 273
Width: 980
GlyphClass: 2
Flags: W
AnchorPoint: "LatinBelow.mark" 510 0 basechar 0
AnchorPoint: "LatinAbove.mark" 510 150 basechar 0
LayerCount: 2
Fore
SplineSet
68 372 m 2
 68 408 l 2
 68 594 147 798 410 798 c 0
 458 798 500 792 536 780 c 1
 903 780 l 1
 903 706 l 1
 559 706 l 1
 559 420 l 1
 869 420 l 1
 869 350 l 1
 559 350 l 1
 559 74 l 1
 918 74 l 1
 918 0 l 1
 536 0 l 1
 500 -12 458 -18 410 -18 c 0
 147 -18 68 186 68 372 c 2
463 720 m 1
 447 724 429 726 410 726 c 0
 241 726 166 594 166 408 c 2
 166 372 l 2
 166 186 241 54 410 54 c 0
 429 54 447 56 463 60 c 1
 463 720 l 1
EndSplineSet
EndChar

StartChar: oe
Encoding: 339 339 274
Width: 960
GlyphClass: 2
Flags: W
AnchorPoint: "LatinBelow.mark" 480 0 basechar 0
AnchorPoint: "LatinAbove.mark" 480 0 basechar 0
LayerCount: 2
Fore
SplineSet
63 286 m 2
 63 314 l 2
 63 452 109 618 293 618 c 0
 389 618 443 572 474 507 c 1
 509 572 569 618 664 618 c 0
 822 618 898 498 898 362 c 0
 898 338 894 311 890 287 c 1
 891 286 l 1
 890 286 l 1
 511 286 l 1
 511 143 560 46 664 46 c 0
 748 46 788 107 796 153 c 1
 884 145 l 1
 874 81 804 -18 664 -18 c 0
 568 -18 509 28 474 93 c 1
 443 29 388 -18 293 -18 c 0
 109 -18 63 148 63 286 c 2
293 552 m 0
 201 552 153 460 153 314 c 2
 153 286 l 2
 153 140 201 48 293 48 c 0
 383 48 428 140 428 286 c 2
 428 314 l 2
 428 460 383 552 293 552 c 0
512 344 m 1
 813 344 l 1
 814 350 814 356 814 362 c 0
 814 484 757 554 664 554 c 0
 572 554 519 470 512 344 c 1
EndSplineSet
EndChar

StartChar: Racute
Encoding: 340 340 275
Width: 730
GlyphClass: 2
Flags: W
AnchorPoint: "LatinBelow.mark" 360 0 basechar 0
LayerCount: 2
Fore
SplineSet
510 990 m 1
 281 848 l 1
 255 884 l 1
 470 1052 l 1
 510 990 l 1
192 402 m 1
 228 400 283 398 340 398 c 0
 468 398 568 443 568 559 c 0
 568 675 468 720 340 720 c 0
 283 720 228 718 192 716 c 1
 192 402 l 1
318 329 m 1
 273 330 229 331 192 333 c 1
 192 0 l 1
 98 0 l 1
 98 338 l 1
 98 780 l 1
 126 782 238 789 350 789 c 0
 530 789 663 707 663 559 c 0
 663 431 563 352 420 333 c 1
 693 5 l 1
 693 0 l 1
 585 0 l 1
 318 329 l 1
EndSplineSet
EndChar

StartChar: racute
Encoding: 341 341 276
Width: 435
GlyphClass: 2
Flags: W
AnchorPoint: "LatinBelow.mark" 170 0 basechar 0
LayerCount: 2
Fore
SplineSet
390 840 m 1
 161 698 l 1
 135 734 l 1
 350 902 l 1
 390 840 l 1
77 594 m 1
 153 603 l 1
 187 453 l 1
 211 535 260 613 357 613 c 0
 385 613 407 607 427 598 c 1
 393 524 l 1
 379 531 363 535 343 535 c 0
 255 535 214 428 202 327 c 1
 202 0 l 1
 112 0 l 1
 112 427 l 1
 77 594 l 1
EndSplineSet
EndChar

StartChar: uni0156
Encoding: 342 342 277
Width: 730
GlyphClass: 2
Flags: W
AnchorPoint: "LatinAbove.mark" 360 150 basechar 0
LayerCount: 2
Fore
SplineSet
375 -190 m 1
 366 -195 354 -197 342 -197 c 0
 306 -197 280 -175 280 -139 c 0
 280 -99 304 -71 348 -71 c 0
 410 -71 430 -121 430 -165 c 0
 430 -260 363 -319 311 -341 c 1
 288 -309 l 1
 324 -293 367 -251 375 -190 c 1
192 402 m 1
 228 400 283 398 340 398 c 0
 468 398 568 443 568 559 c 0
 568 675 468 720 340 720 c 0
 283 720 228 718 192 716 c 1
 192 402 l 1
318 329 m 1
 273 330 229 331 192 333 c 1
 192 0 l 1
 98 0 l 1
 98 338 l 1
 98 780 l 1
 126 782 238 789 350 789 c 0
 530 789 663 707 663 559 c 0
 663 431 563 352 420 333 c 1
 693 5 l 1
 693 0 l 1
 585 0 l 1
 318 329 l 1
EndSplineSet
EndChar

StartChar: uni0157
Encoding: 343 343 278
Width: 435
GlyphClass: 2
Flags: W
AnchorPoint: "LatinAbove.mark" 240 0 basechar 0
LayerCount: 2
Fore
SplineSet
185 -190 m 1
 176 -195 164 -197 152 -197 c 0
 116 -197 90 -175 90 -139 c 0
 90 -99 114 -71 158 -71 c 0
 220 -71 240 -121 240 -165 c 0
 240 -260 173 -319 121 -341 c 1
 98 -309 l 1
 134 -293 177 -251 185 -190 c 1
77 594 m 1
 153 603 l 1
 187 453 l 1
 211 535 260 613 357 613 c 0
 385 613 407 607 427 598 c 1
 393 524 l 1
 379 531 363 535 343 535 c 0
 255 535 214 428 202 327 c 1
 202 0 l 1
 112 0 l 1
 112 427 l 1
 77 594 l 1
EndSplineSet
EndChar

StartChar: Rcaron
Encoding: 344 344 279
Width: 730
GlyphClass: 2
Flags: W
AnchorPoint: "LatinBelow.mark" 360 0 basechar 0
LayerCount: 2
Fore
SplineSet
547 992 m 1
 372 843 l 1
 348 843 l 1
 173 992 l 1
 201 1023 l 1
 360 917 l 1
 519 1023 l 1
 547 992 l 1
192 402 m 1
 228 400 283 398 340 398 c 0
 468 398 568 443 568 559 c 0
 568 675 468 720 340 720 c 0
 283 720 228 718 192 716 c 1
 192 402 l 1
318 329 m 1
 273 330 229 331 192 333 c 1
 192 0 l 1
 98 0 l 1
 98 338 l 1
 98 780 l 1
 126 782 238 789 350 789 c 0
 530 789 663 707 663 559 c 0
 663 431 563 352 420 333 c 1
 693 5 l 1
 693 0 l 1
 585 0 l 1
 318 329 l 1
EndSplineSet
EndChar

StartChar: rcaron
Encoding: 345 345 280
Width: 435
GlyphClass: 2
Flags: W
AnchorPoint: "LatinBelow.mark" 170 0 basechar 0
LayerCount: 2
Fore
SplineSet
427 842 m 1
 252 693 l 1
 228 693 l 1
 53 842 l 1
 81 873 l 1
 240 767 l 1
 399 873 l 1
 427 842 l 1
77 594 m 1
 153 603 l 1
 187 453 l 1
 211 535 260 613 357 613 c 0
 385 613 407 607 427 598 c 1
 393 524 l 1
 379 531 363 535 343 535 c 0
 255 535 214 428 202 327 c 1
 202 0 l 1
 112 0 l 1
 112 427 l 1
 77 594 l 1
EndSplineSet
EndChar

StartChar: Sacute
Encoding: 346 346 281
Width: 710
GlyphClass: 2
Flags: W
AnchorPoint: "LatinBelow.mark" 355 0 basechar 0
LayerCount: 2
Fore
SplineSet
505 990 m 1
 276 848 l 1
 250 884 l 1
 465 1052 l 1
 505 990 l 1
62 177 m 1
 156 190 l 1
 166 128 229 52 355 52 c 0
 486 52 554 109 554 197 c 0
 554 279 493 313 446 327 c 0
 388 343 301 370 242 392 c 0
 172 418 81 473 81 583 c 0
 81 707 191 798 355 798 c 0
 527 798 613 685 627 607 c 1
 532 594 l 1
 520 656 461 728 355 728 c 0
 243 728 174 672 174 587 c 0
 174 517 232 489 284 469 c 0
 340 449 426 421 480 405 c 0
 558 381 647 323 647 201 c 0
 647 75 539 -18 355 -18 c 0
 166 -18 77 97 62 177 c 1
EndSplineSet
EndChar

StartChar: sacute
Encoding: 347 347 282
Width: 570
GlyphClass: 2
Flags: W
AnchorPoint: "LatinBelow.mark" 285 0 basechar 0
LayerCount: 2
Fore
SplineSet
435 840 m 1
 206 698 l 1
 180 734 l 1
 395 902 l 1
 435 840 l 1
52 137 m 1
 140 147 l 1
 148 100 195 47 288 47 c 0
 380 47 431 89 431 153 c 0
 431 213 384 239 350 249 c 0
 305 263 240 281 196 297 c 0
 140 317 68 358 68 448 c 0
 68 546 152 618 284 618 c 0
 424 618 490 529 501 467 c 1
 414 455 l 1
 406 501 364 553 284 553 c 0
 204 553 154 514 154 451 c 0
 154 401 198 375 234 363 c 0
 278 349 344 329 384 317 c 0
 447 298 517 255 517 155 c 0
 517 56 428 -18 284 -18 c 0
 132 -18 64 73 52 137 c 1
EndSplineSet
EndChar

StartChar: Scircumflex
Encoding: 348 348 283
Width: 710
GlyphClass: 2
Flags: W
AnchorPoint: "LatinBelow.mark" 355 0 basechar 0
LayerCount: 2
Fore
SplineSet
168 863 m 1
 343 1012 l 1
 367 1012 l 1
 542 863 l 1
 514 832 l 1
 355 938 l 1
 196 832 l 1
 168 863 l 1
62 177 m 1
 156 190 l 1
 166 128 229 52 355 52 c 0
 486 52 554 109 554 197 c 0
 554 279 493 313 446 327 c 0
 388 343 301 370 242 392 c 0
 172 418 81 473 81 583 c 0
 81 707 191 798 355 798 c 0
 527 798 613 685 627 607 c 1
 532 594 l 1
 520 656 461 728 355 728 c 0
 243 728 174 672 174 587 c 0
 174 517 232 489 284 469 c 0
 340 449 426 421 480 405 c 0
 558 381 647 323 647 201 c 0
 647 75 539 -18 355 -18 c 0
 166 -18 77 97 62 177 c 1
EndSplineSet
EndChar

StartChar: scircumflex
Encoding: 349 349 284
Width: 570
GlyphClass: 2
Flags: W
AnchorPoint: "LatinBelow.mark" 285 0 basechar 0
LayerCount: 2
Fore
SplineSet
98 713 m 1
 273 862 l 1
 297 862 l 1
 472 713 l 1
 444 682 l 1
 285 788 l 1
 126 682 l 1
 98 713 l 1
52 137 m 1
 140 147 l 1
 148 100 195 47 288 47 c 0
 380 47 431 89 431 153 c 0
 431 213 384 239 350 249 c 0
 305 263 240 281 196 297 c 0
 140 317 68 358 68 448 c 0
 68 546 152 618 284 618 c 0
 424 618 490 529 501 467 c 1
 414 455 l 1
 406 501 364 553 284 553 c 0
 204 553 154 514 154 451 c 0
 154 401 198 375 234 363 c 0
 278 349 344 329 384 317 c 0
 447 298 517 255 517 155 c 0
 517 56 428 -18 284 -18 c 0
 132 -18 64 73 52 137 c 1
EndSplineSet
EndChar

StartChar: Scedilla
Encoding: 350 350 285
Width: 710
GlyphClass: 2
Flags: W
AnchorPoint: "LatinAbove.mark" 355 150 basechar 0
LayerCount: 2
Fore
SplineSet
290 -284 m 1
 354 -268 440 -240 440 -175 c 0
 440 -152 423 -130 365 -130 c 0
 349 -130 329 -133 318 -135 c 1
 290 -107 l 1
 340 -18 l 1
 162 -12 77 99 62 177 c 1
 156 190 l 1
 166 128 229 52 355 52 c 0
 486 52 554 109 554 197 c 0
 554 279 493 313 446 327 c 0
 388 343 301 370 242 392 c 0
 172 418 81 473 81 583 c 0
 81 707 191 798 355 798 c 0
 527 798 613 685 627 607 c 1
 532 594 l 1
 520 656 461 728 355 728 c 0
 243 728 174 672 174 587 c 0
 174 517 232 489 284 469 c 0
 340 449 426 421 480 405 c 0
 558 381 647 323 647 201 c 0
 647 84 554 -5 393 -17 c 1
 352 -89 l 1
 359 -88 367 -88 375 -88 c 0
 453 -88 500 -119 500 -175 c 0
 500 -283 358 -314 305 -328 c 1
 290 -284 l 1
EndSplineSet
Substitution2: "Latin.st.cedilla subtable" uni0218
EndChar

StartChar: scedilla
Encoding: 351 351 286
Width: 570
GlyphClass: 2
Flags: W
AnchorPoint: "LatinAbove.mark" 285 0 basechar 0
LayerCount: 2
Fore
SplineSet
220 -284 m 1
 284 -268 370 -240 370 -175 c 0
 370 -152 353 -130 295 -130 c 0
 279 -130 259 -133 248 -135 c 1
 220 -107 l 1
 270 -18 l 1
 128 -12 64 75 52 137 c 1
 140 147 l 1
 148 100 195 47 288 47 c 0
 380 47 431 89 431 153 c 0
 431 213 384 239 350 249 c 0
 305 263 240 281 196 297 c 0
 140 317 68 358 68 448 c 0
 68 546 152 618 284 618 c 0
 424 618 490 529 501 467 c 1
 414 455 l 1
 406 501 364 553 284 553 c 0
 204 553 154 514 154 451 c 0
 154 401 198 375 234 363 c 0
 278 349 344 329 384 317 c 0
 447 298 517 255 517 155 c 0
 517 65 444 -4 323 -16 c 1
 282 -89 l 1
 289 -88 297 -88 305 -88 c 0
 383 -88 430 -119 430 -175 c 0
 430 -283 288 -314 235 -328 c 1
 220 -284 l 1
EndSplineSet
Substitution2: "Latin.st.cedilla subtable" uni0219
EndChar

StartChar: Scaron
Encoding: 352 352 287
Width: 710
GlyphClass: 2
Flags: W
AnchorPoint: "LatinBelow.mark" 355 0 basechar 0
LayerCount: 2
Fore
SplineSet
542 992 m 1
 367 843 l 1
 343 843 l 1
 168 992 l 1
 196 1023 l 1
 355 917 l 1
 514 1023 l 1
 542 992 l 1
62 177 m 1
 156 190 l 1
 166 128 229 52 355 52 c 0
 486 52 554 109 554 197 c 0
 554 279 493 313 446 327 c 0
 388 343 301 370 242 392 c 0
 172 418 81 473 81 583 c 0
 81 707 191 798 355 798 c 0
 527 798 613 685 627 607 c 1
 532 594 l 1
 520 656 461 728 355 728 c 0
 243 728 174 672 174 587 c 0
 174 517 232 489 284 469 c 0
 340 449 426 421 480 405 c 0
 558 381 647 323 647 201 c 0
 647 75 539 -18 355 -18 c 0
 166 -18 77 97 62 177 c 1
EndSplineSet
EndChar

StartChar: scaron
Encoding: 353 353 288
Width: 570
GlyphClass: 2
Flags: W
AnchorPoint: "LatinBelow.mark" 285 0 basechar 0
LayerCount: 2
Fore
SplineSet
472 842 m 1
 297 693 l 1
 273 693 l 1
 98 842 l 1
 126 873 l 1
 285 767 l 1
 444 873 l 1
 472 842 l 1
52 137 m 1
 140 147 l 1
 148 100 195 47 288 47 c 0
 380 47 431 89 431 153 c 0
 431 213 384 239 350 249 c 0
 305 263 240 281 196 297 c 0
 140 317 68 358 68 448 c 0
 68 546 152 618 284 618 c 0
 424 618 490 529 501 467 c 1
 414 455 l 1
 406 501 364 553 284 553 c 0
 204 553 154 514 154 451 c 0
 154 401 198 375 234 363 c 0
 278 349 344 329 384 317 c 0
 447 298 517 255 517 155 c 0
 517 56 428 -18 284 -18 c 0
 132 -18 64 73 52 137 c 1
EndSplineSet
EndChar

StartChar: uni0162
Encoding: 354 354 289
Width: 620
GlyphClass: 2
Flags: W
AnchorPoint: "LatinAbove.mark" 310 150 basechar 0
LayerCount: 2
Fore
SplineSet
230 -284 m 1
 294 -268 380 -240 380 -175 c 0
 380 -152 363 -130 305 -130 c 0
 289 -130 269 -133 258 -135 c 1
 230 -107 l 1
 289 0 l 1
 262 0 l 1
 262 708 l 1
 37 708 l 1
 37 780 l 1
 583 780 l 1
 583 708 l 1
 358 708 l 1
 358 0 l 1
 342 0 l 1
 292 -89 l 1
 299 -88 307 -88 315 -88 c 0
 393 -88 440 -119 440 -175 c 0
 440 -283 298 -314 245 -328 c 1
 230 -284 l 1
EndSplineSet
Substitution2: "Latin.st.cedilla subtable" uni021A
EndChar

StartChar: uni0163
Encoding: 355 355 290
Width: 415
GlyphClass: 2
Flags: W
AnchorPoint: "LatinAbove.mark" 180 120 basechar 0
LayerCount: 2
Fore
SplineSet
180 -284 m 1
 244 -268 330 -240 330 -175 c 0
 330 -152 313 -130 255 -130 c 0
 239 -130 219 -133 208 -135 c 1
 180 -107 l 1
 234 -10 l 1
 170 0 130 40 130 121 c 2
 130 542 l 1
 35 542 l 1
 35 600 l 1
 133 600 l 1
 133 728 l 1
 219 735 l 1
 219 600 l 1
 375 600 l 1
 375 542 l 1
 220 542 l 1
 220 133 l 2
 220 69 240 52 282 52 c 0
 326 52 367 69 383 79 c 1
 405 19 l 1
 380 4 337 -11 285 -13 c 1
 242 -89 l 1
 249 -88 257 -88 265 -88 c 0
 343 -88 390 -119 390 -175 c 0
 390 -283 248 -314 195 -328 c 1
 180 -284 l 1
EndSplineSet
Substitution2: "Latin.st.cedilla subtable" uni021B
EndChar

StartChar: Tcaron
Encoding: 356 356 291
Width: 620
GlyphClass: 2
Flags: W
AnchorPoint: "LatinBelow.mark" 310 0 basechar 0
LayerCount: 2
Fore
SplineSet
497 992 m 1
 322 843 l 1
 298 843 l 1
 123 992 l 1
 151 1023 l 1
 310 917 l 1
 469 1023 l 1
 497 992 l 1
37 708 m 1
 37 780 l 1
 583 780 l 1
 583 708 l 1
 358 708 l 1
 358 0 l 1
 262 0 l 1
 262 708 l 1
 37 708 l 1
EndSplineSet
EndChar

StartChar: tcaron
Encoding: 357 357 292
Width: 625
GlyphClass: 2
Flags: W
LayerCount: 2
Fore
SplineSet
545 710 m 1
 536 705 524 703 512 703 c 0
 476 703 450 725 450 761 c 0
 450 801 474 829 518 829 c 0
 580 829 600 779 600 735 c 0
 600 640 533 581 481 559 c 1
 458 591 l 1
 494 607 537 649 545 710 c 1
35 542 m 1
 35 600 l 1
 133 600 l 1
 133 728 l 1
 219 735 l 1
 219 600 l 1
 375 600 l 1
 375 542 l 1
 220 542 l 1
 220 133 l 2
 220 69 240 52 282 52 c 0
 326 52 367 69 383 79 c 1
 405 19 l 1
 378 3 329 -13 271 -13 c 0
 186 -13 130 25 130 121 c 2
 130 542 l 1
 35 542 l 1
EndSplineSet
EndChar

StartChar: Utilde
Encoding: 360 360 293
Width: 770
GlyphClass: 2
Flags: W
AnchorPoint: "LatinBelow.mark" 385 0 basechar 0
AnchorPoint: "LatinAbove.mark" 385 330 basechar 0
LayerCount: 2
Fore
SplineSet
198 887 m 1
 218 938 245 1007 309 1007 c 0
 359 1007 387 976 409 955 c 0
 430 934 445 913 464 913 c 0
 496 913 515 974 525 1000 c 1
 572 983 l 1
 554 931 525 863 462 863 c 0
 412 863 384 894 362 915 c 0
 341 936 326 957 307 957 c 0
 275 957 256 896 246 870 c 1
 198 887 l 1
87 236 m 2
 87 780 l 1
 183 780 l 1
 183 236 l 2
 183 118 267 54 385 54 c 0
 503 54 587 118 587 236 c 2
 587 780 l 1
 683 780 l 1
 683 236 l 2
 683 90 565 -18 385 -18 c 0
 205 -18 87 90 87 236 c 2
EndSplineSet
EndChar

StartChar: utilde
Encoding: 361 361 294
Width: 620
GlyphClass: 2
Flags: W
AnchorPoint: "LatinBelow.mark" 310 0 basechar 0
AnchorPoint: "LatinAbove.mark" 310 180 basechar 0
LayerCount: 2
Fore
SplineSet
123 737 m 1
 143 788 170 857 234 857 c 0
 284 857 312 826 334 805 c 0
 355 784 370 763 389 763 c 0
 421 763 440 824 450 850 c 1
 497 833 l 1
 479 781 450 713 387 713 c 0
 337 713 309 744 287 765 c 0
 266 786 251 807 232 807 c 0
 200 807 181 746 171 720 c 1
 123 737 l 1
72 184 m 2
 72 600 l 1
 162 600 l 1
 162 184 l 2
 162 94 224 48 310 48 c 0
 396 48 458 94 458 184 c 2
 458 600 l 1
 548 600 l 1
 548 184 l 2
 548 69 456 -18 310 -18 c 0
 164 -18 72 69 72 184 c 2
EndSplineSet
EndChar

StartChar: Umacron
Encoding: 362 362 295
Width: 770
GlyphClass: 2
Flags: W
AnchorPoint: "LatinBelow.mark" 385 0 basechar 0
AnchorPoint: "LatinAbove.mark" 385 330 basechar 0
LayerCount: 2
Fore
SplineSet
198 900 m 1
 198 960 l 1
 572 960 l 1
 572 900 l 1
 198 900 l 1
87 236 m 2
 87 780 l 1
 183 780 l 1
 183 236 l 2
 183 118 267 54 385 54 c 0
 503 54 587 118 587 236 c 2
 587 780 l 1
 683 780 l 1
 683 236 l 2
 683 90 565 -18 385 -18 c 0
 205 -18 87 90 87 236 c 2
EndSplineSet
EndChar

StartChar: umacron
Encoding: 363 363 296
Width: 620
GlyphClass: 2
Flags: W
AnchorPoint: "LatinBelow.mark" 310 0 basechar 0
AnchorPoint: "LatinAbove.mark" 310 180 basechar 0
LayerCount: 2
Fore
SplineSet
123 750 m 1
 123 810 l 1
 497 810 l 1
 497 750 l 1
 123 750 l 1
72 184 m 2
 72 600 l 1
 162 600 l 1
 162 184 l 2
 162 94 224 48 310 48 c 0
 396 48 458 94 458 184 c 2
 458 600 l 1
 548 600 l 1
 548 184 l 2
 548 69 456 -18 310 -18 c 0
 164 -18 72 69 72 184 c 2
EndSplineSet
EndChar

StartChar: Ubreve
Encoding: 364 364 297
Width: 770
GlyphClass: 2
Flags: W
AnchorPoint: "LatinBelow.mark" 385 0 basechar 0
AnchorPoint: "LatinAbove.mark" 385 330 basechar 0
LayerCount: 2
Fore
SplineSet
198 988 m 1
 255 1007 l 1
 267 959 297 905 385 905 c 0
 473 905 503 959 515 1007 c 1
 572 988 l 1
 554 920 502 847 385 847 c 0
 268 847 216 920 198 988 c 1
87 236 m 2
 87 780 l 1
 183 780 l 1
 183 236 l 2
 183 118 267 54 385 54 c 0
 503 54 587 118 587 236 c 2
 587 780 l 1
 683 780 l 1
 683 236 l 2
 683 90 565 -18 385 -18 c 0
 205 -18 87 90 87 236 c 2
EndSplineSet
EndChar

StartChar: ubreve
Encoding: 365 365 298
Width: 620
GlyphClass: 2
Flags: W
AnchorPoint: "LatinBelow.mark" 310 0 basechar 0
AnchorPoint: "LatinAbove.mark" 310 180 basechar 0
LayerCount: 2
Fore
SplineSet
123 838 m 1
 180 857 l 1
 192 809 222 755 310 755 c 0
 398 755 428 809 440 857 c 1
 497 838 l 1
 479 770 427 697 310 697 c 0
 193 697 141 770 123 838 c 1
72 184 m 2
 72 600 l 1
 162 600 l 1
 162 184 l 2
 162 94 224 48 310 48 c 0
 396 48 458 94 458 184 c 2
 458 600 l 1
 548 600 l 1
 548 184 l 2
 548 69 456 -18 310 -18 c 0
 164 -18 72 69 72 184 c 2
EndSplineSet
EndChar

StartChar: Uring
Encoding: 366 366 299
Width: 770
GlyphClass: 2
Flags: W
AnchorPoint: "LatinBelow.mark" 385 0 basechar 0
AnchorPoint: "LatinAbove.mark" 385 330 basechar 0
LayerCount: 2
Fore
SplineSet
385 807 m 0
 318 807 270 851 270 915 c 0
 270 979 318 1023 385 1023 c 0
 452 1023 500 979 500 915 c 0
 500 851 452 807 385 807 c 0
385 851 m 0
 425 851 451 877 451 915 c 0
 451 953 425 979 385 979 c 0
 345 979 319 953 319 915 c 0
 319 877 345 851 385 851 c 0
87 236 m 2
 87 780 l 1
 183 780 l 1
 183 236 l 2
 183 118 267 54 385 54 c 0
 503 54 587 118 587 236 c 2
 587 780 l 1
 683 780 l 1
 683 236 l 2
 683 90 565 -18 385 -18 c 0
 205 -18 87 90 87 236 c 2
EndSplineSet
EndChar

StartChar: uring
Encoding: 367 367 300
Width: 620
GlyphClass: 2
Flags: W
AnchorPoint: "LatinBelow.mark" 310 0 basechar 0
AnchorPoint: "LatinAbove.mark" 310 180 basechar 0
LayerCount: 2
Fore
SplineSet
310 657 m 0
 243 657 195 701 195 765 c 0
 195 829 243 873 310 873 c 0
 377 873 425 829 425 765 c 0
 425 701 377 657 310 657 c 0
310 701 m 0
 350 701 376 727 376 765 c 0
 376 803 350 829 310 829 c 0
 270 829 244 803 244 765 c 0
 244 727 270 701 310 701 c 0
72 184 m 2
 72 600 l 1
 162 600 l 1
 162 184 l 2
 162 94 224 48 310 48 c 0
 396 48 458 94 458 184 c 2
 458 600 l 1
 548 600 l 1
 548 184 l 2
 548 69 456 -18 310 -18 c 0
 164 -18 72 69 72 184 c 2
EndSplineSet
EndChar

StartChar: Uhungarumlaut
Encoding: 368 368 301
Width: 770
GlyphClass: 2
Flags: W
AnchorPoint: "LatinBelow.mark" 385 0 basechar 0
AnchorPoint: "LatinAbove.mark" 385 330 basechar 0
LayerCount: 2
Fore
SplineSet
227 873 m 1
 344 1062 l 1
 400 1022 l 1
 261 848 l 1
 227 873 l 1
430 873 m 1
 547 1062 l 1
 602 1022 l 1
 464 848 l 1
 430 873 l 1
87 236 m 2
 87 780 l 1
 183 780 l 1
 183 236 l 2
 183 118 267 54 385 54 c 0
 503 54 587 118 587 236 c 2
 587 780 l 1
 683 780 l 1
 683 236 l 2
 683 90 565 -18 385 -18 c 0
 205 -18 87 90 87 236 c 2
EndSplineSet
EndChar

StartChar: uhungarumlaut
Encoding: 369 369 302
Width: 620
GlyphClass: 2
Flags: W
AnchorPoint: "LatinBelow.mark" 310 0 basechar 0
AnchorPoint: "LatinAbove.mark" 310 180 basechar 0
LayerCount: 2
Fore
SplineSet
152 723 m 1
 269 912 l 1
 325 872 l 1
 186 698 l 1
 152 723 l 1
355 723 m 1
 472 912 l 1
 527 872 l 1
 389 698 l 1
 355 723 l 1
72 184 m 2
 72 600 l 1
 162 600 l 1
 162 184 l 2
 162 94 224 48 310 48 c 0
 396 48 458 94 458 184 c 2
 458 600 l 1
 548 600 l 1
 548 184 l 2
 548 69 456 -18 310 -18 c 0
 164 -18 72 69 72 184 c 2
EndSplineSet
EndChar

StartChar: Uogonek
Encoding: 370 370 303
Width: 770
GlyphClass: 2
Flags: W
AnchorPoint: "LatinAbove.mark" 385 150 basechar 0
LayerCount: 2
Fore
SplineSet
87 236 m 2
 87 780 l 1
 183 780 l 1
 183 236 l 2
 183 118 267 54 385 54 c 0
 503 54 587 118 587 236 c 2
 587 780 l 1
 683 780 l 1
 683 236 l 2
 683 129 619 43 514 4 c 1
 485 -29 462 -72 462 -135 c 0
 462 -184 488 -204 522 -204 c 0
 550 -204 574 -195 586 -188 c 1
 602 -232 l 1
 577 -245 548 -252 512 -252 c 0
 440 -252 402 -207 402 -142 c 0
 402 -89 421 -47 445 -14 c 1
 426 -17 406 -18 385 -18 c 0
 205 -18 87 90 87 236 c 2
EndSplineSet
EndChar

StartChar: uogonek
Encoding: 371 371 304
Width: 620
GlyphClass: 2
Flags: W
AnchorPoint: "LatinAbove.mark" 310 0 basechar 0
LayerCount: 2
Fore
SplineSet
72 184 m 2
 72 600 l 1
 162 600 l 1
 162 184 l 2
 162 94 224 48 310 48 c 0
 396 48 458 94 458 184 c 2
 458 600 l 1
 548 600 l 1
 548 184 l 2
 548 98 496 28 409 -2 c 1
 383 -34 362 -76 362 -135 c 0
 362 -184 388 -204 422 -204 c 0
 450 -204 474 -195 486 -188 c 1
 502 -232 l 1
 477 -245 448 -252 412 -252 c 0
 340 -252 302 -207 302 -142 c 0
 302 -90 319 -49 343 -16 c 1
 332 -17 321 -18 310 -18 c 0
 164 -18 72 69 72 184 c 2
EndSplineSet
EndChar

StartChar: Wcircumflex
Encoding: 372 372 305
Width: 1060
GlyphClass: 2
Flags: W
AnchorPoint: "LatinBelow.mark" 530 0 basechar 0
LayerCount: 2
Fore
SplineSet
343 863 m 1
 518 1012 l 1
 542 1012 l 1
 717 863 l 1
 689 832 l 1
 530 938 l 1
 371 832 l 1
 343 863 l 1
1028 765 m 1
 798 0 l 1
 714 0 l 1
 530 624 l 1
 346 0 l 1
 262 0 l 1
 32 765 l 1
 32 771 l 1
 136 780 l 1
 311 129 l 1
 490 760 l 1
 570 760 l 1
 749 129 l 1
 924 780 l 1
 1028 771 l 1
 1028 765 l 1
EndSplineSet
EndChar

StartChar: wcircumflex
Encoding: 373 373 306
Width: 830
GlyphClass: 2
Flags: W
AnchorPoint: "LatinBelow.mark" 415 0 basechar 0
LayerCount: 2
Fore
SplineSet
228 713 m 1
 403 862 l 1
 427 862 l 1
 602 713 l 1
 574 682 l 1
 415 788 l 1
 256 682 l 1
 228 713 l 1
803 588 m 1
 627 0 l 1
 549 0 l 1
 415 461 l 1
 281 0 l 1
 203 0 l 1
 27 588 l 1
 27 592 l 1
 123 600 l 1
 248 125 l 1
 379 585 l 1
 451 585 l 1
 582 125 l 1
 707 600 l 1
 803 592 l 1
 803 588 l 1
EndSplineSet
EndChar

StartChar: Ycircumflex
Encoding: 374 374 307
Width: 670
GlyphClass: 2
Flags: W
AnchorPoint: "LatinBelow.mark" 335 0 basechar 0
AnchorPoint: "LatinAbove.mark" 345 330 basechar 0
LayerCount: 2
Fore
SplineSet
148 863 m 1
 323 1012 l 1
 347 1012 l 1
 522 863 l 1
 494 832 l 1
 335 938 l 1
 176 832 l 1
 148 863 l 1
18 765 m 1
 18 772 l 1
 125 780 l 1
 335 392 l 1
 545 780 l 1
 652 772 l 1
 652 765 l 1
 383 301 l 1
 383 0 l 1
 287 0 l 1
 287 301 l 1
 18 765 l 1
EndSplineSet
EndChar

StartChar: ycircumflex
Encoding: 375 375 308
Width: 600
GlyphClass: 2
Flags: W
AnchorPoint: "LatinBelow.mark" 300 -180 basechar 0
AnchorPoint: "LatinAbove.mark" 300 180 basechar 0
LayerCount: 2
Fore
SplineSet
113 713 m 1
 288 862 l 1
 312 862 l 1
 487 713 l 1
 459 682 l 1
 300 788 l 1
 141 682 l 1
 113 713 l 1
22 588 m 1
 22 593 l 1
 120 600 l 1
 299 103 l 1
 481 600 l 1
 578 593 l 1
 578 588 l 1
 328 -29 l 2
 290 -113 245 -228 138 -228 c 0
 88 -228 56 -206 32 -186 c 1
 76 -131 l 1
 94 -147 111 -165 136 -165 c 0
 184 -165 218 -96 254 -12 c 2
 261 3 l 1
 22 588 l 1
EndSplineSet
EndChar

StartChar: Ydieresis
Encoding: 376 376 309
Width: 670
GlyphClass: 2
Flags: W
AnchorPoint: "LatinBelow.mark" 335 0 basechar 0
AnchorPoint: "LatinAbove.mark" 345 330 basechar 0
LayerCount: 2
Fore
SplineSet
148 930 m 0
 148 969 178 993 216 993 c 0
 254 993 284 969 284 930 c 0
 284 891 254 867 216 867 c 0
 178 867 148 891 148 930 c 0
386 930 m 0
 386 969 416 993 454 993 c 0
 492 993 522 969 522 930 c 0
 522 891 492 867 454 867 c 0
 416 867 386 891 386 930 c 0
18 765 m 1
 18 772 l 1
 125 780 l 1
 335 392 l 1
 545 780 l 1
 652 772 l 1
 652 765 l 1
 383 301 l 1
 383 0 l 1
 287 0 l 1
 287 301 l 1
 18 765 l 1
EndSplineSet
EndChar

StartChar: Zacute
Encoding: 377 377 310
Width: 670
GlyphClass: 2
Flags: W
AnchorPoint: "LatinBelow.mark" 335 0 basechar 0
LayerCount: 2
Fore
SplineSet
485 990 m 1
 256 848 l 1
 230 884 l 1
 445 1052 l 1
 485 990 l 1
43 55 m 1
 490 706 l 1
 67 706 l 1
 67 780 l 1
 611 780 l 1
 618 725 l 1
 171 74 l 1
 628 74 l 1
 628 0 l 1
 50 0 l 1
 43 55 l 1
EndSplineSet
EndChar

StartChar: zacute
Encoding: 378 378 311
Width: 530
GlyphClass: 2
Flags: W
AnchorPoint: "LatinBelow.mark" 265 0 basechar 0
LayerCount: 2
Fore
SplineSet
415 840 m 1
 186 698 l 1
 160 734 l 1
 375 902 l 1
 415 840 l 1
37 46 m 1
 367 536 l 1
 57 536 l 1
 57 600 l 1
 479 600 l 1
 485 554 l 1
 156 64 l 1
 492 64 l 1
 492 0 l 1
 43 0 l 1
 37 46 l 1
EndSplineSet
EndChar

StartChar: Zdotaccent
Encoding: 379 379 312
Width: 670
GlyphClass: 2
Flags: W
AnchorPoint: "LatinBelow.mark" 335 0 basechar 0
LayerCount: 2
Fore
SplineSet
335 998 m 0
 376 998 407 972 407 930 c 0
 407 888 376 862 335 862 c 0
 294 862 263 888 263 930 c 0
 263 972 294 998 335 998 c 0
43 55 m 1
 490 706 l 1
 67 706 l 1
 67 780 l 1
 611 780 l 1
 618 725 l 1
 171 74 l 1
 628 74 l 1
 628 0 l 1
 50 0 l 1
 43 55 l 1
EndSplineSet
EndChar

StartChar: zdotaccent
Encoding: 380 380 313
Width: 530
GlyphClass: 2
Flags: W
AnchorPoint: "LatinBelow.mark" 265 0 basechar 0
LayerCount: 2
Fore
SplineSet
265 848 m 0
 306 848 337 822 337 780 c 0
 337 738 306 712 265 712 c 0
 224 712 193 738 193 780 c 0
 193 822 224 848 265 848 c 0
37 46 m 1
 367 536 l 1
 57 536 l 1
 57 600 l 1
 479 600 l 1
 485 554 l 1
 156 64 l 1
 492 64 l 1
 492 0 l 1
 43 0 l 1
 37 46 l 1
EndSplineSet
EndChar

StartChar: Zcaron
Encoding: 381 381 314
Width: 670
GlyphClass: 2
Flags: W
AnchorPoint: "LatinBelow.mark" 335 0 basechar 0
LayerCount: 2
Fore
SplineSet
522 992 m 1
 347 843 l 1
 323 843 l 1
 148 992 l 1
 176 1023 l 1
 335 917 l 1
 494 1023 l 1
 522 992 l 1
43 55 m 1
 490 706 l 1
 67 706 l 1
 67 780 l 1
 611 780 l 1
 618 725 l 1
 171 74 l 1
 628 74 l 1
 628 0 l 1
 50 0 l 1
 43 55 l 1
EndSplineSet
EndChar

StartChar: zcaron
Encoding: 382 382 315
Width: 530
GlyphClass: 2
Flags: W
AnchorPoint: "LatinBelow.mark" 265 0 basechar 0
LayerCount: 2
Fore
SplineSet
452 842 m 1
 277 693 l 1
 253 693 l 1
 78 842 l 1
 106 873 l 1
 265 767 l 1
 424 873 l 1
 452 842 l 1
37 46 m 1
 367 536 l 1
 57 536 l 1
 57 600 l 1
 479 600 l 1
 485 554 l 1
 156 64 l 1
 492 64 l 1
 492 0 l 1
 43 0 l 1
 37 46 l 1
EndSplineSet
EndChar

StartChar: uni018F
Encoding: 399 399 316
Width: 780
GlyphClass: 2
Flags: W
AnchorPoint: "LatinBelow.mark" 375 0 basechar 0
AnchorPoint: "LatinAbove.mark" 375 150 basechar 0
LayerCount: 2
Fore
SplineSet
712 408 m 2
 712 372 l 2
 712 187 634 -18 374 -18 c 0
 158 -18 57 132 57 308 c 0
 57 340 62 373 68 406 c 1
 620 406 l 1
 620 408 l 2
 620 594 543 728 374 728 c 0
 250 728 185 645 174 583 c 1
 80 591 l 1
 94 671 182 798 374 798 c 0
 634 798 712 593 712 408 c 2
619 344 m 1
 152 344 l 1
 151 332 150 320 150 308 c 0
 150 144 234 51 374 51 c 0
 534 51 612 173 619 344 c 1
EndSplineSet
EndChar

StartChar: florin
Encoding: 402 402 317
Width: 400
GlyphClass: 2
Flags: W
AnchorPoint: "LatinBelow.mark" 180 0 basechar 0
AnchorPoint: "LatinAbove.mark" 270 180 basechar 0
LayerCount: 2
Fore
SplineSet
35 542 m 1
 35 600 l 1
 130 600 l 1
 130 683 l 2
 130 743 167 828 283 828 c 0
 360 828 406 794 420 784 c 1
 381 735 l 1
 368 744 337 765 289 765 c 0
 241 765 217 729 217 683 c 2
 217 600 l 1
 375 600 l 1
 375 542 l 1
 220 542 l 1
 220 -24 l 2
 220 -133 137 -195 43 -223 c 1
 15 -164 l 1
 84 -140 130 -102 130 -19 c 2
 130 542 l 1
 35 542 l 1
EndSplineSet
EndChar

StartChar: Ohorn
Encoding: 416 416 318
Width: 820
GlyphClass: 3
Flags: W
AnchorPoint: "LatinBelow.mark" 410 0 basechar 0
AnchorPoint: "LatinAbove.mark" 410 150 basechar 0
LayerCount: 2
Fore
SplineSet
68 372 m 2
 68 408 l 2
 68 594 147 798 410 798 c 0
 508 798 581 769 633 724 c 1
 657 736 687 765 687 815 c 0
 687 845 674 866 662 879 c 1
 718 912 l 1
 737 892 752 860 752 818 c 0
 752 753 708 712 665 692 c 1
 729 616 752 509 752 408 c 2
 752 372 l 2
 752 186 673 -18 410 -18 c 0
 147 -18 68 186 68 372 c 2
410 54 m 0
 579 54 654 186 654 372 c 2
 654 408 l 2
 654 594 579 726 410 726 c 0
 241 726 166 594 166 408 c 2
 166 372 l 2
 166 186 241 54 410 54 c 0
EndSplineSet
Ligature2: "Latin.horn subtable" O uni031B
Ligature2: "Latin.horn subtable" O uni200D uni031B
EndChar

StartChar: ohorn
Encoding: 417 417 319
Width: 660
GlyphClass: 3
Flags: W
AnchorPoint: "LatinBelow.mark" 330 0 basechar 0
AnchorPoint: "LatinAbove.mark" 330 0 basechar 0
LayerCount: 2
Fore
SplineSet
62 286 m 2
 62 314 l 2
 62 456 122 618 330 618 c 0
 415 618 475 591 517 549 c 1
 539 563 562 591 562 635 c 0
 562 665 549 686 537 699 c 1
 593 732 l 1
 612 712 627 680 627 638 c 0
 627 576 586 536 545 515 c 1
 584 457 598 383 598 314 c 2
 598 286 l 2
 598 144 538 -18 330 -18 c 0
 122 -18 62 144 62 286 c 2
330 48 m 0
 450 48 508 143 508 286 c 2
 508 314 l 2
 508 457 450 552 330 552 c 0
 210 552 152 457 152 314 c 2
 152 286 l 2
 152 143 210 48 330 48 c 0
EndSplineSet
Ligature2: "Latin.horn subtable" o uni031B
Ligature2: "Latin.horn subtable" o uni200D uni031B
EndChar

StartChar: Uhorn
Encoding: 431 431 320
Width: 780
GlyphClass: 3
Flags: W
AnchorPoint: "LatinBelow.mark" 385 0 basechar 0
AnchorPoint: "LatinAbove.mark" 385 150 basechar 0
LayerCount: 2
Fore
SplineSet
87 236 m 2
 87 780 l 1
 183 780 l 1
 183 236 l 2
 183 118 267 54 385 54 c 0
 503 54 587 118 587 236 c 2
 587 735 l 1
 605 735 l 1
 644 727 l 1
 667 741 692 768 692 815 c 0
 692 845 679 866 667 879 c 1
 723 912 l 1
 742 892 757 860 757 818 c 0
 757 760 721 721 683 699 c 1
 683 236 l 2
 683 90 565 -18 385 -18 c 0
 205 -18 87 90 87 236 c 2
EndSplineSet
Ligature2: "Latin.horn subtable" U uni031B
Ligature2: "Latin.horn subtable" U uni200D uni031B
EndChar

StartChar: uhorn
Encoding: 432 432 321
Width: 635
GlyphClass: 3
Flags: W
AnchorPoint: "LatinBelow.mark" 310 0 basechar 0
AnchorPoint: "LatinAbove.mark" 310 0 basechar 0
LayerCount: 2
Fore
SplineSet
72 184 m 2
 72 600 l 1
 162 600 l 1
 162 184 l 2
 162 94 224 48 310 48 c 0
 396 48 458 94 458 184 c 2
 458 555 l 1
 476 555 l 1
 510 547 l 1
 533 561 557 588 557 635 c 0
 557 665 544 686 532 699 c 1
 588 732 l 1
 607 712 622 680 622 638 c 0
 622 580 586 541 548 519 c 1
 548 184 l 2
 548 69 456 -18 310 -18 c 0
 164 -18 72 69 72 184 c 2
EndSplineSet
Ligature2: "Latin.horn subtable" u uni031B
Ligature2: "Latin.horn subtable" u uni200D uni031B
EndChar

StartChar: uni01CD
Encoding: 461 461 322
Width: 750
GlyphClass: 2
Flags: W
AnchorPoint: "LatinBelow.mark" 375 0 basechar 0
AnchorPoint: "LatinAbove.mark" 375 330 basechar 0
LayerCount: 2
Fore
SplineSet
562 992 m 1
 387 843 l 1
 363 843 l 1
 188 992 l 1
 216 1023 l 1
 375 917 l 1
 534 1023 l 1
 562 992 l 1
727 0 m 1
 619 0 l 1
 555 176 l 1
 195 176 l 1
 131 0 l 1
 23 0 l 1
 23 6 l 1
 335 780 l 1
 415 780 l 1
 727 6 l 1
 727 0 l 1
530 244 m 1
 375 670 l 1
 220 244 l 1
 530 244 l 1
EndSplineSet
EndChar

StartChar: uni01CE
Encoding: 462 462 323
Width: 625
GlyphClass: 2
Flags: W
AnchorPoint: "LatinBelow.mark" 330 0 basechar 0
AnchorPoint: "LatinAbove.mark" 310 180 basechar 0
LayerCount: 2
Fore
SplineSet
497 842 m 1
 322 693 l 1
 298 693 l 1
 123 842 l 1
 151 873 l 1
 310 767 l 1
 469 873 l 1
 497 842 l 1
63 172 m 0
 63 249 125 320 251 320 c 0
 324 320 395 314 446 308 c 1
 446 422 l 2
 446 511 384 552 300 552 c 0
 220 552 169 505 158 429 c 1
 68 435 l 1
 81 528 156 618 300 618 c 0
 442 618 533 536 533 422 c 2
 533 137 l 2
 533 77 551 53 603 47 c 1
 581 -13 l 1
 536 -8 476 14 462 89 c 1
 427 35 369 -13 275 -13 c 0
 146 -13 63 57 63 172 c 0
450 252 m 1
 405 258 336 266 256 266 c 0
 198 266 151 232 151 171 c 0
 151 83 213 43 285 43 c 0
 392 43 436 133 450 210 c 1
 450 252 l 1
EndSplineSet
MultipleSubs2: "Latin.a.decomp subtable" uni0251 uni030C
EndChar

StartChar: uni01CF
Encoding: 463 463 324
Width: 320
GlyphClass: 2
Flags: W
AnchorPoint: "LatinBelow.mark" 160 0 basechar 0
AnchorPoint: "LatinAbove.mark" 160 330 basechar 0
LayerCount: 2
Fore
SplineSet
347 992 m 1
 172 843 l 1
 148 843 l 1
 -27 992 l 1
 1 1023 l 1
 160 917 l 1
 319 1023 l 1
 347 992 l 1
112 0 m 1
 112 780 l 1
 208 780 l 1
 208 0 l 1
 112 0 l 1
EndSplineSet
EndChar

StartChar: uni01D0
Encoding: 464 464 325
Width: 300
GlyphClass: 2
Flags: W
AnchorPoint: "LatinBelow.mark" 150 0 basechar 0
AnchorPoint: "LatinAbove.mark" 150 180 basechar 0
LayerCount: 2
Fore
SplineSet
337 842 m 1
 162 693 l 1
 138 693 l 1
 -37 842 l 1
 -9 873 l 1
 150 767 l 1
 309 873 l 1
 337 842 l 1
105 0 m 1
 105 600 l 1
 195 600 l 1
 195 0 l 1
 105 0 l 1
EndSplineSet
EndChar

StartChar: uni01D1
Encoding: 465 465 326
Width: 820
GlyphClass: 2
Flags: W
AnchorPoint: "LatinBelow.mark" 410 0 basechar 0
AnchorPoint: "LatinAbove.mark" 410 330 basechar 0
LayerCount: 2
Fore
SplineSet
597 992 m 1
 422 843 l 1
 398 843 l 1
 223 992 l 1
 251 1023 l 1
 410 917 l 1
 569 1023 l 1
 597 992 l 1
68 372 m 2
 68 408 l 2
 68 594 147 798 410 798 c 0
 673 798 752 594 752 408 c 2
 752 372 l 2
 752 186 673 -18 410 -18 c 0
 147 -18 68 186 68 372 c 2
410 54 m 0
 579 54 654 186 654 372 c 2
 654 408 l 2
 654 594 579 726 410 726 c 0
 241 726 166 594 166 408 c 2
 166 372 l 2
 166 186 241 54 410 54 c 0
EndSplineSet
EndChar

StartChar: uni01D2
Encoding: 466 466 327
Width: 660
GlyphClass: 2
Flags: W
AnchorPoint: "LatinBelow.mark" 330 0 basechar 0
AnchorPoint: "LatinAbove.mark" 330 180 basechar 0
LayerCount: 2
Fore
SplineSet
517 842 m 1
 342 693 l 1
 318 693 l 1
 143 842 l 1
 171 873 l 1
 330 767 l 1
 489 873 l 1
 517 842 l 1
62 286 m 2
 62 314 l 2
 62 456 122 618 330 618 c 0
 538 618 598 456 598 314 c 2
 598 286 l 2
 598 144 538 -18 330 -18 c 0
 122 -18 62 144 62 286 c 2
330 48 m 0
 450 48 508 143 508 286 c 2
 508 314 l 2
 508 457 450 552 330 552 c 0
 210 552 152 457 152 314 c 2
 152 286 l 2
 152 143 210 48 330 48 c 0
EndSplineSet
EndChar

StartChar: uni01D3
Encoding: 467 467 328
Width: 770
GlyphClass: 2
Flags: W
AnchorPoint: "LatinBelow.mark" 385 0 basechar 0
AnchorPoint: "LatinAbove.mark" 385 330 basechar 0
LayerCount: 2
Fore
SplineSet
572 992 m 1
 397 843 l 1
 373 843 l 1
 198 992 l 1
 226 1023 l 1
 385 917 l 1
 544 1023 l 1
 572 992 l 1
87 236 m 2
 87 780 l 1
 183 780 l 1
 183 236 l 2
 183 118 267 54 385 54 c 0
 503 54 587 118 587 236 c 2
 587 780 l 1
 683 780 l 1
 683 236 l 2
 683 90 565 -18 385 -18 c 0
 205 -18 87 90 87 236 c 2
EndSplineSet
EndChar

StartChar: uni01D4
Encoding: 468 468 329
Width: 620
GlyphClass: 2
Flags: W
AnchorPoint: "LatinBelow.mark" 310 0 basechar 0
AnchorPoint: "LatinAbove.mark" 310 180 basechar 0
LayerCount: 2
Fore
SplineSet
497 842 m 1
 322 693 l 1
 298 693 l 1
 123 842 l 1
 151 873 l 1
 310 767 l 1
 469 873 l 1
 497 842 l 1
72 184 m 2
 72 600 l 1
 162 600 l 1
 162 184 l 2
 162 94 224 48 310 48 c 0
 396 48 458 94 458 184 c 2
 458 600 l 1
 548 600 l 1
 548 184 l 2
 548 69 456 -18 310 -18 c 0
 164 -18 72 69 72 184 c 2
EndSplineSet
EndChar

StartChar: uni01D5
Encoding: 469 469 330
Width: 770
GlyphClass: 2
Flags: W
AnchorPoint: "LatinBelow.mark" 385 0 basechar 0
LayerCount: 2
Fore
SplineSet
198 1080 m 1
 198 1140 l 1
 572 1140 l 1
 572 1080 l 1
 198 1080 l 1
198 930 m 0
 198 969 228 993 266 993 c 0
 304 993 334 969 334 930 c 0
 334 891 304 867 266 867 c 0
 228 867 198 891 198 930 c 0
436 930 m 0
 436 969 466 993 504 993 c 0
 542 993 572 969 572 930 c 0
 572 891 542 867 504 867 c 0
 466 867 436 891 436 930 c 0
87 236 m 2
 87 780 l 1
 183 780 l 1
 183 236 l 2
 183 118 267 54 385 54 c 0
 503 54 587 118 587 236 c 2
 587 780 l 1
 683 780 l 1
 683 236 l 2
 683 90 565 -18 385 -18 c 0
 205 -18 87 90 87 236 c 2
EndSplineSet
EndChar

StartChar: uni01D6
Encoding: 470 470 331
Width: 620
GlyphClass: 2
Flags: W
AnchorPoint: "LatinBelow.mark" 310 0 basechar 0
LayerCount: 2
Fore
SplineSet
123 930 m 1
 123 990 l 1
 497 990 l 1
 497 930 l 1
 123 930 l 1
123 780 m 0
 123 819 153 843 191 843 c 0
 229 843 259 819 259 780 c 0
 259 741 229 717 191 717 c 0
 153 717 123 741 123 780 c 0
361 780 m 0
 361 819 391 843 429 843 c 0
 467 843 497 819 497 780 c 0
 497 741 467 717 429 717 c 0
 391 717 361 741 361 780 c 0
72 184 m 2
 72 600 l 1
 162 600 l 1
 162 184 l 2
 162 94 224 48 310 48 c 0
 396 48 458 94 458 184 c 2
 458 600 l 1
 548 600 l 1
 548 184 l 2
 548 69 456 -18 310 -18 c 0
 164 -18 72 69 72 184 c 2
EndSplineSet
EndChar

StartChar: uni01D7
Encoding: 471 471 332
Width: 770
GlyphClass: 2
Flags: W
AnchorPoint: "LatinBelow.mark" 385 0 basechar 0
LayerCount: 2
Fore
SplineSet
535 1170 m 1
 306 1028 l 1
 280 1064 l 1
 495 1232 l 1
 535 1170 l 1
198 930 m 0
 198 969 228 993 266 993 c 0
 304 993 334 969 334 930 c 0
 334 891 304 867 266 867 c 0
 228 867 198 891 198 930 c 0
436 930 m 0
 436 969 466 993 504 993 c 0
 542 993 572 969 572 930 c 0
 572 891 542 867 504 867 c 0
 466 867 436 891 436 930 c 0
87 236 m 2
 87 780 l 1
 183 780 l 1
 183 236 l 2
 183 118 267 54 385 54 c 0
 503 54 587 118 587 236 c 2
 587 780 l 1
 683 780 l 1
 683 236 l 2
 683 90 565 -18 385 -18 c 0
 205 -18 87 90 87 236 c 2
EndSplineSet
EndChar

StartChar: uni01D8
Encoding: 472 472 333
Width: 620
GlyphClass: 2
Flags: W
AnchorPoint: "LatinBelow.mark" 310 0 basechar 0
LayerCount: 2
Fore
SplineSet
460 1020 m 1
 231 878 l 1
 205 914 l 1
 420 1082 l 1
 460 1020 l 1
123 780 m 0
 123 819 153 843 191 843 c 0
 229 843 259 819 259 780 c 0
 259 741 229 717 191 717 c 0
 153 717 123 741 123 780 c 0
361 780 m 0
 361 819 391 843 429 843 c 0
 467 843 497 819 497 780 c 0
 497 741 467 717 429 717 c 0
 391 717 361 741 361 780 c 0
72 184 m 2
 72 600 l 1
 162 600 l 1
 162 184 l 2
 162 94 224 48 310 48 c 0
 396 48 458 94 458 184 c 2
 458 600 l 1
 548 600 l 1
 548 184 l 2
 548 69 456 -18 310 -18 c 0
 164 -18 72 69 72 184 c 2
EndSplineSet
EndChar

StartChar: uni01D9
Encoding: 473 473 334
Width: 770
GlyphClass: 2
Flags: W
AnchorPoint: "LatinBelow.mark" 385 0 basechar 0
LayerCount: 2
Fore
SplineSet
572 1172 m 1
 397 1023 l 1
 373 1023 l 1
 198 1172 l 1
 226 1203 l 1
 385 1097 l 1
 544 1203 l 1
 572 1172 l 1
198 930 m 0
 198 969 228 993 266 993 c 0
 304 993 334 969 334 930 c 0
 334 891 304 867 266 867 c 0
 228 867 198 891 198 930 c 0
436 930 m 0
 436 969 466 993 504 993 c 0
 542 993 572 969 572 930 c 0
 572 891 542 867 504 867 c 0
 466 867 436 891 436 930 c 0
87 236 m 2
 87 780 l 1
 183 780 l 1
 183 236 l 2
 183 118 267 54 385 54 c 0
 503 54 587 118 587 236 c 2
 587 780 l 1
 683 780 l 1
 683 236 l 2
 683 90 565 -18 385 -18 c 0
 205 -18 87 90 87 236 c 2
EndSplineSet
EndChar

StartChar: uni01DA
Encoding: 474 474 335
Width: 620
GlyphClass: 2
Flags: W
AnchorPoint: "LatinBelow.mark" 310 0 basechar 0
LayerCount: 2
Fore
SplineSet
497 1022 m 1
 322 873 l 1
 298 873 l 1
 123 1022 l 1
 151 1053 l 1
 310 947 l 1
 469 1053 l 1
 497 1022 l 1
123 780 m 0
 123 819 153 843 191 843 c 0
 229 843 259 819 259 780 c 0
 259 741 229 717 191 717 c 0
 153 717 123 741 123 780 c 0
361 780 m 0
 361 819 391 843 429 843 c 0
 467 843 497 819 497 780 c 0
 497 741 467 717 429 717 c 0
 391 717 361 741 361 780 c 0
72 184 m 2
 72 600 l 1
 162 600 l 1
 162 184 l 2
 162 94 224 48 310 48 c 0
 396 48 458 94 458 184 c 2
 458 600 l 1
 548 600 l 1
 548 184 l 2
 548 69 456 -18 310 -18 c 0
 164 -18 72 69 72 184 c 2
EndSplineSet
EndChar

StartChar: uni01DB
Encoding: 475 475 336
Width: 770
GlyphClass: 2
Flags: W
AnchorPoint: "LatinBelow.mark" 385 0 basechar 0
LayerCount: 2
Fore
SplineSet
235 1170 m 1
 275 1232 l 1
 490 1064 l 1
 464 1028 l 1
 235 1170 l 1
198 930 m 0
 198 969 228 993 266 993 c 0
 304 993 334 969 334 930 c 0
 334 891 304 867 266 867 c 0
 228 867 198 891 198 930 c 0
436 930 m 0
 436 969 466 993 504 993 c 0
 542 993 572 969 572 930 c 0
 572 891 542 867 504 867 c 0
 466 867 436 891 436 930 c 0
87 236 m 2
 87 780 l 1
 183 780 l 1
 183 236 l 2
 183 118 267 54 385 54 c 0
 503 54 587 118 587 236 c 2
 587 780 l 1
 683 780 l 1
 683 236 l 2
 683 90 565 -18 385 -18 c 0
 205 -18 87 90 87 236 c 2
EndSplineSet
EndChar

StartChar: uni01DC
Encoding: 476 476 337
Width: 620
GlyphClass: 2
Flags: W
AnchorPoint: "LatinBelow.mark" 310 0 basechar 0
LayerCount: 2
Fore
SplineSet
160 1020 m 1
 200 1082 l 1
 415 914 l 1
 389 878 l 1
 160 1020 l 1
123 780 m 0
 123 819 153 843 191 843 c 0
 229 843 259 819 259 780 c 0
 259 741 229 717 191 717 c 0
 153 717 123 741 123 780 c 0
361 780 m 0
 361 819 391 843 429 843 c 0
 467 843 497 819 497 780 c 0
 497 741 467 717 429 717 c 0
 391 717 361 741 361 780 c 0
72 184 m 2
 72 600 l 1
 162 600 l 1
 162 184 l 2
 162 94 224 48 310 48 c 0
 396 48 458 94 458 184 c 2
 458 600 l 1
 548 600 l 1
 548 184 l 2
 548 69 456 -18 310 -18 c 0
 164 -18 72 69 72 184 c 2
EndSplineSet
EndChar

StartChar: Gcaron
Encoding: 486 486 338
Width: 770
GlyphClass: 2
Flags: W
AnchorPoint: "LatinBelow.mark" 410 0 basechar 0
LayerCount: 2
Fore
SplineSet
597 992 m 1
 422 843 l 1
 398 843 l 1
 223 992 l 1
 251 1023 l 1
 410 917 l 1
 569 1023 l 1
 597 992 l 1
422 311 m 1
 422 379 l 1
 703 379 l 1
 703 138 l 1
 673 74 585 -18 413 -18 c 0
 149 -18 68 185 68 373 c 2
 68 407 l 2
 68 595 149 798 413 798 c 0
 607 798 694 672 708 592 c 1
 611 583 l 1
 599 644 537 726 413 726 c 0
 243 726 166 596 166 407 c 2
 166 373 l 2
 166 184 243 54 413 54 c 0
 531 54 588 103 616 147 c 1
 616 311 l 1
 422 311 l 1
EndSplineSet
EndChar

StartChar: gcaron
Encoding: 487 487 339
Width: 670
GlyphClass: 2
Flags: W
AnchorPoint: "LatinBelow.mark" 360 -180 basechar 0
LayerCount: 2
Fore
SplineSet
547 842 m 1
 372 693 l 1
 348 693 l 1
 173 842 l 1
 201 873 l 1
 360 767 l 1
 519 873 l 1
 547 842 l 1
62 315 m 0
 62 451 126 613 312 613 c 0
 402 613 461 557 498 493 c 1
 505 600 l 1
 582 600 l 1
 582 -31 l 2
 582 -146 490 -228 348 -228 c 0
 208 -228 132 -159 117 -113 c 1
 201 -90 l 1
 210 -118 256 -165 348 -165 c 0
 436 -165 497 -121 497 -31 c 2
 497 136 l 1
 460 72 401 17 312 17 c 0
 126 17 62 179 62 315 c 0
495 375 m 1
 476 457 422 547 322 547 c 0
 210 547 152 453 152 315 c 0
 152 177 210 83 322 83 c 0
 422 83 476 173 495 255 c 1
 495 375 l 1
EndSplineSet
MultipleSubs2: "Latin.g.decomp subtable" g.alt uni030C
EndChar

StartChar: uni01EA
Encoding: 490 490 340
Width: 820
GlyphClass: 2
Flags: W
AnchorPoint: "LatinAbove.mark" 410 150 basechar 0
LayerCount: 2
Fore
SplineSet
410 54 m 0
 579 54 654 186 654 372 c 2
 654 408 l 2
 654 594 579 726 410 726 c 0
 241 726 166 594 166 408 c 2
 166 372 l 2
 166 186 241 54 410 54 c 0
68 372 m 2
 68 408 l 2
 68 594 147 798 410 798 c 0
 673 798 752 594 752 408 c 2
 752 372 l 2
 752 211 693 35 505 -8 c 1
 481 -39 462 -79 462 -135 c 0
 462 -184 488 -204 522 -204 c 0
 550 -204 574 -195 586 -188 c 1
 602 -232 l 1
 577 -245 548 -252 512 -252 c 0
 440 -252 402 -207 402 -142 c 0
 402 -90 420 -50 443 -17 c 1
 432 -18 421 -18 410 -18 c 0
 147 -18 68 186 68 372 c 2
EndSplineSet
EndChar

StartChar: uni01EB
Encoding: 491 491 341
Width: 660
GlyphClass: 2
Flags: W
AnchorPoint: "LatinAbove.mark" 330 0 basechar 0
LayerCount: 2
Fore
SplineSet
330 48 m 0
 450 48 508 143 508 286 c 2
 508 314 l 2
 508 457 450 552 330 552 c 0
 210 552 152 457 152 314 c 2
 152 286 l 2
 152 143 210 48 330 48 c 0
62 286 m 2
 62 314 l 2
 62 456 122 618 330 618 c 0
 538 618 598 456 598 314 c 2
 598 286 l 2
 598 170 558 40 429 -3 c 1
 403 -35 382 -77 382 -135 c 0
 382 -184 408 -204 442 -204 c 0
 470 -204 494 -195 506 -188 c 1
 522 -232 l 1
 497 -245 468 -252 432 -252 c 0
 360 -252 322 -207 322 -142 c 0
 322 -90 340 -50 363 -17 c 1
 352 -18 342 -18 330 -18 c 0
 122 -18 62 144 62 286 c 2
EndSplineSet
EndChar

StartChar: uni0218
Encoding: 536 536 342
Width: 710
GlyphClass: 2
Flags: W
AnchorPoint: "LatinAbove.mark" 355 150 basechar 0
LayerCount: 2
Fore
SplineSet
370 -190 m 1
 361 -195 349 -197 337 -197 c 0
 301 -197 275 -175 275 -139 c 0
 275 -99 299 -71 343 -71 c 0
 405 -71 425 -121 425 -165 c 0
 425 -260 358 -319 306 -341 c 1
 283 -309 l 1
 319 -293 362 -251 370 -190 c 1
62 177 m 1
 156 190 l 1
 166 128 229 52 355 52 c 0
 486 52 554 109 554 197 c 0
 554 279 493 313 446 327 c 0
 388 343 301 370 242 392 c 0
 172 418 81 473 81 583 c 0
 81 707 191 798 355 798 c 0
 527 798 613 685 627 607 c 1
 532 594 l 1
 520 656 461 728 355 728 c 0
 243 728 174 672 174 587 c 0
 174 517 232 489 284 469 c 0
 340 449 426 421 480 405 c 0
 558 381 647 323 647 201 c 0
 647 75 539 -18 355 -18 c 0
 166 -18 77 97 62 177 c 1
EndSplineSet
EndChar

StartChar: uni0219
Encoding: 537 537 343
Width: 570
GlyphClass: 2
Flags: W
AnchorPoint: "LatinAbove.mark" 285 0 basechar 0
LayerCount: 2
Fore
SplineSet
300 -190 m 1
 291 -195 279 -197 267 -197 c 0
 231 -197 205 -175 205 -139 c 0
 205 -99 229 -71 273 -71 c 0
 335 -71 355 -121 355 -165 c 0
 355 -260 288 -319 236 -341 c 1
 213 -309 l 1
 249 -293 292 -251 300 -190 c 1
52 137 m 1
 140 147 l 1
 148 100 195 47 288 47 c 0
 380 47 431 89 431 153 c 0
 431 213 384 239 350 249 c 0
 305 263 240 281 196 297 c 0
 140 317 68 358 68 448 c 0
 68 546 152 618 284 618 c 0
 424 618 490 529 501 467 c 1
 414 455 l 1
 406 501 364 553 284 553 c 0
 204 553 154 514 154 451 c 0
 154 401 198 375 234 363 c 0
 278 349 344 329 384 317 c 0
 447 298 517 255 517 155 c 0
 517 56 428 -18 284 -18 c 0
 132 -18 64 73 52 137 c 1
EndSplineSet
EndChar

StartChar: uni021A
Encoding: 538 538 344
Width: 620
GlyphClass: 2
Flags: W
AnchorPoint: "LatinAbove.mark" 310 150 basechar 0
LayerCount: 2
Fore
SplineSet
325 -190 m 1
 316 -195 304 -197 292 -197 c 0
 256 -197 230 -175 230 -139 c 0
 230 -99 254 -71 298 -71 c 0
 360 -71 380 -121 380 -165 c 0
 380 -260 313 -319 261 -341 c 1
 238 -309 l 1
 274 -293 317 -251 325 -190 c 1
37 708 m 1
 37 780 l 1
 583 780 l 1
 583 708 l 1
 358 708 l 1
 358 0 l 1
 262 0 l 1
 262 708 l 1
 37 708 l 1
EndSplineSet
EndChar

StartChar: uni021B
Encoding: 539 539 345
Width: 415
GlyphClass: 2
Flags: W
AnchorPoint: "LatinAbove.mark" 180 120 basechar 0
LayerCount: 2
Fore
SplineSet
295 -190 m 1
 286 -195 274 -197 262 -197 c 0
 226 -197 200 -175 200 -139 c 0
 200 -99 224 -71 268 -71 c 0
 330 -71 350 -121 350 -165 c 0
 350 -260 283 -319 231 -341 c 1
 208 -309 l 1
 244 -293 287 -251 295 -190 c 1
35 542 m 1
 35 600 l 1
 133 600 l 1
 133 728 l 1
 219 735 l 1
 219 600 l 1
 375 600 l 1
 375 542 l 1
 220 542 l 1
 220 133 l 2
 220 69 240 52 282 52 c 0
 326 52 367 69 383 79 c 1
 405 19 l 1
 378 3 329 -13 271 -13 c 0
 186 -13 130 25 130 121 c 2
 130 542 l 1
 35 542 l 1
EndSplineSet
EndChar

StartChar: uni0237
Encoding: 567 567 346
Width: 310
GlyphClass: 2
Flags: W
AnchorPoint: "LatinBelow.mark" 150 -180 basechar 0
AnchorPoint: "LatinAbove.mark" 160 0 basechar 0
LayerCount: 2
Fore
SplineSet
1 -164 m 1
 70 -140 116 -102 116 -19 c 2
 116 600 l 1
 206 600 l 1
 206 -24 l 2
 206 -133 123 -195 29 -223 c 1
 1 -164 l 1
EndSplineSet
EndChar

StartChar: uni0251
Encoding: 593 593 347
Width: 675
GlyphClass: 2
Flags: W
AnchorPoint: "LatinOgonek.mark" 565 0 basechar 0
AnchorPoint: "LatinBelow.mark" 360 0 basechar 0
AnchorPoint: "LatinAbove.mark" 360 0 basechar 0
LayerCount: 2
Fore
SplineSet
62 288 m 2
 62 312 l 2
 62 454 126 613 312 613 c 0
 402 613 461 558 498 494 c 1
 505 600 l 1
 582 600 l 1
 582 137 l 2
 582 77 600 53 652 47 c 1
 630 -13 l 1
 581 -7 510 18 506 114 c 1
 468 47 406 -13 312 -13 c 0
 126 -13 62 146 62 288 c 2
495 378 m 1
 476 460 422 546 322 546 c 0
 210 546 152 456 152 312 c 2
 152 288 l 2
 152 144 210 54 322 54 c 0
 422 54 476 140 495 222 c 1
 495 378 l 1
EndSplineSet
EndChar

StartChar: uni0259
Encoding: 601 601 348
Width: 640
GlyphClass: 2
Flags: W
AnchorPoint: "LatinBelow.mark" 320 0 basechar 0
AnchorPoint: "LatinAbove.mark" 320 0 basechar 0
LayerCount: 2
Fore
SplineSet
577 314 m 2
 577 286 l 2
 577 144 516 -18 313 -18 c 0
 147 -18 62 104 62 238 c 0
 62 263 64 289 69 314 c 1
 489 314 l 1
 489 456 433 553 313 553 c 0
 223 553 175 493 167 447 c 1
 80 455 l 1
 91 519 161 618 313 618 c 0
 519 618 577 456 577 314 c 2
488 256 m 1
 147 256 l 1
 147 237 l 2
 147 113 215 46 313 46 c 0
 423 46 480 130 488 256 c 1
EndSplineSet
EndChar

StartChar: uni0261
Encoding: 609 609 349
Width: 670
GlyphClass: 2
Flags: W
AnchorPoint: "LatinBelow.mark" 360 -180 basechar 0
AnchorPoint: "LatinAbove.mark" 360 0 basechar 0
LayerCount: 2
Fore
SplineSet
62 315 m 0
 62 451 126 613 312 613 c 0
 402 613 461 557 498 493 c 1
 505 600 l 1
 582 600 l 1
 582 -31 l 2
 582 -146 490 -228 348 -228 c 0
 208 -228 132 -159 117 -113 c 1
 201 -90 l 1
 210 -118 256 -165 348 -165 c 0
 436 -165 497 -121 497 -31 c 2
 497 136 l 1
 460 72 401 17 312 17 c 0
 126 17 62 179 62 315 c 0
495 375 m 1
 476 457 422 547 322 547 c 0
 210 547 152 453 152 315 c 0
 152 177 210 83 322 83 c 0
 422 83 476 173 495 255 c 1
 495 375 l 1
EndSplineSet
EndChar

StartChar: uni02BB
Encoding: 699 699 350
Width: 240
GlyphClass: 2
Flags: W
LayerCount: 2
Fore
SplineSet
193 647 m 0
 193 606 165 577 121 577 c 0
 59 577 33 629 33 685 c 0
 33 789 101 862 165 905 c 1
 193 866 l 1
 144 833 103 782 96 709 c 1
 104 712 113 713 123 713 c 0
 163 713 193 687 193 647 c 0
EndSplineSet
EndChar

StartChar: uni02BC
Encoding: 700 700 351
Width: 240
GlyphClass: 2
Flags: W
LayerCount: 2
Fore
SplineSet
32 803 m 0
 32 844 60 873 104 873 c 0
 166 873 192 821 192 765 c 0
 192 661 124 588 60 545 c 1
 32 584 l 1
 81 617 122 668 129 741 c 1
 121 738 112 737 102 737 c 0
 62 737 32 763 32 803 c 0
EndSplineSet
EndChar

StartChar: uni02BD
Encoding: 701 701 352
Width: 240
GlyphClass: 2
Flags: W
LayerCount: 2
Fore
SplineSet
192 803 m 0
 192 763 162 737 122 737 c 0
 112 737 103 738 95 741 c 1
 102 668 143 617 192 584 c 1
 164 545 l 1
 100 588 32 661 32 765 c 0
 32 821 58 873 120 873 c 0
 164 873 192 844 192 803 c 0
EndSplineSet
EndChar

StartChar: uni02BE
Encoding: 702 702 353
Width: 180
GlyphClass: 2
Flags: W
LayerCount: 2
Fore
SplineSet
140 765 m 0
 140 701 92 657 25 657 c 1
 25 701 l 1
 65 701 91 727 91 765 c 0
 91 803 65 829 25 829 c 1
 25 873 l 1
 92 873 140 829 140 765 c 0
EndSplineSet
EndChar

StartChar: uni02BF
Encoding: 703 703 354
Width: 180
GlyphClass: 2
Flags: W
LayerCount: 2
Fore
SplineSet
40 765 m 0
 40 829 88 873 155 873 c 1
 155 829 l 1
 115 829 89 803 89 765 c 0
 89 727 115 701 155 701 c 1
 155 657 l 1
 88 657 40 701 40 765 c 0
EndSplineSet
EndChar

StartChar: circumflex
Encoding: 710 710 355
Width: 510
GlyphClass: 2
Flags: W
LayerCount: 2
Fore
SplineSet
68 713 m 1
 243 862 l 1
 267 862 l 1
 442 713 l 1
 414 682 l 1
 255 788 l 1
 96 682 l 1
 68 713 l 1
EndSplineSet
EndChar

StartChar: caron
Encoding: 711 711 356
Width: 510
GlyphClass: 2
Flags: W
LayerCount: 2
Fore
SplineSet
442 842 m 1
 267 693 l 1
 243 693 l 1
 68 842 l 1
 96 873 l 1
 255 767 l 1
 414 873 l 1
 442 842 l 1
EndSplineSet
EndChar

StartChar: uni02C8
Encoding: 712 712 357
Width: 210
GlyphClass: 2
Flags: W
LayerCount: 2
Fore
SplineSet
73 682 m 1
 73 892 l 1
 137 892 l 1
 137 682 l 1
 73 682 l 1
EndSplineSet
EndChar

StartChar: uni02C9
Encoding: 713 713 358
Width: 510
GlyphClass: 2
Flags: W
LayerCount: 2
Fore
SplineSet
68 750 m 1
 68 810 l 1
 442 810 l 1
 442 750 l 1
 68 750 l 1
EndSplineSet
EndChar

StartChar: uni02CA
Encoding: 714 714 359
Width: 330
GlyphClass: 2
Flags: W
LayerCount: 2
Fore
SplineSet
300 840 m 1
 71 698 l 1
 45 734 l 1
 260 902 l 1
 300 840 l 1
EndSplineSet
EndChar

StartChar: uni02CB
Encoding: 715 715 360
Width: 330
GlyphClass: 2
Flags: W
LayerCount: 2
Fore
SplineSet
30 840 m 1
 70 902 l 1
 285 734 l 1
 259 698 l 1
 30 840 l 1
EndSplineSet
EndChar

StartChar: uni02CC
Encoding: 716 716 361
Width: 210
GlyphClass: 2
Flags: W
LayerCount: 2
Fore
SplineSet
73 -293 m 1
 73 -83 l 1
 137 -83 l 1
 137 -293 l 1
 73 -293 l 1
EndSplineSet
EndChar

StartChar: uni02D7
Encoding: 727 727 362
Width: 330
GlyphClass: 2
Flags: W
LayerCount: 2
Fore
SplineSet
22 395 m 1
 308 395 l 1
 308 325 l 1
 22 325 l 1
 22 395 l 1
EndSplineSet
EndChar

StartChar: breve
Encoding: 728 728 363
Width: 510
GlyphClass: 2
Flags: W
LayerCount: 2
Fore
SplineSet
68 838 m 1
 125 857 l 1
 137 809 167 755 255 755 c 0
 343 755 373 809 385 857 c 1
 442 838 l 1
 424 770 372 697 255 697 c 0
 138 697 86 770 68 838 c 1
EndSplineSet
EndChar

StartChar: dotaccent
Encoding: 729 729 364
Width: 330
GlyphClass: 2
Flags: W
LayerCount: 2
Fore
SplineSet
165 848 m 0
 206 848 237 822 237 780 c 0
 237 738 206 712 165 712 c 0
 124 712 93 738 93 780 c 0
 93 822 124 848 165 848 c 0
EndSplineSet
EndChar

StartChar: ring
Encoding: 730 730 365
Width: 330
GlyphClass: 2
Flags: W
LayerCount: 2
Fore
SplineSet
165 657 m 0
 98 657 50 701 50 765 c 0
 50 829 98 873 165 873 c 0
 232 873 280 829 280 765 c 0
 280 701 232 657 165 657 c 0
165 701 m 0
 205 701 231 727 231 765 c 0
 231 803 205 829 165 829 c 0
 125 829 99 803 99 765 c 0
 99 727 125 701 165 701 c 0
EndSplineSet
EndChar

StartChar: ogonek
Encoding: 731 731 366
Width: 330
GlyphClass: 2
Flags: W
LayerCount: 2
Fore
SplineSet
87 -142 m 0
 87 -57 135 -2 177 38 c 1
 207 12 l 1
 175 -22 147 -67 147 -135 c 0
 147 -184 173 -204 207 -204 c 0
 235 -204 259 -195 271 -188 c 1
 287 -232 l 1
 262 -245 233 -252 197 -252 c 0
 125 -252 87 -207 87 -142 c 0
EndSplineSet
EndChar

StartChar: tilde
Encoding: 732 732 367
Width: 510
GlyphClass: 2
Flags: W
LayerCount: 2
Fore
SplineSet
68 737 m 1
 88 788 115 857 179 857 c 0
 229 857 257 826 279 805 c 0
 300 784 315 763 334 763 c 0
 366 763 385 824 395 850 c 1
 442 833 l 1
 424 781 395 713 332 713 c 0
 282 713 254 744 232 765 c 0
 211 786 196 807 177 807 c 0
 145 807 126 746 116 720 c 1
 68 737 l 1
EndSplineSet
EndChar

StartChar: hungarumlaut
Encoding: 733 733 368
Width: 510
GlyphClass: 2
Flags: W
LayerCount: 2
Fore
SplineSet
67 723 m 1
 184 912 l 1
 240 872 l 1
 101 698 l 1
 67 723 l 1
270 723 m 1
 387 912 l 1
 442 872 l 1
 304 698 l 1
 270 723 l 1
EndSplineSet
EndChar

StartChar: uni0300
Encoding: 768 768 369
Width: 0
GlyphClass: 4
Flags: W
AnchorPoint: "LatinAbove.mkmk" 0 180 basemark 0
AnchorPoint: "LatinAbove.mkmk" 0 0 mark 0
AnchorPoint: "LatinAbove.mark" 0 0 mark 0
LayerCount: 2
Fore
SplineSet
-150 840 m 1
 -110 902 l 1
 105 734 l 1
 79 698 l 1
 -150 840 l 1
EndSplineSet
EndChar

StartChar: uni0301
Encoding: 769 769 370
Width: 0
GlyphClass: 4
Flags: W
AnchorPoint: "LatinAbove.mkmk" 0 180 basemark 0
AnchorPoint: "LatinAbove.mkmk" 0 0 mark 0
AnchorPoint: "LatinAbove.mark" 0 0 mark 0
LayerCount: 2
Fore
SplineSet
150 840 m 1
 -79 698 l 1
 -105 734 l 1
 110 902 l 1
 150 840 l 1
EndSplineSet
EndChar

StartChar: uni0302
Encoding: 770 770 371
Width: 0
GlyphClass: 4
Flags: W
AnchorPoint: "LatinAbove.mkmk" 0 180 basemark 0
AnchorPoint: "LatinAbove.mkmk" 0 0 mark 0
AnchorPoint: "LatinAbove.mark" 0 0 mark 0
LayerCount: 2
Fore
SplineSet
-187 713 m 1
 -12 862 l 1
 12 862 l 1
 187 713 l 1
 159 682 l 1
 0 788 l 1
 -159 682 l 1
 -187 713 l 1
EndSplineSet
EndChar

StartChar: uni0303
Encoding: 771 771 372
Width: 0
GlyphClass: 4
Flags: W
AnchorPoint: "LatinAbove.mkmk" 0 180 basemark 0
AnchorPoint: "LatinAbove.mkmk" 0 0 mark 0
AnchorPoint: "LatinAbove.mark" 0 0 mark 0
LayerCount: 2
Fore
SplineSet
-187 737 m 1
 -167 788 -140 857 -76 857 c 0
 -26 857 2 826 24 805 c 0
 45 784 60 763 79 763 c 0
 111 763 130 824 140 850 c 1
 187 833 l 1
 169 781 140 713 77 713 c 0
 27 713 -1 744 -23 765 c 0
 -44 786 -59 807 -78 807 c 0
 -110 807 -129 746 -139 720 c 1
 -187 737 l 1
EndSplineSet
EndChar

StartChar: uni0304
Encoding: 772 772 373
Width: 0
GlyphClass: 4
Flags: W
AnchorPoint: "LatinAbove.mkmk" 0 180 basemark 0
AnchorPoint: "LatinAbove.mkmk" 0 0 mark 0
AnchorPoint: "LatinAbove.mark" 0 0 mark 0
LayerCount: 2
Fore
SplineSet
-187 750 m 1
 -187 810 l 1
 187 810 l 1
 187 750 l 1
 -187 750 l 1
EndSplineSet
EndChar

StartChar: uni0305
Encoding: 773 773 374
Width: 0
GlyphClass: 4
Flags: W
AnchorPoint: "LatinAbove.mkmk" 0 180 basemark 0
AnchorPoint: "LatinAbove.mkmk" 0 0 mark 0
AnchorPoint: "LatinAbove.mark" 0 0 mark 0
LayerCount: 2
Fore
SplineSet
-277 750 m 1
 -277 810 l 1
 277 810 l 1
 277 750 l 1
 -277 750 l 1
EndSplineSet
EndChar

StartChar: uni0306
Encoding: 774 774 375
Width: 0
GlyphClass: 4
Flags: W
AnchorPoint: "LatinAbove.mkmk" 0 180 basemark 0
AnchorPoint: "LatinAbove.mkmk" 0 0 mark 0
AnchorPoint: "LatinAbove.mark" 0 0 mark 0
LayerCount: 2
Fore
SplineSet
-187 838 m 1
 -130 857 l 1
 -118 809 -88 755 0 755 c 0
 88 755 118 809 130 857 c 1
 187 838 l 1
 169 770 117 697 0 697 c 0
 -117 697 -169 770 -187 838 c 1
EndSplineSet
EndChar

StartChar: uni0307
Encoding: 775 775 376
Width: 0
GlyphClass: 4
Flags: W
AnchorPoint: "LatinAbove.mkmk" 0 180 basemark 0
AnchorPoint: "LatinAbove.mkmk" 0 0 mark 0
AnchorPoint: "LatinAbove.mark" 0 0 mark 0
LayerCount: 2
Fore
SplineSet
0 848 m 0
 41 848 72 822 72 780 c 0
 72 738 41 712 0 712 c 0
 -41 712 -72 738 -72 780 c 0
 -72 822 -41 848 0 848 c 0
EndSplineSet
EndChar

StartChar: uni0308
Encoding: 776 776 377
Width: 0
GlyphClass: 4
Flags: W
AnchorPoint: "LatinAbove.mkmk" 0 180 basemark 0
AnchorPoint: "LatinAbove.mkmk" 0 0 mark 0
AnchorPoint: "LatinAbove.mark" 0 0 mark 0
LayerCount: 2
Fore
SplineSet
-187 780 m 0
 -187 819 -157 843 -119 843 c 0
 -81 843 -51 819 -51 780 c 0
 -51 741 -81 717 -119 717 c 0
 -157 717 -187 741 -187 780 c 0
51 780 m 0
 51 819 81 843 119 843 c 0
 157 843 187 819 187 780 c 0
 187 741 157 717 119 717 c 0
 81 717 51 741 51 780 c 0
EndSplineSet
EndChar

